%TF.GenerationSoftware,KiCad,Pcbnew,8.0.5*%
%TF.CreationDate,2024-10-13T18:39:00+03:00*%
%TF.ProjectId,proect,70726f65-6374-42e6-9b69-6361645f7063,rev?*%
%TF.SameCoordinates,Original*%
%TF.FileFunction,Legend,Top*%
%TF.FilePolarity,Positive*%
%FSLAX46Y46*%
G04 Gerber Fmt 4.6, Leading zero omitted, Abs format (unit mm)*
G04 Created by KiCad (PCBNEW 8.0.5) date 2024-10-13 18:39:00*
%MOMM*%
%LPD*%
G01*
G04 APERTURE LIST*
%ADD10C,0.300000*%
%ADD11C,0.150000*%
%ADD12C,0.120000*%
G04 APERTURE END LIST*
D10*
G36*
X108525819Y-25863667D02*
G01*
X108486806Y-25929432D01*
X108428733Y-25945000D01*
X107934874Y-25945000D01*
X107858024Y-25934480D01*
X107787914Y-25899008D01*
X107744731Y-25855973D01*
X107708425Y-25790265D01*
X107694718Y-25715552D01*
X107701866Y-25639818D01*
X107883217Y-24767871D01*
X107906951Y-24693282D01*
X107945642Y-24626134D01*
X107999287Y-24566428D01*
X108011810Y-24555380D01*
X108078049Y-24509205D01*
X108148081Y-24480132D01*
X108221905Y-24468161D01*
X108237124Y-24467819D01*
X108730983Y-24467819D01*
X108785572Y-24493831D01*
X108798394Y-24552083D01*
X108767254Y-24605938D01*
X108701674Y-24631950D01*
X108208182Y-24631950D01*
X108136255Y-24650305D01*
X108105966Y-24670785D01*
X108068597Y-24715847D01*
X108048080Y-24768970D01*
X107865265Y-25648611D01*
X107870142Y-25723280D01*
X107881751Y-25743499D01*
X107916556Y-25771343D01*
X107964549Y-25780868D01*
X108378175Y-25780868D01*
X108495045Y-25218133D01*
X108438991Y-25218133D01*
X108381472Y-25193220D01*
X108371580Y-25133503D01*
X108403820Y-25079647D01*
X108468300Y-25054002D01*
X108608984Y-25054002D01*
X108675016Y-25087776D01*
X108676029Y-25140464D01*
X108525819Y-25863667D01*
G37*
G36*
X109674005Y-25854874D02*
G01*
X109638834Y-25919720D01*
X109612822Y-25937306D01*
X109580216Y-25945000D01*
X109516062Y-25905169D01*
X109510973Y-25892976D01*
X109169888Y-24894633D01*
X108968021Y-25863300D01*
X108932484Y-25924849D01*
X108870935Y-25945000D01*
X108816346Y-25923018D01*
X108803890Y-25858538D01*
X109074633Y-24557212D01*
X109110537Y-24491632D01*
X109169155Y-24467819D01*
X109231706Y-24509332D01*
X109236933Y-24522041D01*
X109575453Y-25536503D01*
X109780251Y-24550251D01*
X109816521Y-24489801D01*
X109877704Y-24467819D01*
X109931559Y-24488702D01*
X109944382Y-24554281D01*
X109674005Y-25854874D01*
G37*
G36*
X110892964Y-24478425D02*
G01*
X110963358Y-24514189D01*
X111005739Y-24557578D01*
X111041254Y-24623321D01*
X111054603Y-24697636D01*
X111047505Y-24772634D01*
X110866154Y-25644947D01*
X110842505Y-25718521D01*
X110803615Y-25785368D01*
X110749483Y-25845489D01*
X110736828Y-25856706D01*
X110670503Y-25903267D01*
X110600672Y-25932583D01*
X110527335Y-25944655D01*
X110512247Y-25945000D01*
X110018387Y-25945000D01*
X109952356Y-25911082D01*
X109951343Y-25858171D01*
X109967423Y-25780868D01*
X110132693Y-25780868D01*
X110541556Y-25780868D01*
X110615525Y-25761185D01*
X110642306Y-25742766D01*
X110688858Y-25682652D01*
X110701657Y-25643482D01*
X110884473Y-24764207D01*
X110879801Y-24689744D01*
X110868353Y-24669685D01*
X110801901Y-24632871D01*
X110785188Y-24631950D01*
X110371563Y-24631950D01*
X110132693Y-25780868D01*
X109967423Y-25780868D01*
X110223551Y-24549518D01*
X110262565Y-24483457D01*
X110320638Y-24467819D01*
X110814497Y-24467819D01*
X110892964Y-24478425D01*
G37*
G36*
X42125819Y-8563667D02*
G01*
X42086806Y-8629432D01*
X42028733Y-8645000D01*
X41534874Y-8645000D01*
X41458024Y-8634480D01*
X41387914Y-8599008D01*
X41344731Y-8555973D01*
X41308425Y-8490265D01*
X41294718Y-8415552D01*
X41301866Y-8339818D01*
X41483217Y-7467871D01*
X41506951Y-7393282D01*
X41545642Y-7326134D01*
X41599287Y-7266428D01*
X41611810Y-7255380D01*
X41678049Y-7209205D01*
X41748081Y-7180132D01*
X41821905Y-7168161D01*
X41837124Y-7167819D01*
X42330983Y-7167819D01*
X42385572Y-7193831D01*
X42398394Y-7252083D01*
X42367254Y-7305938D01*
X42301674Y-7331950D01*
X41808182Y-7331950D01*
X41736255Y-7350305D01*
X41705966Y-7370785D01*
X41668597Y-7415847D01*
X41648080Y-7468970D01*
X41465265Y-8348611D01*
X41470142Y-8423280D01*
X41481751Y-8443499D01*
X41516556Y-8471343D01*
X41564549Y-8480868D01*
X41978175Y-8480868D01*
X42095045Y-7918133D01*
X42038991Y-7918133D01*
X41981472Y-7893220D01*
X41971580Y-7833503D01*
X42003820Y-7779647D01*
X42068300Y-7754002D01*
X42208984Y-7754002D01*
X42275016Y-7787776D01*
X42276029Y-7840464D01*
X42125819Y-8563667D01*
G37*
G36*
X43274005Y-8554874D02*
G01*
X43238834Y-8619720D01*
X43212822Y-8637306D01*
X43180216Y-8645000D01*
X43116062Y-8605169D01*
X43110973Y-8592976D01*
X42769888Y-7594633D01*
X42568021Y-8563300D01*
X42532484Y-8624849D01*
X42470935Y-8645000D01*
X42416346Y-8623018D01*
X42403890Y-8558538D01*
X42674633Y-7257212D01*
X42710537Y-7191632D01*
X42769155Y-7167819D01*
X42831706Y-7209332D01*
X42836933Y-7222041D01*
X43175453Y-8236503D01*
X43380251Y-7250251D01*
X43416521Y-7189801D01*
X43477704Y-7167819D01*
X43531559Y-7188702D01*
X43544382Y-7254281D01*
X43274005Y-8554874D01*
G37*
G36*
X44492964Y-7178425D02*
G01*
X44563358Y-7214189D01*
X44605739Y-7257578D01*
X44641254Y-7323321D01*
X44654603Y-7397636D01*
X44647505Y-7472634D01*
X44466154Y-8344947D01*
X44442505Y-8418521D01*
X44403615Y-8485368D01*
X44349483Y-8545489D01*
X44336828Y-8556706D01*
X44270503Y-8603267D01*
X44200672Y-8632583D01*
X44127335Y-8644655D01*
X44112247Y-8645000D01*
X43618387Y-8645000D01*
X43552356Y-8611082D01*
X43551343Y-8558171D01*
X43567423Y-8480868D01*
X43732693Y-8480868D01*
X44141556Y-8480868D01*
X44215525Y-8461185D01*
X44242306Y-8442766D01*
X44288858Y-8382652D01*
X44301657Y-8343482D01*
X44484473Y-7464207D01*
X44479801Y-7389744D01*
X44468353Y-7369685D01*
X44401901Y-7332871D01*
X44385188Y-7331950D01*
X43971563Y-7331950D01*
X43732693Y-8480868D01*
X43567423Y-8480868D01*
X43823551Y-7249518D01*
X43862565Y-7183457D01*
X43920638Y-7167819D01*
X44414497Y-7167819D01*
X44492964Y-7178425D01*
G37*
G36*
X41880739Y-11999501D02*
G01*
X41316172Y-11999501D01*
X41258286Y-11974588D01*
X41248761Y-11914870D01*
X41281001Y-11861015D01*
X41345481Y-11835369D01*
X41910048Y-11835369D01*
X41964270Y-11861381D01*
X41977093Y-11919633D01*
X41945952Y-11973489D01*
X41880739Y-11999501D01*
G37*
G36*
X42960846Y-10978425D02*
G01*
X43031240Y-11014189D01*
X43073621Y-11057578D01*
X43109136Y-11123365D01*
X43122485Y-11197810D01*
X43115387Y-11273000D01*
X43039916Y-11635334D01*
X43020918Y-11713666D01*
X42996897Y-11790118D01*
X42967852Y-11864689D01*
X42933785Y-11937379D01*
X42894694Y-12008189D01*
X42880547Y-12031374D01*
X42835805Y-12098121D01*
X42786209Y-12160976D01*
X42731758Y-12219937D01*
X42672452Y-12275006D01*
X42609163Y-12325061D01*
X42542759Y-12368979D01*
X42473242Y-12406760D01*
X42400610Y-12438405D01*
X42366538Y-12445000D01*
X42315247Y-12416789D01*
X42302424Y-12354508D01*
X42320743Y-12314940D01*
X42366172Y-12281967D01*
X42435609Y-12251370D01*
X42475348Y-12229577D01*
X42536868Y-12187866D01*
X42578663Y-12153374D01*
X42635256Y-12098762D01*
X42687342Y-12038427D01*
X42734919Y-11972367D01*
X42743893Y-11958468D01*
X42774668Y-11903513D01*
X42797016Y-11858817D01*
X42560711Y-11858817D01*
X42484609Y-11848427D01*
X42414723Y-11813393D01*
X42371301Y-11770889D01*
X42334370Y-11705598D01*
X42320296Y-11631130D01*
X42326723Y-11562062D01*
X42491102Y-11562062D01*
X42495567Y-11637075D01*
X42506856Y-11657316D01*
X42542393Y-11685160D01*
X42590020Y-11694685D01*
X42860031Y-11694685D01*
X42866625Y-11670139D01*
X42876151Y-11630572D01*
X42952355Y-11264207D01*
X42947684Y-11189744D01*
X42936235Y-11169685D01*
X42869784Y-11132871D01*
X42853070Y-11131950D01*
X42712020Y-11131950D01*
X42640094Y-11150305D01*
X42609804Y-11170785D01*
X42572435Y-11215847D01*
X42551919Y-11268970D01*
X42491102Y-11562062D01*
X42326723Y-11562062D01*
X42327337Y-11555467D01*
X42387421Y-11266039D01*
X42411034Y-11192416D01*
X42449817Y-11125876D01*
X42503770Y-11066421D01*
X42516381Y-11055380D01*
X42582742Y-11009205D01*
X42652680Y-10980132D01*
X42726196Y-10968161D01*
X42741329Y-10967819D01*
X42882379Y-10967819D01*
X42960846Y-10978425D01*
G37*
G36*
X44436863Y-11081025D02*
G01*
X43744434Y-12375390D01*
X43706699Y-12425216D01*
X43655774Y-12445000D01*
X43596794Y-12400277D01*
X43589096Y-12371727D01*
X43434856Y-11076629D01*
X43436322Y-11047686D01*
X43471493Y-10993464D01*
X43534508Y-10967819D01*
X43554291Y-10967819D01*
X43575907Y-10975146D01*
X43601186Y-11027170D01*
X43725017Y-12089993D01*
X44292515Y-11023872D01*
X44331716Y-10983572D01*
X44378244Y-10967819D01*
X44433565Y-10990167D01*
X44447121Y-11052449D01*
X44436863Y-11081025D01*
G37*
G36*
X107881071Y-28099501D02*
G01*
X107835275Y-28318586D01*
X107799738Y-28382700D01*
X107738189Y-28404316D01*
X107683234Y-28381235D01*
X107671877Y-28313824D01*
X107716573Y-28099501D01*
X107519103Y-28099501D01*
X107461217Y-28074588D01*
X107451692Y-28014870D01*
X107483932Y-27961015D01*
X107548412Y-27935369D01*
X107750645Y-27935369D01*
X107792411Y-27733869D01*
X107828681Y-27674518D01*
X107889131Y-27654002D01*
X107942986Y-27674518D01*
X107955809Y-27738632D01*
X107915143Y-27935369D01*
X108112613Y-27935369D01*
X108169399Y-27962480D01*
X108180024Y-28019633D01*
X108148517Y-28073489D01*
X108083304Y-28099501D01*
X107881071Y-28099501D01*
G37*
G36*
X109160846Y-27078425D02*
G01*
X109231240Y-27114189D01*
X109273621Y-27157578D01*
X109309136Y-27223365D01*
X109322485Y-27297810D01*
X109315387Y-27373000D01*
X109239916Y-27735334D01*
X109220918Y-27813666D01*
X109196897Y-27890118D01*
X109167852Y-27964689D01*
X109133785Y-28037379D01*
X109094694Y-28108189D01*
X109080547Y-28131374D01*
X109035805Y-28198121D01*
X108986209Y-28260976D01*
X108931758Y-28319937D01*
X108872452Y-28375006D01*
X108809163Y-28425061D01*
X108742759Y-28468979D01*
X108673242Y-28506760D01*
X108600610Y-28538405D01*
X108566538Y-28545000D01*
X108515247Y-28516789D01*
X108502424Y-28454508D01*
X108520743Y-28414940D01*
X108566172Y-28381967D01*
X108635609Y-28351370D01*
X108675348Y-28329577D01*
X108736868Y-28287866D01*
X108778663Y-28253374D01*
X108835256Y-28198762D01*
X108887342Y-28138427D01*
X108934919Y-28072367D01*
X108943893Y-28058468D01*
X108974668Y-28003513D01*
X108997016Y-27958817D01*
X108760711Y-27958817D01*
X108684609Y-27948427D01*
X108614723Y-27913393D01*
X108571301Y-27870889D01*
X108534370Y-27805598D01*
X108520296Y-27731130D01*
X108526723Y-27662062D01*
X108691102Y-27662062D01*
X108695567Y-27737075D01*
X108706856Y-27757316D01*
X108742393Y-27785160D01*
X108790020Y-27794685D01*
X109060031Y-27794685D01*
X109066625Y-27770139D01*
X109076151Y-27730572D01*
X109152355Y-27364207D01*
X109147684Y-27289744D01*
X109136235Y-27269685D01*
X109069784Y-27232871D01*
X109053070Y-27231950D01*
X108912020Y-27231950D01*
X108840094Y-27250305D01*
X108809804Y-27270785D01*
X108772435Y-27315847D01*
X108751919Y-27368970D01*
X108691102Y-27662062D01*
X108526723Y-27662062D01*
X108527337Y-27655467D01*
X108587421Y-27366039D01*
X108611034Y-27292416D01*
X108649817Y-27225876D01*
X108703770Y-27166421D01*
X108716381Y-27155380D01*
X108782742Y-27109205D01*
X108852680Y-27080132D01*
X108926196Y-27068161D01*
X108941329Y-27067819D01*
X109082379Y-27067819D01*
X109160846Y-27078425D01*
G37*
G36*
X110636863Y-27181025D02*
G01*
X109944434Y-28475390D01*
X109906699Y-28525216D01*
X109855774Y-28545000D01*
X109796794Y-28500277D01*
X109789096Y-28471727D01*
X109634856Y-27176629D01*
X109636322Y-27147686D01*
X109671493Y-27093464D01*
X109734508Y-27067819D01*
X109754291Y-27067819D01*
X109775907Y-27075146D01*
X109801186Y-27127170D01*
X109925017Y-28189993D01*
X110492515Y-27123872D01*
X110531716Y-27083572D01*
X110578244Y-27067819D01*
X110633565Y-27090167D01*
X110647121Y-27152449D01*
X110636863Y-27181025D01*
G37*
G36*
X18167969Y-47762934D02*
G01*
X18133531Y-47824849D01*
X18070882Y-47845000D01*
X18018492Y-47823018D01*
X18004204Y-47758171D01*
X18209368Y-46771552D01*
X17844836Y-47231706D01*
X17787538Y-47278265D01*
X17764602Y-47282264D01*
X17706084Y-47235252D01*
X17703053Y-47228775D01*
X17527930Y-46767156D01*
X17320568Y-47762568D01*
X17285031Y-47824849D01*
X17223482Y-47845000D01*
X17168893Y-47823018D01*
X17156437Y-47758538D01*
X17426081Y-46460875D01*
X17459719Y-46395381D01*
X17463084Y-46392365D01*
X17519504Y-46367819D01*
X17558339Y-46380275D01*
X17587281Y-46420575D01*
X17816992Y-47012986D01*
X18293998Y-46418011D01*
X18353773Y-46371789D01*
X18380460Y-46367819D01*
X18430652Y-46396029D01*
X18437613Y-46466004D01*
X18167969Y-47762934D01*
G37*
G36*
X19354394Y-46846949D02*
G01*
X19355355Y-46899413D01*
X19220900Y-47545680D01*
X19226752Y-47619564D01*
X19229692Y-47627379D01*
X19278671Y-47682524D01*
X19280983Y-47683799D01*
X19320253Y-47748234D01*
X19318353Y-47761468D01*
X19283548Y-47820453D01*
X19220900Y-47845000D01*
X19188293Y-47836939D01*
X19125619Y-47797887D01*
X19094504Y-47758538D01*
X19033062Y-47799467D01*
X18994487Y-47817156D01*
X18921444Y-47839670D01*
X18867358Y-47845000D01*
X18725942Y-47845000D01*
X18649840Y-47834653D01*
X18579953Y-47799765D01*
X18536531Y-47757438D01*
X18499557Y-47692443D01*
X18485353Y-47618356D01*
X18491634Y-47549344D01*
X18655966Y-47549344D01*
X18660775Y-47623464D01*
X18672086Y-47643499D01*
X18707623Y-47671709D01*
X18755617Y-47680868D01*
X18896667Y-47680868D01*
X18970637Y-47661374D01*
X18997418Y-47643133D01*
X19043812Y-47583657D01*
X19056402Y-47544947D01*
X19174371Y-46977449D01*
X18906559Y-46977449D01*
X18834649Y-46995631D01*
X18804710Y-47015917D01*
X18767341Y-47060614D01*
X18746824Y-47113736D01*
X18655966Y-47549344D01*
X18491634Y-47549344D01*
X18492201Y-47543115D01*
X18582327Y-47110806D01*
X18605747Y-47037375D01*
X18644408Y-46970957D01*
X18698311Y-46911552D01*
X18710921Y-46900512D01*
X18777281Y-46854531D01*
X18847220Y-46825579D01*
X18920736Y-46813658D01*
X18935868Y-46813318D01*
X19288677Y-46813318D01*
X19354394Y-46846949D01*
G37*
G36*
X20438695Y-46390167D02*
G01*
X20451884Y-46454281D01*
X20179675Y-47763300D01*
X20140777Y-47829362D01*
X20082955Y-47845000D01*
X19730146Y-47845000D01*
X19653836Y-47834653D01*
X19583820Y-47799765D01*
X19540369Y-47757438D01*
X19503395Y-47692443D01*
X19489191Y-47618356D01*
X19495472Y-47549344D01*
X19659804Y-47549344D01*
X19664613Y-47623464D01*
X19675924Y-47643499D01*
X19711461Y-47671709D01*
X19759455Y-47680868D01*
X20032030Y-47680868D01*
X20178210Y-46977449D01*
X19910397Y-46977449D01*
X19838487Y-46995631D01*
X19808548Y-47015917D01*
X19771179Y-47060614D01*
X19750662Y-47113736D01*
X19659804Y-47549344D01*
X19495472Y-47549344D01*
X19496039Y-47543115D01*
X19586165Y-47110806D01*
X19609585Y-47037375D01*
X19648246Y-46970957D01*
X19702149Y-46911552D01*
X19714759Y-46900512D01*
X19781119Y-46854531D01*
X19851058Y-46825579D01*
X19924574Y-46813658D01*
X19939706Y-46813318D01*
X20212281Y-46813318D01*
X20287752Y-46451350D01*
X20324023Y-46389801D01*
X20385205Y-46367819D01*
X20438695Y-46390167D01*
G37*
G36*
X21161566Y-46823924D02*
G01*
X21231513Y-46859687D01*
X21274371Y-46903077D01*
X21310677Y-46969289D01*
X21324384Y-47044505D01*
X21317236Y-47120697D01*
X21271441Y-47340150D01*
X21235750Y-47404755D01*
X21174720Y-47422948D01*
X20690387Y-47422948D01*
X20662909Y-47554473D01*
X20669314Y-47627889D01*
X20679762Y-47644598D01*
X20714567Y-47672076D01*
X20763293Y-47680868D01*
X21116102Y-47680868D01*
X21170324Y-47706880D01*
X21183147Y-47765132D01*
X21152006Y-47818988D01*
X21086793Y-47845000D01*
X20733984Y-47845000D01*
X20657091Y-47834566D01*
X20586835Y-47799387D01*
X20543475Y-47756706D01*
X20506917Y-47691588D01*
X20492958Y-47617639D01*
X20499877Y-47542749D01*
X20559070Y-47258817D01*
X20724092Y-47258817D01*
X21123429Y-47258817D01*
X21153471Y-47115935D01*
X21150410Y-47040838D01*
X21138084Y-47017016D01*
X21075052Y-46978840D01*
X21055286Y-46977449D01*
X20914235Y-46977449D01*
X20842309Y-46996670D01*
X20812020Y-47018115D01*
X20773918Y-47064644D01*
X20753035Y-47120697D01*
X20724092Y-47258817D01*
X20559070Y-47258817D01*
X20590003Y-47110439D01*
X20613158Y-47038605D01*
X20651483Y-46972852D01*
X20704978Y-46913182D01*
X20717498Y-46901978D01*
X20783651Y-46855223D01*
X20853883Y-46825786D01*
X20928193Y-46813664D01*
X20943545Y-46813318D01*
X21084595Y-46813318D01*
X21161566Y-46823924D01*
G37*
G36*
X22742393Y-46390533D02*
G01*
X22755216Y-46456113D01*
X22680844Y-46813318D01*
X22949023Y-46813318D01*
X23025829Y-46823751D01*
X23095793Y-46858930D01*
X23138799Y-46901612D01*
X23175357Y-46966729D01*
X23189316Y-47040678D01*
X23182397Y-47115568D01*
X23092271Y-47547878D01*
X23068851Y-47620765D01*
X23030189Y-47686925D01*
X22976287Y-47746359D01*
X22963677Y-47757438D01*
X22897352Y-47803613D01*
X22827521Y-47832686D01*
X22754184Y-47844657D01*
X22739096Y-47845000D01*
X22386287Y-47845000D01*
X22320256Y-47811082D01*
X22319242Y-47758171D01*
X22335326Y-47680868D01*
X22500593Y-47680868D01*
X22768405Y-47680868D01*
X22842374Y-47661374D01*
X22869155Y-47643133D01*
X22915550Y-47583657D01*
X22928140Y-47544947D01*
X23018998Y-47108974D01*
X23013983Y-47035197D01*
X23002512Y-47015184D01*
X22936061Y-46978370D01*
X22919347Y-46977449D01*
X22646772Y-46977449D01*
X22500593Y-47680868D01*
X22335326Y-47680868D01*
X22591451Y-46449884D01*
X22627355Y-46389068D01*
X22688538Y-46367819D01*
X22742393Y-46390533D01*
G37*
G36*
X23571842Y-47818988D02*
G01*
X23486845Y-46919563D01*
X23487944Y-46893185D01*
X23524947Y-46835300D01*
X23586496Y-46813318D01*
X23648765Y-46853708D01*
X23654274Y-46874501D01*
X23716922Y-47534689D01*
X24061671Y-46870471D01*
X24116438Y-46818899D01*
X24149232Y-46813318D01*
X24206018Y-46836399D01*
X24218475Y-46897581D01*
X24208583Y-46923593D01*
X23595289Y-48109515D01*
X23553602Y-48173609D01*
X23499302Y-48220889D01*
X23430792Y-48255511D01*
X23358618Y-48267051D01*
X23287909Y-48267051D01*
X23231123Y-48241772D01*
X23220498Y-48182421D01*
X23252006Y-48126734D01*
X23317219Y-48102920D01*
X23386828Y-48102920D01*
X23419068Y-48090830D01*
X23447278Y-48060055D01*
X23571842Y-47818988D01*
G37*
G36*
X25818754Y-47845000D02*
G01*
X25254187Y-47845000D01*
X25188155Y-47811082D01*
X25187142Y-47758171D01*
X25459351Y-46449884D01*
X25495254Y-46389068D01*
X25556437Y-46367819D01*
X25610293Y-46390167D01*
X25623482Y-46454647D01*
X25368492Y-47680868D01*
X25848063Y-47680868D01*
X25902285Y-47706880D01*
X25915108Y-47765132D01*
X25883967Y-47818988D01*
X25818754Y-47845000D01*
G37*
G36*
X26897365Y-46823924D02*
G01*
X26967312Y-46859687D01*
X27010170Y-46903077D01*
X27046476Y-46969289D01*
X27060183Y-47044505D01*
X27053035Y-47120697D01*
X27007240Y-47340150D01*
X26971549Y-47404755D01*
X26910519Y-47422948D01*
X26426186Y-47422948D01*
X26398709Y-47554473D01*
X26405113Y-47627889D01*
X26415561Y-47644598D01*
X26450366Y-47672076D01*
X26499092Y-47680868D01*
X26851901Y-47680868D01*
X26906123Y-47706880D01*
X26918946Y-47765132D01*
X26887805Y-47818988D01*
X26822592Y-47845000D01*
X26469783Y-47845000D01*
X26392890Y-47834566D01*
X26322634Y-47799387D01*
X26279274Y-47756706D01*
X26242716Y-47691588D01*
X26228757Y-47617639D01*
X26235676Y-47542749D01*
X26294869Y-47258817D01*
X26459891Y-47258817D01*
X26859228Y-47258817D01*
X26889270Y-47115935D01*
X26886209Y-47040838D01*
X26873883Y-47017016D01*
X26810851Y-46978840D01*
X26791085Y-46977449D01*
X26650034Y-46977449D01*
X26578108Y-46996670D01*
X26547819Y-47018115D01*
X26509717Y-47064644D01*
X26488834Y-47120697D01*
X26459891Y-47258817D01*
X26294869Y-47258817D01*
X26325802Y-47110439D01*
X26348957Y-47038605D01*
X26387283Y-46972852D01*
X26440777Y-46913182D01*
X26453297Y-46901978D01*
X26519450Y-46855223D01*
X26589682Y-46825786D01*
X26663992Y-46813664D01*
X26679344Y-46813318D01*
X26820394Y-46813318D01*
X26897365Y-46823924D01*
G37*
G36*
X27752791Y-47307909D02*
G01*
X27921685Y-47712376D01*
X27927180Y-47737655D01*
X27924616Y-47760736D01*
X27887247Y-47820819D01*
X27872592Y-47831810D01*
X27853175Y-47840237D01*
X27824232Y-47845000D01*
X27762683Y-47804333D01*
X27623098Y-47457386D01*
X27337700Y-47805432D01*
X27273226Y-47844381D01*
X27262595Y-47845000D01*
X27209473Y-47819720D01*
X27193719Y-47758171D01*
X27216800Y-47712742D01*
X27549459Y-47326594D01*
X27378000Y-46941179D01*
X27371406Y-46916632D01*
X27373237Y-46894284D01*
X27408775Y-46837864D01*
X27474354Y-46813318D01*
X27534804Y-46849221D01*
X27683548Y-47155868D01*
X27960886Y-46848122D01*
X28026957Y-46813624D01*
X28034891Y-46813318D01*
X28089480Y-46837131D01*
X28104134Y-46896849D01*
X28081420Y-46940446D01*
X27752791Y-47307909D01*
G37*
G36*
X28363154Y-47762201D02*
G01*
X28327250Y-47824483D01*
X28265701Y-47845000D01*
X28211113Y-47822651D01*
X28199023Y-47757072D01*
X28382937Y-46873035D01*
X28419207Y-46811852D01*
X28480024Y-46789870D01*
X28533879Y-46812585D01*
X28547069Y-46877431D01*
X28363154Y-47762201D01*
G37*
G36*
X28471231Y-46447320D02*
G01*
X28506402Y-46390900D01*
X28567951Y-46367819D01*
X28619609Y-46392365D01*
X28635362Y-46452449D01*
X28600558Y-46507770D01*
X28538642Y-46531950D01*
X28481856Y-46505938D01*
X28471231Y-46447320D01*
G37*
G36*
X29335886Y-46823924D02*
G01*
X29405833Y-46859687D01*
X29448691Y-46903077D01*
X29484997Y-46969289D01*
X29498704Y-47044505D01*
X29491556Y-47120697D01*
X29445760Y-47340150D01*
X29410070Y-47404755D01*
X29349040Y-47422948D01*
X28864706Y-47422948D01*
X28837229Y-47554473D01*
X28843633Y-47627889D01*
X28854082Y-47644598D01*
X28888886Y-47672076D01*
X28937613Y-47680868D01*
X29290422Y-47680868D01*
X29344644Y-47706880D01*
X29357466Y-47765132D01*
X29326325Y-47818988D01*
X29261113Y-47845000D01*
X28908304Y-47845000D01*
X28831411Y-47834566D01*
X28761155Y-47799387D01*
X28717794Y-47756706D01*
X28681237Y-47691588D01*
X28667278Y-47617639D01*
X28674197Y-47542749D01*
X28733390Y-47258817D01*
X28898412Y-47258817D01*
X29297749Y-47258817D01*
X29327791Y-47115935D01*
X29324730Y-47040838D01*
X29312404Y-47017016D01*
X29249372Y-46978840D01*
X29229605Y-46977449D01*
X29088555Y-46977449D01*
X29016629Y-46996670D01*
X28986339Y-47018115D01*
X28948237Y-47064644D01*
X28927355Y-47120697D01*
X28898412Y-47258817D01*
X28733390Y-47258817D01*
X28764323Y-47110439D01*
X28787478Y-47038605D01*
X28825803Y-46972852D01*
X28879298Y-46913182D01*
X28891817Y-46901978D01*
X28957970Y-46855223D01*
X29028202Y-46825786D01*
X29102513Y-46813664D01*
X29117864Y-46813318D01*
X29258914Y-46813318D01*
X29335886Y-46823924D01*
G37*
G36*
X30575003Y-46378338D02*
G01*
X30645543Y-46413810D01*
X30688101Y-46456845D01*
X30723616Y-46522337D01*
X30736965Y-46596400D01*
X30729867Y-46671168D01*
X30669783Y-46960596D01*
X30646170Y-47033712D01*
X30607387Y-47100101D01*
X30553434Y-47159764D01*
X30540823Y-47170889D01*
X30474462Y-47217257D01*
X30404524Y-47246452D01*
X30331008Y-47258473D01*
X30316745Y-47258797D01*
X30499790Y-47717138D01*
X30501988Y-47736189D01*
X30503087Y-47762201D01*
X30465718Y-47821552D01*
X30402704Y-47845000D01*
X30368998Y-47837306D01*
X30342620Y-47804699D01*
X30127930Y-47258817D01*
X29902616Y-47258817D01*
X29797836Y-47762568D01*
X29761933Y-47824483D01*
X29700383Y-47845000D01*
X29645795Y-47823018D01*
X29633339Y-47758538D01*
X29771386Y-47094685D01*
X29936322Y-47094685D01*
X30345184Y-47094685D01*
X30419154Y-47075002D01*
X30445935Y-47056584D01*
X30492810Y-46996469D01*
X30505652Y-46957299D01*
X30566468Y-46664574D01*
X30561797Y-46589767D01*
X30550348Y-46569685D01*
X30483897Y-46532871D01*
X30467184Y-46531950D01*
X30053558Y-46531950D01*
X29936322Y-47094685D01*
X29771386Y-47094685D01*
X29905547Y-46449518D01*
X29944561Y-46383457D01*
X30002634Y-46367819D01*
X30496493Y-46367819D01*
X30575003Y-46378338D01*
G37*
D11*
X88757142Y-43604819D02*
X88423809Y-43128628D01*
X88185714Y-43604819D02*
X88185714Y-42604819D01*
X88185714Y-42604819D02*
X88566666Y-42604819D01*
X88566666Y-42604819D02*
X88661904Y-42652438D01*
X88661904Y-42652438D02*
X88709523Y-42700057D01*
X88709523Y-42700057D02*
X88757142Y-42795295D01*
X88757142Y-42795295D02*
X88757142Y-42938152D01*
X88757142Y-42938152D02*
X88709523Y-43033390D01*
X88709523Y-43033390D02*
X88661904Y-43081009D01*
X88661904Y-43081009D02*
X88566666Y-43128628D01*
X88566666Y-43128628D02*
X88185714Y-43128628D01*
X89709523Y-43604819D02*
X89138095Y-43604819D01*
X89423809Y-43604819D02*
X89423809Y-42604819D01*
X89423809Y-42604819D02*
X89328571Y-42747676D01*
X89328571Y-42747676D02*
X89233333Y-42842914D01*
X89233333Y-42842914D02*
X89138095Y-42890533D01*
X90042857Y-42604819D02*
X90661904Y-42604819D01*
X90661904Y-42604819D02*
X90328571Y-42985771D01*
X90328571Y-42985771D02*
X90471428Y-42985771D01*
X90471428Y-42985771D02*
X90566666Y-43033390D01*
X90566666Y-43033390D02*
X90614285Y-43081009D01*
X90614285Y-43081009D02*
X90661904Y-43176247D01*
X90661904Y-43176247D02*
X90661904Y-43414342D01*
X90661904Y-43414342D02*
X90614285Y-43509580D01*
X90614285Y-43509580D02*
X90566666Y-43557200D01*
X90566666Y-43557200D02*
X90471428Y-43604819D01*
X90471428Y-43604819D02*
X90185714Y-43604819D01*
X90185714Y-43604819D02*
X90090476Y-43557200D01*
X90090476Y-43557200D02*
X90042857Y-43509580D01*
X90557142Y-27204819D02*
X90223809Y-26728628D01*
X89985714Y-27204819D02*
X89985714Y-26204819D01*
X89985714Y-26204819D02*
X90366666Y-26204819D01*
X90366666Y-26204819D02*
X90461904Y-26252438D01*
X90461904Y-26252438D02*
X90509523Y-26300057D01*
X90509523Y-26300057D02*
X90557142Y-26395295D01*
X90557142Y-26395295D02*
X90557142Y-26538152D01*
X90557142Y-26538152D02*
X90509523Y-26633390D01*
X90509523Y-26633390D02*
X90461904Y-26681009D01*
X90461904Y-26681009D02*
X90366666Y-26728628D01*
X90366666Y-26728628D02*
X89985714Y-26728628D01*
X91509523Y-27204819D02*
X90938095Y-27204819D01*
X91223809Y-27204819D02*
X91223809Y-26204819D01*
X91223809Y-26204819D02*
X91128571Y-26347676D01*
X91128571Y-26347676D02*
X91033333Y-26442914D01*
X91033333Y-26442914D02*
X90938095Y-26490533D01*
X91890476Y-26300057D02*
X91938095Y-26252438D01*
X91938095Y-26252438D02*
X92033333Y-26204819D01*
X92033333Y-26204819D02*
X92271428Y-26204819D01*
X92271428Y-26204819D02*
X92366666Y-26252438D01*
X92366666Y-26252438D02*
X92414285Y-26300057D01*
X92414285Y-26300057D02*
X92461904Y-26395295D01*
X92461904Y-26395295D02*
X92461904Y-26490533D01*
X92461904Y-26490533D02*
X92414285Y-26633390D01*
X92414285Y-26633390D02*
X91842857Y-27204819D01*
X91842857Y-27204819D02*
X92461904Y-27204819D01*
X82957142Y-10904819D02*
X82623809Y-10428628D01*
X82385714Y-10904819D02*
X82385714Y-9904819D01*
X82385714Y-9904819D02*
X82766666Y-9904819D01*
X82766666Y-9904819D02*
X82861904Y-9952438D01*
X82861904Y-9952438D02*
X82909523Y-10000057D01*
X82909523Y-10000057D02*
X82957142Y-10095295D01*
X82957142Y-10095295D02*
X82957142Y-10238152D01*
X82957142Y-10238152D02*
X82909523Y-10333390D01*
X82909523Y-10333390D02*
X82861904Y-10381009D01*
X82861904Y-10381009D02*
X82766666Y-10428628D01*
X82766666Y-10428628D02*
X82385714Y-10428628D01*
X83909523Y-10904819D02*
X83338095Y-10904819D01*
X83623809Y-10904819D02*
X83623809Y-9904819D01*
X83623809Y-9904819D02*
X83528571Y-10047676D01*
X83528571Y-10047676D02*
X83433333Y-10142914D01*
X83433333Y-10142914D02*
X83338095Y-10190533D01*
X84861904Y-10904819D02*
X84290476Y-10904819D01*
X84576190Y-10904819D02*
X84576190Y-9904819D01*
X84576190Y-9904819D02*
X84480952Y-10047676D01*
X84480952Y-10047676D02*
X84385714Y-10142914D01*
X84385714Y-10142914D02*
X84290476Y-10190533D01*
X70657142Y-43654819D02*
X70323809Y-43178628D01*
X70085714Y-43654819D02*
X70085714Y-42654819D01*
X70085714Y-42654819D02*
X70466666Y-42654819D01*
X70466666Y-42654819D02*
X70561904Y-42702438D01*
X70561904Y-42702438D02*
X70609523Y-42750057D01*
X70609523Y-42750057D02*
X70657142Y-42845295D01*
X70657142Y-42845295D02*
X70657142Y-42988152D01*
X70657142Y-42988152D02*
X70609523Y-43083390D01*
X70609523Y-43083390D02*
X70561904Y-43131009D01*
X70561904Y-43131009D02*
X70466666Y-43178628D01*
X70466666Y-43178628D02*
X70085714Y-43178628D01*
X71609523Y-43654819D02*
X71038095Y-43654819D01*
X71323809Y-43654819D02*
X71323809Y-42654819D01*
X71323809Y-42654819D02*
X71228571Y-42797676D01*
X71228571Y-42797676D02*
X71133333Y-42892914D01*
X71133333Y-42892914D02*
X71038095Y-42940533D01*
X72228571Y-42654819D02*
X72323809Y-42654819D01*
X72323809Y-42654819D02*
X72419047Y-42702438D01*
X72419047Y-42702438D02*
X72466666Y-42750057D01*
X72466666Y-42750057D02*
X72514285Y-42845295D01*
X72514285Y-42845295D02*
X72561904Y-43035771D01*
X72561904Y-43035771D02*
X72561904Y-43273866D01*
X72561904Y-43273866D02*
X72514285Y-43464342D01*
X72514285Y-43464342D02*
X72466666Y-43559580D01*
X72466666Y-43559580D02*
X72419047Y-43607200D01*
X72419047Y-43607200D02*
X72323809Y-43654819D01*
X72323809Y-43654819D02*
X72228571Y-43654819D01*
X72228571Y-43654819D02*
X72133333Y-43607200D01*
X72133333Y-43607200D02*
X72085714Y-43559580D01*
X72085714Y-43559580D02*
X72038095Y-43464342D01*
X72038095Y-43464342D02*
X71990476Y-43273866D01*
X71990476Y-43273866D02*
X71990476Y-43035771D01*
X71990476Y-43035771D02*
X72038095Y-42845295D01*
X72038095Y-42845295D02*
X72085714Y-42750057D01*
X72085714Y-42750057D02*
X72133333Y-42702438D01*
X72133333Y-42702438D02*
X72228571Y-42654819D01*
X72833333Y-24654819D02*
X72500000Y-24178628D01*
X72261905Y-24654819D02*
X72261905Y-23654819D01*
X72261905Y-23654819D02*
X72642857Y-23654819D01*
X72642857Y-23654819D02*
X72738095Y-23702438D01*
X72738095Y-23702438D02*
X72785714Y-23750057D01*
X72785714Y-23750057D02*
X72833333Y-23845295D01*
X72833333Y-23845295D02*
X72833333Y-23988152D01*
X72833333Y-23988152D02*
X72785714Y-24083390D01*
X72785714Y-24083390D02*
X72738095Y-24131009D01*
X72738095Y-24131009D02*
X72642857Y-24178628D01*
X72642857Y-24178628D02*
X72261905Y-24178628D01*
X73309524Y-24654819D02*
X73500000Y-24654819D01*
X73500000Y-24654819D02*
X73595238Y-24607200D01*
X73595238Y-24607200D02*
X73642857Y-24559580D01*
X73642857Y-24559580D02*
X73738095Y-24416723D01*
X73738095Y-24416723D02*
X73785714Y-24226247D01*
X73785714Y-24226247D02*
X73785714Y-23845295D01*
X73785714Y-23845295D02*
X73738095Y-23750057D01*
X73738095Y-23750057D02*
X73690476Y-23702438D01*
X73690476Y-23702438D02*
X73595238Y-23654819D01*
X73595238Y-23654819D02*
X73404762Y-23654819D01*
X73404762Y-23654819D02*
X73309524Y-23702438D01*
X73309524Y-23702438D02*
X73261905Y-23750057D01*
X73261905Y-23750057D02*
X73214286Y-23845295D01*
X73214286Y-23845295D02*
X73214286Y-24083390D01*
X73214286Y-24083390D02*
X73261905Y-24178628D01*
X73261905Y-24178628D02*
X73309524Y-24226247D01*
X73309524Y-24226247D02*
X73404762Y-24273866D01*
X73404762Y-24273866D02*
X73595238Y-24273866D01*
X73595238Y-24273866D02*
X73690476Y-24226247D01*
X73690476Y-24226247D02*
X73738095Y-24178628D01*
X73738095Y-24178628D02*
X73785714Y-24083390D01*
X68233333Y-43654819D02*
X67900000Y-43178628D01*
X67661905Y-43654819D02*
X67661905Y-42654819D01*
X67661905Y-42654819D02*
X68042857Y-42654819D01*
X68042857Y-42654819D02*
X68138095Y-42702438D01*
X68138095Y-42702438D02*
X68185714Y-42750057D01*
X68185714Y-42750057D02*
X68233333Y-42845295D01*
X68233333Y-42845295D02*
X68233333Y-42988152D01*
X68233333Y-42988152D02*
X68185714Y-43083390D01*
X68185714Y-43083390D02*
X68138095Y-43131009D01*
X68138095Y-43131009D02*
X68042857Y-43178628D01*
X68042857Y-43178628D02*
X67661905Y-43178628D01*
X68804762Y-43083390D02*
X68709524Y-43035771D01*
X68709524Y-43035771D02*
X68661905Y-42988152D01*
X68661905Y-42988152D02*
X68614286Y-42892914D01*
X68614286Y-42892914D02*
X68614286Y-42845295D01*
X68614286Y-42845295D02*
X68661905Y-42750057D01*
X68661905Y-42750057D02*
X68709524Y-42702438D01*
X68709524Y-42702438D02*
X68804762Y-42654819D01*
X68804762Y-42654819D02*
X68995238Y-42654819D01*
X68995238Y-42654819D02*
X69090476Y-42702438D01*
X69090476Y-42702438D02*
X69138095Y-42750057D01*
X69138095Y-42750057D02*
X69185714Y-42845295D01*
X69185714Y-42845295D02*
X69185714Y-42892914D01*
X69185714Y-42892914D02*
X69138095Y-42988152D01*
X69138095Y-42988152D02*
X69090476Y-43035771D01*
X69090476Y-43035771D02*
X68995238Y-43083390D01*
X68995238Y-43083390D02*
X68804762Y-43083390D01*
X68804762Y-43083390D02*
X68709524Y-43131009D01*
X68709524Y-43131009D02*
X68661905Y-43178628D01*
X68661905Y-43178628D02*
X68614286Y-43273866D01*
X68614286Y-43273866D02*
X68614286Y-43464342D01*
X68614286Y-43464342D02*
X68661905Y-43559580D01*
X68661905Y-43559580D02*
X68709524Y-43607200D01*
X68709524Y-43607200D02*
X68804762Y-43654819D01*
X68804762Y-43654819D02*
X68995238Y-43654819D01*
X68995238Y-43654819D02*
X69090476Y-43607200D01*
X69090476Y-43607200D02*
X69138095Y-43559580D01*
X69138095Y-43559580D02*
X69185714Y-43464342D01*
X69185714Y-43464342D02*
X69185714Y-43273866D01*
X69185714Y-43273866D02*
X69138095Y-43178628D01*
X69138095Y-43178628D02*
X69090476Y-43131009D01*
X69090476Y-43131009D02*
X68995238Y-43083390D01*
X59333333Y-37654819D02*
X59000000Y-37178628D01*
X58761905Y-37654819D02*
X58761905Y-36654819D01*
X58761905Y-36654819D02*
X59142857Y-36654819D01*
X59142857Y-36654819D02*
X59238095Y-36702438D01*
X59238095Y-36702438D02*
X59285714Y-36750057D01*
X59285714Y-36750057D02*
X59333333Y-36845295D01*
X59333333Y-36845295D02*
X59333333Y-36988152D01*
X59333333Y-36988152D02*
X59285714Y-37083390D01*
X59285714Y-37083390D02*
X59238095Y-37131009D01*
X59238095Y-37131009D02*
X59142857Y-37178628D01*
X59142857Y-37178628D02*
X58761905Y-37178628D01*
X59666667Y-36654819D02*
X60333333Y-36654819D01*
X60333333Y-36654819D02*
X59904762Y-37654819D01*
X59433333Y-21254819D02*
X59100000Y-20778628D01*
X58861905Y-21254819D02*
X58861905Y-20254819D01*
X58861905Y-20254819D02*
X59242857Y-20254819D01*
X59242857Y-20254819D02*
X59338095Y-20302438D01*
X59338095Y-20302438D02*
X59385714Y-20350057D01*
X59385714Y-20350057D02*
X59433333Y-20445295D01*
X59433333Y-20445295D02*
X59433333Y-20588152D01*
X59433333Y-20588152D02*
X59385714Y-20683390D01*
X59385714Y-20683390D02*
X59338095Y-20731009D01*
X59338095Y-20731009D02*
X59242857Y-20778628D01*
X59242857Y-20778628D02*
X58861905Y-20778628D01*
X60290476Y-20254819D02*
X60100000Y-20254819D01*
X60100000Y-20254819D02*
X60004762Y-20302438D01*
X60004762Y-20302438D02*
X59957143Y-20350057D01*
X59957143Y-20350057D02*
X59861905Y-20492914D01*
X59861905Y-20492914D02*
X59814286Y-20683390D01*
X59814286Y-20683390D02*
X59814286Y-21064342D01*
X59814286Y-21064342D02*
X59861905Y-21159580D01*
X59861905Y-21159580D02*
X59909524Y-21207200D01*
X59909524Y-21207200D02*
X60004762Y-21254819D01*
X60004762Y-21254819D02*
X60195238Y-21254819D01*
X60195238Y-21254819D02*
X60290476Y-21207200D01*
X60290476Y-21207200D02*
X60338095Y-21159580D01*
X60338095Y-21159580D02*
X60385714Y-21064342D01*
X60385714Y-21064342D02*
X60385714Y-20826247D01*
X60385714Y-20826247D02*
X60338095Y-20731009D01*
X60338095Y-20731009D02*
X60290476Y-20683390D01*
X60290476Y-20683390D02*
X60195238Y-20635771D01*
X60195238Y-20635771D02*
X60004762Y-20635771D01*
X60004762Y-20635771D02*
X59909524Y-20683390D01*
X59909524Y-20683390D02*
X59861905Y-20731009D01*
X59861905Y-20731009D02*
X59814286Y-20826247D01*
X60433333Y-4954819D02*
X60100000Y-4478628D01*
X59861905Y-4954819D02*
X59861905Y-3954819D01*
X59861905Y-3954819D02*
X60242857Y-3954819D01*
X60242857Y-3954819D02*
X60338095Y-4002438D01*
X60338095Y-4002438D02*
X60385714Y-4050057D01*
X60385714Y-4050057D02*
X60433333Y-4145295D01*
X60433333Y-4145295D02*
X60433333Y-4288152D01*
X60433333Y-4288152D02*
X60385714Y-4383390D01*
X60385714Y-4383390D02*
X60338095Y-4431009D01*
X60338095Y-4431009D02*
X60242857Y-4478628D01*
X60242857Y-4478628D02*
X59861905Y-4478628D01*
X61338095Y-3954819D02*
X60861905Y-3954819D01*
X60861905Y-3954819D02*
X60814286Y-4431009D01*
X60814286Y-4431009D02*
X60861905Y-4383390D01*
X60861905Y-4383390D02*
X60957143Y-4335771D01*
X60957143Y-4335771D02*
X61195238Y-4335771D01*
X61195238Y-4335771D02*
X61290476Y-4383390D01*
X61290476Y-4383390D02*
X61338095Y-4431009D01*
X61338095Y-4431009D02*
X61385714Y-4526247D01*
X61385714Y-4526247D02*
X61385714Y-4764342D01*
X61385714Y-4764342D02*
X61338095Y-4859580D01*
X61338095Y-4859580D02*
X61290476Y-4907200D01*
X61290476Y-4907200D02*
X61195238Y-4954819D01*
X61195238Y-4954819D02*
X60957143Y-4954819D01*
X60957143Y-4954819D02*
X60861905Y-4907200D01*
X60861905Y-4907200D02*
X60814286Y-4859580D01*
X44133333Y-47254819D02*
X43800000Y-46778628D01*
X43561905Y-47254819D02*
X43561905Y-46254819D01*
X43561905Y-46254819D02*
X43942857Y-46254819D01*
X43942857Y-46254819D02*
X44038095Y-46302438D01*
X44038095Y-46302438D02*
X44085714Y-46350057D01*
X44085714Y-46350057D02*
X44133333Y-46445295D01*
X44133333Y-46445295D02*
X44133333Y-46588152D01*
X44133333Y-46588152D02*
X44085714Y-46683390D01*
X44085714Y-46683390D02*
X44038095Y-46731009D01*
X44038095Y-46731009D02*
X43942857Y-46778628D01*
X43942857Y-46778628D02*
X43561905Y-46778628D01*
X44990476Y-46588152D02*
X44990476Y-47254819D01*
X44752381Y-46207200D02*
X44514286Y-46921485D01*
X44514286Y-46921485D02*
X45133333Y-46921485D01*
X37633333Y-26254819D02*
X37300000Y-25778628D01*
X37061905Y-26254819D02*
X37061905Y-25254819D01*
X37061905Y-25254819D02*
X37442857Y-25254819D01*
X37442857Y-25254819D02*
X37538095Y-25302438D01*
X37538095Y-25302438D02*
X37585714Y-25350057D01*
X37585714Y-25350057D02*
X37633333Y-25445295D01*
X37633333Y-25445295D02*
X37633333Y-25588152D01*
X37633333Y-25588152D02*
X37585714Y-25683390D01*
X37585714Y-25683390D02*
X37538095Y-25731009D01*
X37538095Y-25731009D02*
X37442857Y-25778628D01*
X37442857Y-25778628D02*
X37061905Y-25778628D01*
X37966667Y-25254819D02*
X38585714Y-25254819D01*
X38585714Y-25254819D02*
X38252381Y-25635771D01*
X38252381Y-25635771D02*
X38395238Y-25635771D01*
X38395238Y-25635771D02*
X38490476Y-25683390D01*
X38490476Y-25683390D02*
X38538095Y-25731009D01*
X38538095Y-25731009D02*
X38585714Y-25826247D01*
X38585714Y-25826247D02*
X38585714Y-26064342D01*
X38585714Y-26064342D02*
X38538095Y-26159580D01*
X38538095Y-26159580D02*
X38490476Y-26207200D01*
X38490476Y-26207200D02*
X38395238Y-26254819D01*
X38395238Y-26254819D02*
X38109524Y-26254819D01*
X38109524Y-26254819D02*
X38014286Y-26207200D01*
X38014286Y-26207200D02*
X37966667Y-26159580D01*
X17133333Y-20954819D02*
X16800000Y-20478628D01*
X16561905Y-20954819D02*
X16561905Y-19954819D01*
X16561905Y-19954819D02*
X16942857Y-19954819D01*
X16942857Y-19954819D02*
X17038095Y-20002438D01*
X17038095Y-20002438D02*
X17085714Y-20050057D01*
X17085714Y-20050057D02*
X17133333Y-20145295D01*
X17133333Y-20145295D02*
X17133333Y-20288152D01*
X17133333Y-20288152D02*
X17085714Y-20383390D01*
X17085714Y-20383390D02*
X17038095Y-20431009D01*
X17038095Y-20431009D02*
X16942857Y-20478628D01*
X16942857Y-20478628D02*
X16561905Y-20478628D01*
X17514286Y-20050057D02*
X17561905Y-20002438D01*
X17561905Y-20002438D02*
X17657143Y-19954819D01*
X17657143Y-19954819D02*
X17895238Y-19954819D01*
X17895238Y-19954819D02*
X17990476Y-20002438D01*
X17990476Y-20002438D02*
X18038095Y-20050057D01*
X18038095Y-20050057D02*
X18085714Y-20145295D01*
X18085714Y-20145295D02*
X18085714Y-20240533D01*
X18085714Y-20240533D02*
X18038095Y-20383390D01*
X18038095Y-20383390D02*
X17466667Y-20954819D01*
X17466667Y-20954819D02*
X18085714Y-20954819D01*
X25733333Y-19454819D02*
X25400000Y-18978628D01*
X25161905Y-19454819D02*
X25161905Y-18454819D01*
X25161905Y-18454819D02*
X25542857Y-18454819D01*
X25542857Y-18454819D02*
X25638095Y-18502438D01*
X25638095Y-18502438D02*
X25685714Y-18550057D01*
X25685714Y-18550057D02*
X25733333Y-18645295D01*
X25733333Y-18645295D02*
X25733333Y-18788152D01*
X25733333Y-18788152D02*
X25685714Y-18883390D01*
X25685714Y-18883390D02*
X25638095Y-18931009D01*
X25638095Y-18931009D02*
X25542857Y-18978628D01*
X25542857Y-18978628D02*
X25161905Y-18978628D01*
X26685714Y-19454819D02*
X26114286Y-19454819D01*
X26400000Y-19454819D02*
X26400000Y-18454819D01*
X26400000Y-18454819D02*
X26304762Y-18597676D01*
X26304762Y-18597676D02*
X26209524Y-18692914D01*
X26209524Y-18692914D02*
X26114286Y-18740533D01*
X82904761Y-36150057D02*
X82809523Y-36102438D01*
X82809523Y-36102438D02*
X82714285Y-36007200D01*
X82714285Y-36007200D02*
X82571428Y-35864342D01*
X82571428Y-35864342D02*
X82476190Y-35816723D01*
X82476190Y-35816723D02*
X82380952Y-35816723D01*
X82428571Y-36054819D02*
X82333333Y-36007200D01*
X82333333Y-36007200D02*
X82238095Y-35911961D01*
X82238095Y-35911961D02*
X82190476Y-35721485D01*
X82190476Y-35721485D02*
X82190476Y-35388152D01*
X82190476Y-35388152D02*
X82238095Y-35197676D01*
X82238095Y-35197676D02*
X82333333Y-35102438D01*
X82333333Y-35102438D02*
X82428571Y-35054819D01*
X82428571Y-35054819D02*
X82619047Y-35054819D01*
X82619047Y-35054819D02*
X82714285Y-35102438D01*
X82714285Y-35102438D02*
X82809523Y-35197676D01*
X82809523Y-35197676D02*
X82857142Y-35388152D01*
X82857142Y-35388152D02*
X82857142Y-35721485D01*
X82857142Y-35721485D02*
X82809523Y-35911961D01*
X82809523Y-35911961D02*
X82714285Y-36007200D01*
X82714285Y-36007200D02*
X82619047Y-36054819D01*
X82619047Y-36054819D02*
X82428571Y-36054819D01*
X83714285Y-35388152D02*
X83714285Y-36054819D01*
X83476190Y-35007200D02*
X83238095Y-35721485D01*
X83238095Y-35721485D02*
X83857142Y-35721485D01*
X83704761Y-19750057D02*
X83609523Y-19702438D01*
X83609523Y-19702438D02*
X83514285Y-19607200D01*
X83514285Y-19607200D02*
X83371428Y-19464342D01*
X83371428Y-19464342D02*
X83276190Y-19416723D01*
X83276190Y-19416723D02*
X83180952Y-19416723D01*
X83228571Y-19654819D02*
X83133333Y-19607200D01*
X83133333Y-19607200D02*
X83038095Y-19511961D01*
X83038095Y-19511961D02*
X82990476Y-19321485D01*
X82990476Y-19321485D02*
X82990476Y-18988152D01*
X82990476Y-18988152D02*
X83038095Y-18797676D01*
X83038095Y-18797676D02*
X83133333Y-18702438D01*
X83133333Y-18702438D02*
X83228571Y-18654819D01*
X83228571Y-18654819D02*
X83419047Y-18654819D01*
X83419047Y-18654819D02*
X83514285Y-18702438D01*
X83514285Y-18702438D02*
X83609523Y-18797676D01*
X83609523Y-18797676D02*
X83657142Y-18988152D01*
X83657142Y-18988152D02*
X83657142Y-19321485D01*
X83657142Y-19321485D02*
X83609523Y-19511961D01*
X83609523Y-19511961D02*
X83514285Y-19607200D01*
X83514285Y-19607200D02*
X83419047Y-19654819D01*
X83419047Y-19654819D02*
X83228571Y-19654819D01*
X83990476Y-18654819D02*
X84609523Y-18654819D01*
X84609523Y-18654819D02*
X84276190Y-19035771D01*
X84276190Y-19035771D02*
X84419047Y-19035771D01*
X84419047Y-19035771D02*
X84514285Y-19083390D01*
X84514285Y-19083390D02*
X84561904Y-19131009D01*
X84561904Y-19131009D02*
X84609523Y-19226247D01*
X84609523Y-19226247D02*
X84609523Y-19464342D01*
X84609523Y-19464342D02*
X84561904Y-19559580D01*
X84561904Y-19559580D02*
X84514285Y-19607200D01*
X84514285Y-19607200D02*
X84419047Y-19654819D01*
X84419047Y-19654819D02*
X84133333Y-19654819D01*
X84133333Y-19654819D02*
X84038095Y-19607200D01*
X84038095Y-19607200D02*
X83990476Y-19559580D01*
X74004761Y-3550057D02*
X73909523Y-3502438D01*
X73909523Y-3502438D02*
X73814285Y-3407200D01*
X73814285Y-3407200D02*
X73671428Y-3264342D01*
X73671428Y-3264342D02*
X73576190Y-3216723D01*
X73576190Y-3216723D02*
X73480952Y-3216723D01*
X73528571Y-3454819D02*
X73433333Y-3407200D01*
X73433333Y-3407200D02*
X73338095Y-3311961D01*
X73338095Y-3311961D02*
X73290476Y-3121485D01*
X73290476Y-3121485D02*
X73290476Y-2788152D01*
X73290476Y-2788152D02*
X73338095Y-2597676D01*
X73338095Y-2597676D02*
X73433333Y-2502438D01*
X73433333Y-2502438D02*
X73528571Y-2454819D01*
X73528571Y-2454819D02*
X73719047Y-2454819D01*
X73719047Y-2454819D02*
X73814285Y-2502438D01*
X73814285Y-2502438D02*
X73909523Y-2597676D01*
X73909523Y-2597676D02*
X73957142Y-2788152D01*
X73957142Y-2788152D02*
X73957142Y-3121485D01*
X73957142Y-3121485D02*
X73909523Y-3311961D01*
X73909523Y-3311961D02*
X73814285Y-3407200D01*
X73814285Y-3407200D02*
X73719047Y-3454819D01*
X73719047Y-3454819D02*
X73528571Y-3454819D01*
X74338095Y-2550057D02*
X74385714Y-2502438D01*
X74385714Y-2502438D02*
X74480952Y-2454819D01*
X74480952Y-2454819D02*
X74719047Y-2454819D01*
X74719047Y-2454819D02*
X74814285Y-2502438D01*
X74814285Y-2502438D02*
X74861904Y-2550057D01*
X74861904Y-2550057D02*
X74909523Y-2645295D01*
X74909523Y-2645295D02*
X74909523Y-2740533D01*
X74909523Y-2740533D02*
X74861904Y-2883390D01*
X74861904Y-2883390D02*
X74290476Y-3454819D01*
X74290476Y-3454819D02*
X74909523Y-3454819D01*
X44504761Y-18050057D02*
X44409523Y-18002438D01*
X44409523Y-18002438D02*
X44314285Y-17907200D01*
X44314285Y-17907200D02*
X44171428Y-17764342D01*
X44171428Y-17764342D02*
X44076190Y-17716723D01*
X44076190Y-17716723D02*
X43980952Y-17716723D01*
X44028571Y-17954819D02*
X43933333Y-17907200D01*
X43933333Y-17907200D02*
X43838095Y-17811961D01*
X43838095Y-17811961D02*
X43790476Y-17621485D01*
X43790476Y-17621485D02*
X43790476Y-17288152D01*
X43790476Y-17288152D02*
X43838095Y-17097676D01*
X43838095Y-17097676D02*
X43933333Y-17002438D01*
X43933333Y-17002438D02*
X44028571Y-16954819D01*
X44028571Y-16954819D02*
X44219047Y-16954819D01*
X44219047Y-16954819D02*
X44314285Y-17002438D01*
X44314285Y-17002438D02*
X44409523Y-17097676D01*
X44409523Y-17097676D02*
X44457142Y-17288152D01*
X44457142Y-17288152D02*
X44457142Y-17621485D01*
X44457142Y-17621485D02*
X44409523Y-17811961D01*
X44409523Y-17811961D02*
X44314285Y-17907200D01*
X44314285Y-17907200D02*
X44219047Y-17954819D01*
X44219047Y-17954819D02*
X44028571Y-17954819D01*
X45409523Y-17954819D02*
X44838095Y-17954819D01*
X45123809Y-17954819D02*
X45123809Y-16954819D01*
X45123809Y-16954819D02*
X45028571Y-17097676D01*
X45028571Y-17097676D02*
X44933333Y-17192914D01*
X44933333Y-17192914D02*
X44838095Y-17240533D01*
X46466666Y-5654819D02*
X46466666Y-6369104D01*
X46466666Y-6369104D02*
X46419047Y-6511961D01*
X46419047Y-6511961D02*
X46323809Y-6607200D01*
X46323809Y-6607200D02*
X46180952Y-6654819D01*
X46180952Y-6654819D02*
X46085714Y-6654819D01*
X46847619Y-5654819D02*
X47466666Y-5654819D01*
X47466666Y-5654819D02*
X47133333Y-6035771D01*
X47133333Y-6035771D02*
X47276190Y-6035771D01*
X47276190Y-6035771D02*
X47371428Y-6083390D01*
X47371428Y-6083390D02*
X47419047Y-6131009D01*
X47419047Y-6131009D02*
X47466666Y-6226247D01*
X47466666Y-6226247D02*
X47466666Y-6464342D01*
X47466666Y-6464342D02*
X47419047Y-6559580D01*
X47419047Y-6559580D02*
X47371428Y-6607200D01*
X47371428Y-6607200D02*
X47276190Y-6654819D01*
X47276190Y-6654819D02*
X46990476Y-6654819D01*
X46990476Y-6654819D02*
X46895238Y-6607200D01*
X46895238Y-6607200D02*
X46847619Y-6559580D01*
X104766666Y-21854819D02*
X104766666Y-22569104D01*
X104766666Y-22569104D02*
X104719047Y-22711961D01*
X104719047Y-22711961D02*
X104623809Y-22807200D01*
X104623809Y-22807200D02*
X104480952Y-22854819D01*
X104480952Y-22854819D02*
X104385714Y-22854819D01*
X105195238Y-21950057D02*
X105242857Y-21902438D01*
X105242857Y-21902438D02*
X105338095Y-21854819D01*
X105338095Y-21854819D02*
X105576190Y-21854819D01*
X105576190Y-21854819D02*
X105671428Y-21902438D01*
X105671428Y-21902438D02*
X105719047Y-21950057D01*
X105719047Y-21950057D02*
X105766666Y-22045295D01*
X105766666Y-22045295D02*
X105766666Y-22140533D01*
X105766666Y-22140533D02*
X105719047Y-22283390D01*
X105719047Y-22283390D02*
X105147619Y-22854819D01*
X105147619Y-22854819D02*
X105766666Y-22854819D01*
X8666666Y-34454819D02*
X8666666Y-35169104D01*
X8666666Y-35169104D02*
X8619047Y-35311961D01*
X8619047Y-35311961D02*
X8523809Y-35407200D01*
X8523809Y-35407200D02*
X8380952Y-35454819D01*
X8380952Y-35454819D02*
X8285714Y-35454819D01*
X9666666Y-35454819D02*
X9095238Y-35454819D01*
X9380952Y-35454819D02*
X9380952Y-34454819D01*
X9380952Y-34454819D02*
X9285714Y-34597676D01*
X9285714Y-34597676D02*
X9190476Y-34692914D01*
X9190476Y-34692914D02*
X9095238Y-34740533D01*
X95461905Y-30334819D02*
X95461905Y-29334819D01*
X95461905Y-29334819D02*
X95700000Y-29334819D01*
X95700000Y-29334819D02*
X95842857Y-29382438D01*
X95842857Y-29382438D02*
X95938095Y-29477676D01*
X95938095Y-29477676D02*
X95985714Y-29572914D01*
X95985714Y-29572914D02*
X96033333Y-29763390D01*
X96033333Y-29763390D02*
X96033333Y-29906247D01*
X96033333Y-29906247D02*
X95985714Y-30096723D01*
X95985714Y-30096723D02*
X95938095Y-30191961D01*
X95938095Y-30191961D02*
X95842857Y-30287200D01*
X95842857Y-30287200D02*
X95700000Y-30334819D01*
X95700000Y-30334819D02*
X95461905Y-30334819D01*
X96366667Y-29334819D02*
X96985714Y-29334819D01*
X96985714Y-29334819D02*
X96652381Y-29715771D01*
X96652381Y-29715771D02*
X96795238Y-29715771D01*
X96795238Y-29715771D02*
X96890476Y-29763390D01*
X96890476Y-29763390D02*
X96938095Y-29811009D01*
X96938095Y-29811009D02*
X96985714Y-29906247D01*
X96985714Y-29906247D02*
X96985714Y-30144342D01*
X96985714Y-30144342D02*
X96938095Y-30239580D01*
X96938095Y-30239580D02*
X96890476Y-30287200D01*
X96890476Y-30287200D02*
X96795238Y-30334819D01*
X96795238Y-30334819D02*
X96509524Y-30334819D01*
X96509524Y-30334819D02*
X96414286Y-30287200D01*
X96414286Y-30287200D02*
X96366667Y-30239580D01*
X95461905Y-26154819D02*
X95461905Y-25154819D01*
X95461905Y-25154819D02*
X95700000Y-25154819D01*
X95700000Y-25154819D02*
X95842857Y-25202438D01*
X95842857Y-25202438D02*
X95938095Y-25297676D01*
X95938095Y-25297676D02*
X95985714Y-25392914D01*
X95985714Y-25392914D02*
X96033333Y-25583390D01*
X96033333Y-25583390D02*
X96033333Y-25726247D01*
X96033333Y-25726247D02*
X95985714Y-25916723D01*
X95985714Y-25916723D02*
X95938095Y-26011961D01*
X95938095Y-26011961D02*
X95842857Y-26107200D01*
X95842857Y-26107200D02*
X95700000Y-26154819D01*
X95700000Y-26154819D02*
X95461905Y-26154819D01*
X96414286Y-25250057D02*
X96461905Y-25202438D01*
X96461905Y-25202438D02*
X96557143Y-25154819D01*
X96557143Y-25154819D02*
X96795238Y-25154819D01*
X96795238Y-25154819D02*
X96890476Y-25202438D01*
X96890476Y-25202438D02*
X96938095Y-25250057D01*
X96938095Y-25250057D02*
X96985714Y-25345295D01*
X96985714Y-25345295D02*
X96985714Y-25440533D01*
X96985714Y-25440533D02*
X96938095Y-25583390D01*
X96938095Y-25583390D02*
X96366667Y-26154819D01*
X96366667Y-26154819D02*
X96985714Y-26154819D01*
X95461905Y-22234819D02*
X95461905Y-21234819D01*
X95461905Y-21234819D02*
X95700000Y-21234819D01*
X95700000Y-21234819D02*
X95842857Y-21282438D01*
X95842857Y-21282438D02*
X95938095Y-21377676D01*
X95938095Y-21377676D02*
X95985714Y-21472914D01*
X95985714Y-21472914D02*
X96033333Y-21663390D01*
X96033333Y-21663390D02*
X96033333Y-21806247D01*
X96033333Y-21806247D02*
X95985714Y-21996723D01*
X95985714Y-21996723D02*
X95938095Y-22091961D01*
X95938095Y-22091961D02*
X95842857Y-22187200D01*
X95842857Y-22187200D02*
X95700000Y-22234819D01*
X95700000Y-22234819D02*
X95461905Y-22234819D01*
X96985714Y-22234819D02*
X96414286Y-22234819D01*
X96700000Y-22234819D02*
X96700000Y-21234819D01*
X96700000Y-21234819D02*
X96604762Y-21377676D01*
X96604762Y-21377676D02*
X96509524Y-21472914D01*
X96509524Y-21472914D02*
X96414286Y-21520533D01*
X70733333Y-40159580D02*
X70685714Y-40207200D01*
X70685714Y-40207200D02*
X70542857Y-40254819D01*
X70542857Y-40254819D02*
X70447619Y-40254819D01*
X70447619Y-40254819D02*
X70304762Y-40207200D01*
X70304762Y-40207200D02*
X70209524Y-40111961D01*
X70209524Y-40111961D02*
X70161905Y-40016723D01*
X70161905Y-40016723D02*
X70114286Y-39826247D01*
X70114286Y-39826247D02*
X70114286Y-39683390D01*
X70114286Y-39683390D02*
X70161905Y-39492914D01*
X70161905Y-39492914D02*
X70209524Y-39397676D01*
X70209524Y-39397676D02*
X70304762Y-39302438D01*
X70304762Y-39302438D02*
X70447619Y-39254819D01*
X70447619Y-39254819D02*
X70542857Y-39254819D01*
X70542857Y-39254819D02*
X70685714Y-39302438D01*
X70685714Y-39302438D02*
X70733333Y-39350057D01*
X71590476Y-39254819D02*
X71400000Y-39254819D01*
X71400000Y-39254819D02*
X71304762Y-39302438D01*
X71304762Y-39302438D02*
X71257143Y-39350057D01*
X71257143Y-39350057D02*
X71161905Y-39492914D01*
X71161905Y-39492914D02*
X71114286Y-39683390D01*
X71114286Y-39683390D02*
X71114286Y-40064342D01*
X71114286Y-40064342D02*
X71161905Y-40159580D01*
X71161905Y-40159580D02*
X71209524Y-40207200D01*
X71209524Y-40207200D02*
X71304762Y-40254819D01*
X71304762Y-40254819D02*
X71495238Y-40254819D01*
X71495238Y-40254819D02*
X71590476Y-40207200D01*
X71590476Y-40207200D02*
X71638095Y-40159580D01*
X71638095Y-40159580D02*
X71685714Y-40064342D01*
X71685714Y-40064342D02*
X71685714Y-39826247D01*
X71685714Y-39826247D02*
X71638095Y-39731009D01*
X71638095Y-39731009D02*
X71590476Y-39683390D01*
X71590476Y-39683390D02*
X71495238Y-39635771D01*
X71495238Y-39635771D02*
X71304762Y-39635771D01*
X71304762Y-39635771D02*
X71209524Y-39683390D01*
X71209524Y-39683390D02*
X71161905Y-39731009D01*
X71161905Y-39731009D02*
X71114286Y-39826247D01*
X71633333Y-20959580D02*
X71585714Y-21007200D01*
X71585714Y-21007200D02*
X71442857Y-21054819D01*
X71442857Y-21054819D02*
X71347619Y-21054819D01*
X71347619Y-21054819D02*
X71204762Y-21007200D01*
X71204762Y-21007200D02*
X71109524Y-20911961D01*
X71109524Y-20911961D02*
X71061905Y-20816723D01*
X71061905Y-20816723D02*
X71014286Y-20626247D01*
X71014286Y-20626247D02*
X71014286Y-20483390D01*
X71014286Y-20483390D02*
X71061905Y-20292914D01*
X71061905Y-20292914D02*
X71109524Y-20197676D01*
X71109524Y-20197676D02*
X71204762Y-20102438D01*
X71204762Y-20102438D02*
X71347619Y-20054819D01*
X71347619Y-20054819D02*
X71442857Y-20054819D01*
X71442857Y-20054819D02*
X71585714Y-20102438D01*
X71585714Y-20102438D02*
X71633333Y-20150057D01*
X72538095Y-20054819D02*
X72061905Y-20054819D01*
X72061905Y-20054819D02*
X72014286Y-20531009D01*
X72014286Y-20531009D02*
X72061905Y-20483390D01*
X72061905Y-20483390D02*
X72157143Y-20435771D01*
X72157143Y-20435771D02*
X72395238Y-20435771D01*
X72395238Y-20435771D02*
X72490476Y-20483390D01*
X72490476Y-20483390D02*
X72538095Y-20531009D01*
X72538095Y-20531009D02*
X72585714Y-20626247D01*
X72585714Y-20626247D02*
X72585714Y-20864342D01*
X72585714Y-20864342D02*
X72538095Y-20959580D01*
X72538095Y-20959580D02*
X72490476Y-21007200D01*
X72490476Y-21007200D02*
X72395238Y-21054819D01*
X72395238Y-21054819D02*
X72157143Y-21054819D01*
X72157143Y-21054819D02*
X72061905Y-21007200D01*
X72061905Y-21007200D02*
X72014286Y-20959580D01*
X69133333Y-24609580D02*
X69085714Y-24657200D01*
X69085714Y-24657200D02*
X68942857Y-24704819D01*
X68942857Y-24704819D02*
X68847619Y-24704819D01*
X68847619Y-24704819D02*
X68704762Y-24657200D01*
X68704762Y-24657200D02*
X68609524Y-24561961D01*
X68609524Y-24561961D02*
X68561905Y-24466723D01*
X68561905Y-24466723D02*
X68514286Y-24276247D01*
X68514286Y-24276247D02*
X68514286Y-24133390D01*
X68514286Y-24133390D02*
X68561905Y-23942914D01*
X68561905Y-23942914D02*
X68609524Y-23847676D01*
X68609524Y-23847676D02*
X68704762Y-23752438D01*
X68704762Y-23752438D02*
X68847619Y-23704819D01*
X68847619Y-23704819D02*
X68942857Y-23704819D01*
X68942857Y-23704819D02*
X69085714Y-23752438D01*
X69085714Y-23752438D02*
X69133333Y-23800057D01*
X69990476Y-24038152D02*
X69990476Y-24704819D01*
X69752381Y-23657200D02*
X69514286Y-24371485D01*
X69514286Y-24371485D02*
X70133333Y-24371485D01*
X68133333Y-8309580D02*
X68085714Y-8357200D01*
X68085714Y-8357200D02*
X67942857Y-8404819D01*
X67942857Y-8404819D02*
X67847619Y-8404819D01*
X67847619Y-8404819D02*
X67704762Y-8357200D01*
X67704762Y-8357200D02*
X67609524Y-8261961D01*
X67609524Y-8261961D02*
X67561905Y-8166723D01*
X67561905Y-8166723D02*
X67514286Y-7976247D01*
X67514286Y-7976247D02*
X67514286Y-7833390D01*
X67514286Y-7833390D02*
X67561905Y-7642914D01*
X67561905Y-7642914D02*
X67609524Y-7547676D01*
X67609524Y-7547676D02*
X67704762Y-7452438D01*
X67704762Y-7452438D02*
X67847619Y-7404819D01*
X67847619Y-7404819D02*
X67942857Y-7404819D01*
X67942857Y-7404819D02*
X68085714Y-7452438D01*
X68085714Y-7452438D02*
X68133333Y-7500057D01*
X68466667Y-7404819D02*
X69085714Y-7404819D01*
X69085714Y-7404819D02*
X68752381Y-7785771D01*
X68752381Y-7785771D02*
X68895238Y-7785771D01*
X68895238Y-7785771D02*
X68990476Y-7833390D01*
X68990476Y-7833390D02*
X69038095Y-7881009D01*
X69038095Y-7881009D02*
X69085714Y-7976247D01*
X69085714Y-7976247D02*
X69085714Y-8214342D01*
X69085714Y-8214342D02*
X69038095Y-8309580D01*
X69038095Y-8309580D02*
X68990476Y-8357200D01*
X68990476Y-8357200D02*
X68895238Y-8404819D01*
X68895238Y-8404819D02*
X68609524Y-8404819D01*
X68609524Y-8404819D02*
X68514286Y-8357200D01*
X68514286Y-8357200D02*
X68466667Y-8309580D01*
X47433333Y-44659580D02*
X47385714Y-44707200D01*
X47385714Y-44707200D02*
X47242857Y-44754819D01*
X47242857Y-44754819D02*
X47147619Y-44754819D01*
X47147619Y-44754819D02*
X47004762Y-44707200D01*
X47004762Y-44707200D02*
X46909524Y-44611961D01*
X46909524Y-44611961D02*
X46861905Y-44516723D01*
X46861905Y-44516723D02*
X46814286Y-44326247D01*
X46814286Y-44326247D02*
X46814286Y-44183390D01*
X46814286Y-44183390D02*
X46861905Y-43992914D01*
X46861905Y-43992914D02*
X46909524Y-43897676D01*
X46909524Y-43897676D02*
X47004762Y-43802438D01*
X47004762Y-43802438D02*
X47147619Y-43754819D01*
X47147619Y-43754819D02*
X47242857Y-43754819D01*
X47242857Y-43754819D02*
X47385714Y-43802438D01*
X47385714Y-43802438D02*
X47433333Y-43850057D01*
X47814286Y-43850057D02*
X47861905Y-43802438D01*
X47861905Y-43802438D02*
X47957143Y-43754819D01*
X47957143Y-43754819D02*
X48195238Y-43754819D01*
X48195238Y-43754819D02*
X48290476Y-43802438D01*
X48290476Y-43802438D02*
X48338095Y-43850057D01*
X48338095Y-43850057D02*
X48385714Y-43945295D01*
X48385714Y-43945295D02*
X48385714Y-44040533D01*
X48385714Y-44040533D02*
X48338095Y-44183390D01*
X48338095Y-44183390D02*
X47766667Y-44754819D01*
X47766667Y-44754819D02*
X48385714Y-44754819D01*
X35033333Y-22009580D02*
X34985714Y-22057200D01*
X34985714Y-22057200D02*
X34842857Y-22104819D01*
X34842857Y-22104819D02*
X34747619Y-22104819D01*
X34747619Y-22104819D02*
X34604762Y-22057200D01*
X34604762Y-22057200D02*
X34509524Y-21961961D01*
X34509524Y-21961961D02*
X34461905Y-21866723D01*
X34461905Y-21866723D02*
X34414286Y-21676247D01*
X34414286Y-21676247D02*
X34414286Y-21533390D01*
X34414286Y-21533390D02*
X34461905Y-21342914D01*
X34461905Y-21342914D02*
X34509524Y-21247676D01*
X34509524Y-21247676D02*
X34604762Y-21152438D01*
X34604762Y-21152438D02*
X34747619Y-21104819D01*
X34747619Y-21104819D02*
X34842857Y-21104819D01*
X34842857Y-21104819D02*
X34985714Y-21152438D01*
X34985714Y-21152438D02*
X35033333Y-21200057D01*
X35985714Y-22104819D02*
X35414286Y-22104819D01*
X35700000Y-22104819D02*
X35700000Y-21104819D01*
X35700000Y-21104819D02*
X35604762Y-21247676D01*
X35604762Y-21247676D02*
X35509524Y-21342914D01*
X35509524Y-21342914D02*
X35414286Y-21390533D01*
D12*
%TO.C,R7*%
X56830000Y-40691000D02*
X56830000Y-42510000D01*
X57366000Y-38229000D02*
X63570000Y-38229000D01*
X57366000Y-44970000D02*
X63570000Y-44970000D01*
X63570000Y-38229000D02*
X63570000Y-40360000D01*
X63570000Y-42840000D02*
X63570000Y-44970000D01*
%TO.C,R6*%
X56930000Y-24391000D02*
X56930000Y-26210000D01*
X57466000Y-21929000D02*
X63670000Y-21929000D01*
X57466000Y-28670000D02*
X63670000Y-28670000D01*
X63670000Y-21929000D02*
X63670000Y-24060000D01*
X63670000Y-26540000D02*
X63670000Y-28670000D01*
%TO.C,R5*%
X57230000Y-8091000D02*
X57230000Y-9910000D01*
X57766000Y-5629000D02*
X63970000Y-5629000D01*
X57766000Y-12370000D02*
X63970000Y-12370000D01*
X63970000Y-5629000D02*
X63970000Y-7760000D01*
X63970000Y-10240000D02*
X63970000Y-12370000D01*
%TO.C,R1*%
X22530000Y-22591000D02*
X22530000Y-24410000D01*
X23066000Y-20129000D02*
X29270000Y-20129000D01*
X23066000Y-26870000D02*
X29270000Y-26870000D01*
X29270000Y-20129000D02*
X29270000Y-22260000D01*
X29270000Y-24740000D02*
X29270000Y-26870000D01*
%TO.C,Q4*%
X85688039Y-36934144D02*
X84797084Y-37825098D01*
X86465856Y-37711961D02*
X85688039Y-36934144D01*
X85574902Y-38602916D02*
X86465856Y-37711961D01*
X85574902Y-38602916D02*
G75*
G02*
X84797371Y-37825326I-3774902J-2997084D01*
G01*
%TO.C,Q3*%
X87488039Y-20634144D02*
X86597084Y-21525098D01*
X88265856Y-21411961D02*
X87488039Y-20634144D01*
X87374902Y-22302916D02*
X88265856Y-21411961D01*
X87374902Y-22302916D02*
G75*
G02*
X86597371Y-21525326I-3774902J-2997084D01*
G01*
%TO.C,Q2*%
X79988039Y-4334144D02*
X79097084Y-5225098D01*
X80765856Y-5111961D02*
X79988039Y-4334144D01*
X79874902Y-6002916D02*
X80765856Y-5111961D01*
X79874902Y-6002916D02*
G75*
G02*
X79097371Y-5225326I-3774902J-2997084D01*
G01*
%TO.C,Q1*%
X50088039Y-18834144D02*
X49197084Y-19725098D01*
X50865856Y-19611961D02*
X50088039Y-18834144D01*
X49974902Y-20502916D02*
X50865856Y-19611961D01*
X49974902Y-20502916D02*
G75*
G02*
X49197371Y-19725326I-3774902J-2997084D01*
G01*
%TO.C,J3*%
X45470000Y-7895000D02*
X46800000Y-7895000D01*
X45470000Y-9225000D02*
X45470000Y-7895000D01*
X45470000Y-10495000D02*
X45470000Y-13095000D01*
X45470000Y-10495000D02*
X48130000Y-10495000D01*
X45470000Y-13095000D02*
X48130000Y-13095000D01*
X48130000Y-10495000D02*
X48130000Y-13095000D01*
%TO.C,J2*%
X103770000Y-23895000D02*
X105100000Y-23895000D01*
X103770000Y-25225000D02*
X103770000Y-23895000D01*
X103770000Y-26495000D02*
X103770000Y-29095000D01*
X103770000Y-26495000D02*
X106430000Y-26495000D01*
X103770000Y-29095000D02*
X106430000Y-29095000D01*
X106430000Y-26495000D02*
X106430000Y-29095000D01*
%TO.C,J1*%
X12100000Y-31200000D02*
X11600000Y-31200000D01*
X12100000Y-30000000D02*
X14100000Y-30000000D01*
X12100000Y-30000000D02*
X12100000Y-31200000D01*
X12100000Y-27400000D02*
X14100000Y-27400000D01*
X12100000Y-20900000D02*
X12100000Y-27400000D01*
X12100000Y-16500000D02*
X12100000Y-17700000D01*
X11600000Y-33700000D02*
X6400000Y-33700000D01*
X11600000Y-31200000D02*
X11600000Y-33700000D01*
X6400000Y-33700000D02*
X6400000Y-31200000D01*
X6400000Y-31200000D02*
X5900000Y-31200000D01*
X5900000Y-31200000D02*
X5900000Y-28000000D01*
X5900000Y-25400000D02*
X5900000Y-16500000D01*
X5900000Y-16500000D02*
X12100000Y-16500000D01*
%TO.C,D3*%
X93915000Y-30565000D02*
X93915000Y-32835000D01*
X93915000Y-32835000D02*
X97800000Y-32835000D01*
X97800000Y-30565000D02*
X93915000Y-30565000D01*
%TO.C,D2*%
X93915000Y-26665000D02*
X93915000Y-28935000D01*
X93915000Y-28935000D02*
X97800000Y-28935000D01*
X97800000Y-26665000D02*
X93915000Y-26665000D01*
%TO.C,D1*%
X93915000Y-22465000D02*
X93915000Y-24735000D01*
X93915000Y-24735000D02*
X97800000Y-24735000D01*
X97800000Y-22465000D02*
X93915000Y-22465000D01*
%TO.C,C2*%
X46888748Y-41090000D02*
X48311252Y-41090000D01*
X46888748Y-42910000D02*
X48311252Y-42910000D01*
%TO.C,C1*%
X34488748Y-22590000D02*
X35911252Y-22590000D01*
X34488748Y-24410000D02*
X35911252Y-24410000D01*
%TD*%
M02*
