%TF.GenerationSoftware,KiCad,Pcbnew,8.0.5*%
%TF.CreationDate,2024-10-13T18:39:00+03:00*%
%TF.ProjectId,proect,70726f65-6374-42e6-9b69-6361645f7063,rev?*%
%TF.SameCoordinates,Original*%
%TF.FileFunction,Copper,L1,Top*%
%TF.FilePolarity,Positive*%
%FSLAX46Y46*%
G04 Gerber Fmt 4.6, Leading zero omitted, Abs format (unit mm)*
G04 Created by KiCad (PCBNEW 8.0.5) date 2024-10-13 18:39:00*
%MOMM*%
%LPD*%
G01*
G04 APERTURE LIST*
G04 Aperture macros list*
%AMRoundRect*
0 Rectangle with rounded corners*
0 $1 Rounding radius*
0 $2 $3 $4 $5 $6 $7 $8 $9 X,Y pos of 4 corners*
0 Add a 4 corners polygon primitive as box body*
4,1,4,$2,$3,$4,$5,$6,$7,$8,$9,$2,$3,0*
0 Add four circle primitives for the rounded corners*
1,1,$1+$1,$2,$3*
1,1,$1+$1,$4,$5*
1,1,$1+$1,$6,$7*
1,1,$1+$1,$8,$9*
0 Add four rect primitives between the rounded corners*
20,1,$1+$1,$2,$3,$4,$5,0*
20,1,$1+$1,$4,$5,$6,$7,0*
20,1,$1+$1,$6,$7,$8,$9,0*
20,1,$1+$1,$8,$9,$2,$3,0*%
G04 Aperture macros list end*
%TA.AperFunction,Conductor*%
%ADD10C,0.200000*%
%TD*%
%TA.AperFunction,SMDPad,CuDef*%
%ADD11RoundRect,0.100000X-0.130000X-0.100000X0.130000X-0.100000X0.130000X0.100000X-0.130000X0.100000X0*%
%TD*%
%TA.AperFunction,SMDPad,CuDef*%
%ADD12R,2.500000X2.000000*%
%TD*%
%TA.AperFunction,SMDPad,CuDef*%
%ADD13RoundRect,0.100000X0.130000X0.100000X-0.130000X0.100000X-0.130000X-0.100000X0.130000X-0.100000X0*%
%TD*%
%TA.AperFunction,SMDPad,CuDef*%
%ADD14RoundRect,0.100000X0.100000X-0.130000X0.100000X0.130000X-0.100000X0.130000X-0.100000X-0.130000X0*%
%TD*%
%TA.AperFunction,ComponentPad*%
%ADD15O,1.200000X1.600000*%
%TD*%
%TA.AperFunction,ComponentPad*%
%ADD16O,1.200000X1.200000*%
%TD*%
%TA.AperFunction,ComponentPad*%
%ADD17C,0.800000*%
%TD*%
%TA.AperFunction,ComponentPad*%
%ADD18C,6.000000*%
%TD*%
%TA.AperFunction,ComponentPad*%
%ADD19R,1.700000X1.700000*%
%TD*%
%TA.AperFunction,ComponentPad*%
%ADD20O,1.700000X1.700000*%
%TD*%
%TA.AperFunction,SMDPad,CuDef*%
%ADD21R,2.800000X2.200000*%
%TD*%
%TA.AperFunction,SMDPad,CuDef*%
%ADD22R,2.800000X2.800000*%
%TD*%
%TA.AperFunction,SMDPad,CuDef*%
%ADD23RoundRect,0.250000X-0.375000X-0.625000X0.375000X-0.625000X0.375000X0.625000X-0.375000X0.625000X0*%
%TD*%
%TA.AperFunction,SMDPad,CuDef*%
%ADD24RoundRect,0.100000X-0.100000X0.130000X-0.100000X-0.130000X0.100000X-0.130000X0.100000X0.130000X0*%
%TD*%
%TA.AperFunction,SMDPad,CuDef*%
%ADD25RoundRect,0.250000X-0.325000X-0.650000X0.325000X-0.650000X0.325000X0.650000X-0.325000X0.650000X0*%
%TD*%
%TA.AperFunction,Conductor*%
%ADD26C,0.500000*%
%TD*%
G04 APERTURE END LIST*
%TO.N,GND*%
D10*
X1600000Y-100000D02*
X111600000Y-100000D01*
X111600000Y-50100000D01*
X1600000Y-50100000D01*
X1600000Y-100000D01*
%TD*%
D11*
%TO.P,R13,1*%
%TO.N,Net-(Q4-C)*%
X89080000Y-44200000D03*
%TO.P,R13,2*%
%TO.N,Net-(D3-K)*%
X89720000Y-44200000D03*
%TD*%
%TO.P,R12,1*%
%TO.N,Net-(Q3-C)*%
X90880000Y-27800000D03*
%TO.P,R12,2*%
%TO.N,Net-(D2-K)*%
X91520000Y-27800000D03*
%TD*%
%TO.P,R11,1*%
%TO.N,Net-(Q2-C)*%
X83280000Y-11500000D03*
%TO.P,R11,2*%
%TO.N,Net-(D1-K)*%
X83920000Y-11500000D03*
%TD*%
%TO.P,R10,1*%
%TO.N,Net-(C6-Pad2)*%
X70980000Y-41600000D03*
%TO.P,R10,2*%
%TO.N,Net-(Q4-B)*%
X71620000Y-41600000D03*
%TD*%
%TO.P,R9,1*%
%TO.N,Net-(C4-Pad2)*%
X71780000Y-25300000D03*
%TO.P,R9,2*%
%TO.N,Net-(Q3-B)*%
X72420000Y-25300000D03*
%TD*%
%TO.P,R8,1*%
%TO.N,Net-(R7-Pad2)*%
X68680000Y-41600000D03*
%TO.P,R8,2*%
%TO.N,Net-(C6-Pad2)*%
X69320000Y-41600000D03*
%TD*%
D12*
%TO.P,R7,1,1*%
%TO.N,Net-(C2-Pad2)*%
X55875000Y-43750000D03*
%TO.P,R7,2,2*%
%TO.N,Net-(R7-Pad2)*%
X64525000Y-41600000D03*
%TO.P,R7,3,3*%
%TO.N,-9V*%
X55875000Y-39450000D03*
%TD*%
%TO.P,R6,1,1*%
%TO.N,Net-(C2-Pad2)*%
X55975000Y-27450000D03*
%TO.P,R6,2,2*%
%TO.N,Net-(C4-Pad1)*%
X64625000Y-25300000D03*
%TO.P,R6,3,3*%
%TO.N,-9V*%
X55975000Y-23150000D03*
%TD*%
%TO.P,R5,1,1*%
%TO.N,Net-(C2-Pad2)*%
X56275000Y-11150000D03*
%TO.P,R5,2,2*%
%TO.N,Net-(C3-Pad1)*%
X64925000Y-9000000D03*
%TO.P,R5,3,3*%
%TO.N,-9V*%
X56275000Y-6850000D03*
%TD*%
D13*
%TO.P,R4,1*%
%TO.N,+9V*%
X46720000Y-46800000D03*
%TO.P,R4,2*%
%TO.N,Net-(Q1-C)*%
X46080000Y-46800000D03*
%TD*%
D14*
%TO.P,R3,1*%
%TO.N,Net-(Q1-C)*%
X39400000Y-26120000D03*
%TO.P,R3,2*%
%TO.N,Net-(Q1-B)*%
X39400000Y-25480000D03*
%TD*%
D13*
%TO.P,R2,2*%
%TO.N,-9V*%
X16980000Y-19300000D03*
%TO.P,R2,1*%
%TO.N,Net-(R1-Pad3)*%
X17620000Y-19300000D03*
%TD*%
D12*
%TO.P,R1,1,1*%
%TO.N,Net-(J1-PadS)*%
X21575000Y-25650000D03*
%TO.P,R1,2,2*%
%TO.N,Net-(C1-Pad1)*%
X30225000Y-23500000D03*
%TO.P,R1,3,3*%
%TO.N,Net-(R1-Pad3)*%
X21575000Y-21350000D03*
%TD*%
D15*
%TO.P,Q4,1,E*%
%TO.N,-9V*%
X81800000Y-39060000D03*
D16*
%TO.P,Q4,2,B*%
%TO.N,Net-(Q4-B)*%
X79260000Y-41600000D03*
%TO.P,Q4,3,C*%
%TO.N,Net-(Q4-C)*%
X81800000Y-44140000D03*
%TD*%
D15*
%TO.P,Q3,1,E*%
%TO.N,-9V*%
X83600000Y-22760000D03*
D16*
%TO.P,Q3,2,B*%
%TO.N,Net-(Q3-B)*%
X81060000Y-25300000D03*
%TO.P,Q3,3,C*%
%TO.N,Net-(Q3-C)*%
X83600000Y-27840000D03*
%TD*%
D15*
%TO.P,Q2,1,E*%
%TO.N,-9V*%
X76100000Y-6460000D03*
D16*
%TO.P,Q2,2,B*%
%TO.N,Net-(Q2-B)*%
X73560000Y-9000000D03*
%TO.P,Q2,3,C*%
%TO.N,Net-(Q2-C)*%
X76100000Y-11540000D03*
%TD*%
D15*
%TO.P,Q1,1,E*%
%TO.N,-9V*%
X46200000Y-20960000D03*
D16*
%TO.P,Q1,2,B*%
%TO.N,Net-(Q1-B)*%
X43660000Y-23500000D03*
%TO.P,Q1,3,C*%
%TO.N,Net-(Q1-C)*%
X46200000Y-26040000D03*
%TD*%
D17*
%TO.P,J7,1,Pin_1*%
%TO.N,GND*%
X4350000Y-5100000D03*
X5009010Y-3509010D03*
X5009010Y-6690990D03*
X6600000Y-2850000D03*
D18*
X6600000Y-5100000D03*
D17*
X6600000Y-7350000D03*
X8190990Y-3509010D03*
X8190990Y-6690990D03*
X8850000Y-5100000D03*
%TD*%
%TO.P,J6,1,Pin_1*%
%TO.N,GND*%
X4350000Y-45100000D03*
X5009010Y-43509010D03*
X5009010Y-46690990D03*
X6600000Y-42850000D03*
D18*
X6600000Y-45100000D03*
D17*
X6600000Y-47350000D03*
X8190990Y-43509010D03*
X8190990Y-46690990D03*
X8850000Y-45100000D03*
%TD*%
%TO.P,J5,1,Pin_1*%
%TO.N,GND*%
X104350000Y-5100000D03*
X105009010Y-3509010D03*
X105009010Y-6690990D03*
X106600000Y-2850000D03*
D18*
X106600000Y-5100000D03*
D17*
X106600000Y-7350000D03*
X108190990Y-3509010D03*
X108190990Y-6690990D03*
X108850000Y-5100000D03*
%TD*%
%TO.P,J4,1,Pin_1*%
%TO.N,GND*%
X104350000Y-45100000D03*
X105009010Y-43509010D03*
X105009010Y-46690990D03*
X106600000Y-42850000D03*
D18*
X106600000Y-45100000D03*
D17*
X106600000Y-47350000D03*
X108190990Y-43509010D03*
X108190990Y-46690990D03*
X108850000Y-45100000D03*
%TD*%
D19*
%TO.P,J3,1,Pin_1*%
%TO.N,GND*%
X46800000Y-9225000D03*
D20*
%TO.P,J3,2,Pin_2*%
%TO.N,-9V*%
X46800000Y-11765000D03*
%TD*%
D19*
%TO.P,J2,1,Pin_1*%
%TO.N,GND*%
X105100000Y-25225000D03*
D20*
%TO.P,J2,2,Pin_2*%
%TO.N,+9V*%
X105100000Y-27765000D03*
%TD*%
D21*
%TO.P,J1,R*%
%TO.N,GND*%
X5300000Y-26700000D03*
%TO.P,J1,S*%
%TO.N,Net-(J1-PadS)*%
X12700000Y-28700000D03*
D22*
%TO.P,J1,T*%
%TO.N,-9V*%
X12700000Y-19300000D03*
%TD*%
D23*
%TO.P,D3,1,K*%
%TO.N,Net-(D3-K)*%
X94800000Y-31700000D03*
%TO.P,D3,2,A*%
%TO.N,+9V*%
X97600000Y-31700000D03*
%TD*%
%TO.P,D2,1,K*%
%TO.N,Net-(D2-K)*%
X94800000Y-27800000D03*
%TO.P,D2,2,A*%
%TO.N,+9V*%
X97600000Y-27800000D03*
%TD*%
%TO.P,D1,1,K*%
%TO.N,Net-(D1-K)*%
X94800000Y-23600000D03*
%TO.P,D1,2,A*%
%TO.N,+9V*%
X97600000Y-23600000D03*
%TD*%
D24*
%TO.P,C6,1*%
%TO.N,-9V*%
X69300000Y-38480000D03*
%TO.P,C6,2*%
%TO.N,Net-(C6-Pad2)*%
X69300000Y-39120000D03*
%TD*%
%TO.P,C5,1*%
%TO.N,-9V*%
X71800000Y-22080000D03*
%TO.P,C5,2*%
%TO.N,Net-(C4-Pad2)*%
X71800000Y-22720000D03*
%TD*%
D11*
%TO.P,C4,1*%
%TO.N,Net-(C4-Pad1)*%
X68980000Y-25300000D03*
%TO.P,C4,2*%
%TO.N,Net-(C4-Pad2)*%
X69620000Y-25300000D03*
%TD*%
%TO.P,C3,1*%
%TO.N,Net-(C3-Pad1)*%
X67980000Y-9000000D03*
%TO.P,C3,2*%
%TO.N,Net-(Q2-B)*%
X68620000Y-9000000D03*
%TD*%
D25*
%TO.P,C2,1*%
%TO.N,Net-(Q1-C)*%
X46125000Y-42000000D03*
%TO.P,C2,2*%
%TO.N,Net-(C2-Pad2)*%
X49075000Y-42000000D03*
%TD*%
%TO.P,C1,1*%
%TO.N,Net-(C1-Pad1)*%
X33725000Y-23500000D03*
%TO.P,C1,2*%
%TO.N,Net-(Q1-B)*%
X36675000Y-23500000D03*
%TD*%
D10*
%TO.N,GND*%
X6600000Y-45100000D02*
X1600000Y-50100000D01*
X12600000Y-9225000D02*
X13100000Y-9225000D01*
X12475000Y-9225000D02*
X12600000Y-9225000D01*
X5300000Y-16400000D02*
X12475000Y-9225000D01*
X13100000Y-9225000D02*
X46800000Y-9225000D01*
X5300000Y-26700000D02*
X5300000Y-16400000D01*
D26*
%TO.N,-9V*%
X46200000Y-12365000D02*
X46800000Y-11765000D01*
X46200000Y-20960000D02*
X46200000Y-12365000D01*
D10*
%TO.N,Net-(Q1-C)*%
X46200000Y-26040000D02*
X46200000Y-41925000D01*
X46200000Y-41925000D02*
X46125000Y-42000000D01*
%TO.N,GND*%
X81775000Y-1900000D02*
X105100000Y-25225000D01*
X54125000Y-1900000D02*
X81775000Y-1900000D01*
X46800000Y-9225000D02*
X54125000Y-1900000D01*
D26*
%TO.N,+9V*%
X92000000Y-46800000D02*
X46760000Y-46800000D01*
X97600000Y-41200000D02*
X92000000Y-46800000D01*
X97600000Y-31700000D02*
X97600000Y-41200000D01*
D10*
%TO.N,Net-(Q1-C)*%
X46125000Y-46755000D02*
X46080000Y-46800000D01*
X46125000Y-42000000D02*
X46125000Y-46755000D01*
%TO.N,Net-(C2-Pad2)*%
X49075000Y-42000000D02*
X53000000Y-42000000D01*
D26*
%TO.N,+9V*%
X97600000Y-27800000D02*
X97600000Y-31700000D01*
X97600000Y-23600000D02*
X97600000Y-27800000D01*
D10*
X97635000Y-27765000D02*
X97600000Y-27800000D01*
D26*
X105100000Y-27765000D02*
X97635000Y-27765000D01*
D10*
%TO.N,Net-(D3-K)*%
X94800000Y-40900000D02*
X94800000Y-31700000D01*
X91500000Y-44200000D02*
X94800000Y-40900000D01*
X89720000Y-44200000D02*
X91500000Y-44200000D01*
%TO.N,Net-(D1-K)*%
X94800000Y-19800000D02*
X94800000Y-23600000D01*
X86500000Y-11500000D02*
X94800000Y-19800000D01*
X86500000Y-11500000D02*
X86600000Y-11500000D01*
X83920000Y-11500000D02*
X86500000Y-11500000D01*
D26*
%TO.N,-9V*%
X61520000Y-38180000D02*
X61220000Y-38480000D01*
X61520000Y-22080000D02*
X61520000Y-38180000D01*
X61520000Y-6580000D02*
X61520000Y-22080000D01*
X61400000Y-6460000D02*
X61520000Y-6580000D01*
X61400000Y-6460000D02*
X56665000Y-6460000D01*
X76100000Y-6460000D02*
X61400000Y-6460000D01*
X53150000Y-6850000D02*
X56275000Y-6850000D01*
X46800000Y-11765000D02*
X48235000Y-11765000D01*
X48235000Y-11765000D02*
X53150000Y-6850000D01*
D10*
%TO.N,Net-(C2-Pad2)*%
X53000000Y-26200000D02*
X53000000Y-29500000D01*
X53000000Y-29500000D02*
X53000000Y-42000000D01*
X54250000Y-27450000D02*
X53000000Y-26200000D01*
X55975000Y-27450000D02*
X54250000Y-27450000D01*
X53000000Y-12600000D02*
X53000000Y-26200000D01*
X54750000Y-43750000D02*
X55875000Y-43750000D01*
X54450000Y-11150000D02*
X53000000Y-12600000D01*
X53000000Y-42000000D02*
X54750000Y-43750000D01*
X56275000Y-11150000D02*
X54450000Y-11150000D01*
%TO.N,Net-(Q1-C)*%
X46100000Y-26140000D02*
X46200000Y-26040000D01*
D26*
%TO.N,-9V*%
X60250000Y-39450000D02*
X55875000Y-39450000D01*
X61220000Y-38480000D02*
X60250000Y-39450000D01*
X69300000Y-38480000D02*
X61220000Y-38480000D01*
X81220000Y-38480000D02*
X69300000Y-38480000D01*
X81800000Y-39060000D02*
X81220000Y-38480000D01*
D10*
%TO.N,Net-(R7-Pad2)*%
X68680000Y-41600000D02*
X64525000Y-41600000D01*
%TO.N,Net-(C6-Pad2)*%
X69320000Y-41600000D02*
X70980000Y-41600000D01*
%TO.N,Net-(Q4-B)*%
X71620000Y-41600000D02*
X79260000Y-41600000D01*
%TO.N,Net-(Q4-C)*%
X89020000Y-44140000D02*
X89080000Y-44200000D01*
X81800000Y-44140000D02*
X89020000Y-44140000D01*
%TO.N,Net-(C6-Pad2)*%
X69300000Y-41580000D02*
X69320000Y-41600000D01*
X69300000Y-39120000D02*
X69300000Y-41580000D01*
%TO.N,Net-(D2-K)*%
X91520000Y-27800000D02*
X94800000Y-27800000D01*
%TO.N,Net-(Q3-C)*%
X90840000Y-27840000D02*
X83600000Y-27840000D01*
X90880000Y-27800000D02*
X90840000Y-27840000D01*
D26*
%TO.N,-9V*%
X56665000Y-6460000D02*
X56275000Y-6850000D01*
X71800000Y-22080000D02*
X61520000Y-22080000D01*
X61520000Y-22080000D02*
X60450000Y-23150000D01*
X60450000Y-23150000D02*
X55975000Y-23150000D01*
X71800000Y-22080000D02*
X82920000Y-22080000D01*
X82920000Y-22080000D02*
X83600000Y-22760000D01*
D10*
%TO.N,Net-(C4-Pad2)*%
X71800000Y-25280000D02*
X71780000Y-25300000D01*
X71800000Y-22720000D02*
X71800000Y-25280000D01*
X71780000Y-25180000D02*
X71820000Y-25140000D01*
X71780000Y-25300000D02*
X71780000Y-25180000D01*
%TO.N,Net-(Q3-B)*%
X80760000Y-25300000D02*
X81060000Y-25600000D01*
X72420000Y-25300000D02*
X80760000Y-25300000D01*
%TO.N,Net-(C4-Pad2)*%
X69620000Y-25300000D02*
X71780000Y-25300000D01*
%TO.N,Net-(C4-Pad1)*%
X64625000Y-25300000D02*
X68980000Y-25300000D01*
%TO.N,Net-(Q2-C)*%
X76140000Y-11500000D02*
X83280000Y-11500000D01*
X76100000Y-11540000D02*
X76140000Y-11500000D01*
%TO.N,Net-(Q2-B)*%
X68620000Y-9000000D02*
X73560000Y-9000000D01*
%TO.N,Net-(C3-Pad1)*%
X64925000Y-9000000D02*
X67980000Y-9000000D01*
%TO.N,Net-(Q1-C)*%
X46260000Y-26100000D02*
X46200000Y-26040000D01*
X46120000Y-26120000D02*
X46200000Y-26040000D01*
X39400000Y-26120000D02*
X46120000Y-26120000D01*
%TO.N,Net-(Q1-B)*%
X39400000Y-23900000D02*
X39000000Y-23500000D01*
X39400000Y-25480000D02*
X39400000Y-23900000D01*
X36675000Y-23500000D02*
X39000000Y-23500000D01*
X39000000Y-23500000D02*
X43660000Y-23500000D01*
D26*
%TO.N,-9V*%
X17300000Y-17600000D02*
X15600000Y-19300000D01*
X38000000Y-17600000D02*
X17300000Y-17600000D01*
X46200000Y-20960000D02*
X41360000Y-20960000D01*
X12700000Y-19300000D02*
X15600000Y-19300000D01*
X41360000Y-20960000D02*
X38000000Y-17600000D01*
D10*
%TO.N,Net-(J1-PadS)*%
X19350000Y-25650000D02*
X16300000Y-28700000D01*
X16300000Y-28700000D02*
X12700000Y-28700000D01*
X21575000Y-25650000D02*
X19350000Y-25650000D01*
%TO.N,Net-(C1-Pad1)*%
X30225000Y-23500000D02*
X33725000Y-23500000D01*
%TO.N,Net-(R1-Pad3)*%
X21525000Y-21400000D02*
X21575000Y-21350000D01*
X20200000Y-21400000D02*
X21525000Y-21400000D01*
X18100000Y-19300000D02*
X20200000Y-21400000D01*
X17620000Y-19300000D02*
X18100000Y-19300000D01*
D26*
%TO.N,-9V*%
X15600000Y-19300000D02*
X16980000Y-19300000D01*
D10*
%TO.N,GND*%
X12600000Y-9225000D02*
X10725000Y-9225000D01*
X10725000Y-9225000D02*
X6600000Y-5100000D01*
X6600000Y-5100000D02*
X1600000Y-100000D01*
X106600000Y-5100000D02*
X111600000Y-100000D01*
X106600000Y-45100000D02*
X111600000Y-50100000D01*
%TD*%
%TA.AperFunction,Conductor*%
%TO.N,GND*%
G36*
X111543039Y-119685D02*
G01*
X111588794Y-172489D01*
X111600000Y-224000D01*
X111600000Y-49976000D01*
X111580315Y-50043039D01*
X111527511Y-50088794D01*
X111476000Y-50100000D01*
X1724000Y-50100000D01*
X1656961Y-50080315D01*
X1611206Y-50027511D01*
X1600000Y-49976000D01*
X1600000Y-45099999D01*
X3095197Y-45099999D01*
X3095197Y-45100000D01*
X3114397Y-45466353D01*
X3171784Y-45828684D01*
X3171784Y-45828686D01*
X3266736Y-46183051D01*
X3398204Y-46525535D01*
X3564754Y-46852406D01*
X3764553Y-47160070D01*
X3995420Y-47445166D01*
X3995427Y-47445174D01*
X4036738Y-47486485D01*
X5451729Y-46071493D01*
X5455864Y-46077184D01*
X5622816Y-46244136D01*
X5628506Y-46248270D01*
X4213515Y-47663262D01*
X4254825Y-47704572D01*
X4254833Y-47704579D01*
X4539929Y-47935446D01*
X4847593Y-48135245D01*
X5174464Y-48301795D01*
X5516948Y-48433263D01*
X5871314Y-48528215D01*
X6233646Y-48585602D01*
X6599999Y-48604803D01*
X6600001Y-48604803D01*
X6966353Y-48585602D01*
X7328684Y-48528215D01*
X7328686Y-48528215D01*
X7683051Y-48433263D01*
X8025535Y-48301795D01*
X8352406Y-48135245D01*
X8660070Y-47935446D01*
X8945166Y-47704579D01*
X8945174Y-47704572D01*
X8986485Y-47663262D01*
X7571493Y-46248270D01*
X7577184Y-46244136D01*
X7744136Y-46077184D01*
X7748270Y-46071493D01*
X9163262Y-47486485D01*
X9204572Y-47445174D01*
X9204579Y-47445166D01*
X9435446Y-47160070D01*
X9635245Y-46852406D01*
X9801795Y-46525535D01*
X9933263Y-46183051D01*
X10028215Y-45828686D01*
X10028215Y-45828684D01*
X10085602Y-45466353D01*
X10104803Y-45100000D01*
X10104803Y-45099999D01*
X10085602Y-44733646D01*
X10028215Y-44371315D01*
X10028215Y-44371313D01*
X9933263Y-44016948D01*
X9801795Y-43674464D01*
X9635245Y-43347594D01*
X9435446Y-43039929D01*
X9204579Y-42754833D01*
X9204572Y-42754825D01*
X9163262Y-42713515D01*
X7748270Y-44128506D01*
X7744136Y-44122816D01*
X7577184Y-43955864D01*
X7571493Y-43951729D01*
X8986485Y-42536738D01*
X8945174Y-42495427D01*
X8945166Y-42495420D01*
X8660070Y-42264553D01*
X8352406Y-42064754D01*
X8025535Y-41898204D01*
X7683051Y-41766736D01*
X7328685Y-41671784D01*
X6966353Y-41614397D01*
X6600001Y-41595197D01*
X6599999Y-41595197D01*
X6233646Y-41614397D01*
X5871315Y-41671784D01*
X5871313Y-41671784D01*
X5516948Y-41766736D01*
X5174464Y-41898204D01*
X4847594Y-42064754D01*
X4539929Y-42264553D01*
X4254833Y-42495420D01*
X4254825Y-42495427D01*
X4213515Y-42536738D01*
X5628506Y-43951729D01*
X5622816Y-43955864D01*
X5455864Y-44122816D01*
X5451729Y-44128506D01*
X4036738Y-42713515D01*
X3995427Y-42754825D01*
X3995420Y-42754833D01*
X3764553Y-43039929D01*
X3564754Y-43347594D01*
X3398204Y-43674464D01*
X3266736Y-44016948D01*
X3171784Y-44371313D01*
X3171784Y-44371315D01*
X3114397Y-44733646D01*
X3095197Y-45099999D01*
X1600000Y-45099999D01*
X1600000Y-27847844D01*
X3400000Y-27847844D01*
X3406401Y-27907372D01*
X3406403Y-27907379D01*
X3456645Y-28042086D01*
X3456649Y-28042093D01*
X3542809Y-28157187D01*
X3542812Y-28157190D01*
X3657906Y-28243350D01*
X3657913Y-28243354D01*
X3792620Y-28293596D01*
X3792627Y-28293598D01*
X3852155Y-28299999D01*
X3852172Y-28300000D01*
X5175000Y-28300000D01*
X5425000Y-28300000D01*
X6747828Y-28300000D01*
X6747844Y-28299999D01*
X6807372Y-28293598D01*
X6807379Y-28293596D01*
X6942086Y-28243354D01*
X6942093Y-28243350D01*
X7057187Y-28157190D01*
X7057190Y-28157187D01*
X7143350Y-28042093D01*
X7143354Y-28042086D01*
X7193596Y-27907379D01*
X7193598Y-27907372D01*
X7199999Y-27847844D01*
X7200000Y-27847827D01*
X7200000Y-27513389D01*
X7899500Y-27513389D01*
X7899500Y-27686610D01*
X7925036Y-27847844D01*
X7926598Y-27857701D01*
X7972968Y-28000413D01*
X7980128Y-28022447D01*
X8009358Y-28079815D01*
X8058768Y-28176788D01*
X8160586Y-28316928D01*
X8283072Y-28439414D01*
X8423212Y-28541232D01*
X8577555Y-28619873D01*
X8742299Y-28673402D01*
X8913389Y-28700500D01*
X8913390Y-28700500D01*
X9086610Y-28700500D01*
X9086611Y-28700500D01*
X9257701Y-28673402D01*
X9422445Y-28619873D01*
X9576788Y-28541232D01*
X9716928Y-28439414D01*
X9839414Y-28316928D01*
X9941232Y-28176788D01*
X10019873Y-28022445D01*
X10073402Y-27857701D01*
X10100500Y-27686611D01*
X10100500Y-27552135D01*
X10799500Y-27552135D01*
X10799500Y-29847870D01*
X10799501Y-29847876D01*
X10805908Y-29907483D01*
X10856202Y-30042328D01*
X10856206Y-30042335D01*
X10942452Y-30157544D01*
X10942455Y-30157547D01*
X11057664Y-30243793D01*
X11057671Y-30243797D01*
X11192517Y-30294091D01*
X11192516Y-30294091D01*
X11199444Y-30294835D01*
X11252127Y-30300500D01*
X14147872Y-30300499D01*
X14207483Y-30294091D01*
X14342331Y-30243796D01*
X14457546Y-30157546D01*
X14543796Y-30042331D01*
X14594091Y-29907483D01*
X14600500Y-29847873D01*
X14600500Y-29424500D01*
X14620185Y-29357461D01*
X14672989Y-29311706D01*
X14724500Y-29300500D01*
X16213331Y-29300500D01*
X16213347Y-29300501D01*
X16220943Y-29300501D01*
X16379054Y-29300501D01*
X16379057Y-29300501D01*
X16531785Y-29259577D01*
X16581904Y-29230639D01*
X16668716Y-29180520D01*
X16780520Y-29068716D01*
X16780520Y-29068714D01*
X16790728Y-29058507D01*
X16790729Y-29058504D01*
X19562416Y-26286819D01*
X19623739Y-26253334D01*
X19650097Y-26250500D01*
X19700501Y-26250500D01*
X19767540Y-26270185D01*
X19813295Y-26322989D01*
X19824501Y-26374500D01*
X19824501Y-26697876D01*
X19830908Y-26757483D01*
X19881202Y-26892328D01*
X19881206Y-26892335D01*
X19967452Y-27007544D01*
X19967455Y-27007547D01*
X20082664Y-27093793D01*
X20082671Y-27093797D01*
X20217517Y-27144091D01*
X20217516Y-27144091D01*
X20224444Y-27144835D01*
X20277127Y-27150500D01*
X22872872Y-27150499D01*
X22932483Y-27144091D01*
X23067331Y-27093796D01*
X23182546Y-27007546D01*
X23268796Y-26892331D01*
X23319091Y-26757483D01*
X23325500Y-26697873D01*
X23325499Y-24602128D01*
X23319091Y-24542517D01*
X23299260Y-24489348D01*
X23268797Y-24407671D01*
X23268793Y-24407664D01*
X23182547Y-24292455D01*
X23182544Y-24292452D01*
X23067335Y-24206206D01*
X23067328Y-24206202D01*
X22932482Y-24155908D01*
X22932483Y-24155908D01*
X22872883Y-24149501D01*
X22872881Y-24149500D01*
X22872873Y-24149500D01*
X22872864Y-24149500D01*
X20277129Y-24149500D01*
X20277123Y-24149501D01*
X20217516Y-24155908D01*
X20082671Y-24206202D01*
X20082664Y-24206206D01*
X19967455Y-24292452D01*
X19967452Y-24292455D01*
X19881206Y-24407664D01*
X19881202Y-24407671D01*
X19830908Y-24542517D01*
X19824782Y-24599500D01*
X19824501Y-24602123D01*
X19824500Y-24602135D01*
X19824500Y-24925500D01*
X19804815Y-24992539D01*
X19752011Y-25038294D01*
X19700500Y-25049500D01*
X19270940Y-25049500D01*
X19230019Y-25060464D01*
X19230019Y-25060465D01*
X19192751Y-25070451D01*
X19118214Y-25090423D01*
X19118209Y-25090426D01*
X18981290Y-25169475D01*
X18981282Y-25169481D01*
X18907955Y-25242809D01*
X18869480Y-25281284D01*
X18869478Y-25281286D01*
X17472483Y-26678282D01*
X16087584Y-28063181D01*
X16026261Y-28096666D01*
X15999903Y-28099500D01*
X14724499Y-28099500D01*
X14657460Y-28079815D01*
X14611705Y-28027011D01*
X14600499Y-27975500D01*
X14600499Y-27552129D01*
X14600498Y-27552123D01*
X14600497Y-27552116D01*
X14594091Y-27492517D01*
X14574783Y-27440750D01*
X14543797Y-27357671D01*
X14543793Y-27357664D01*
X14457547Y-27242455D01*
X14457544Y-27242452D01*
X14342335Y-27156206D01*
X14342328Y-27156202D01*
X14207482Y-27105908D01*
X14207483Y-27105908D01*
X14147883Y-27099501D01*
X14147881Y-27099500D01*
X14147873Y-27099500D01*
X14147864Y-27099500D01*
X11252129Y-27099500D01*
X11252123Y-27099501D01*
X11192516Y-27105908D01*
X11057671Y-27156202D01*
X11057664Y-27156206D01*
X10942455Y-27242452D01*
X10942452Y-27242455D01*
X10856206Y-27357664D01*
X10856202Y-27357671D01*
X10805908Y-27492517D01*
X10801922Y-27529596D01*
X10799501Y-27552123D01*
X10799500Y-27552135D01*
X10100500Y-27552135D01*
X10100500Y-27513389D01*
X10073402Y-27342299D01*
X10019873Y-27177555D01*
X9941232Y-27023212D01*
X9839414Y-26883072D01*
X9716928Y-26760586D01*
X9576788Y-26658768D01*
X9422445Y-26580127D01*
X9257701Y-26526598D01*
X9257699Y-26526597D01*
X9257698Y-26526597D01*
X9126271Y-26505781D01*
X9086611Y-26499500D01*
X8913389Y-26499500D01*
X8873728Y-26505781D01*
X8742302Y-26526597D01*
X8577552Y-26580128D01*
X8423211Y-26658768D01*
X8369375Y-26697883D01*
X8283072Y-26760586D01*
X8283070Y-26760588D01*
X8283069Y-26760588D01*
X8160588Y-26883069D01*
X8160588Y-26883070D01*
X8160586Y-26883072D01*
X8132317Y-26921981D01*
X8058768Y-27023211D01*
X7980128Y-27177552D01*
X7980127Y-27177554D01*
X7980127Y-27177555D01*
X7966396Y-27219815D01*
X7926597Y-27342302D01*
X7899500Y-27513389D01*
X7200000Y-27513389D01*
X7200000Y-26825000D01*
X5425000Y-26825000D01*
X5425000Y-28300000D01*
X5175000Y-28300000D01*
X5175000Y-26825000D01*
X3400000Y-26825000D01*
X3400000Y-27847844D01*
X1600000Y-27847844D01*
X1600000Y-25552155D01*
X3400000Y-25552155D01*
X3400000Y-26575000D01*
X5175000Y-26575000D01*
X5425000Y-26575000D01*
X7200000Y-26575000D01*
X7200000Y-25552172D01*
X7199999Y-25552155D01*
X7193598Y-25492627D01*
X7193596Y-25492620D01*
X7143354Y-25357913D01*
X7143350Y-25357906D01*
X7057190Y-25242812D01*
X7057187Y-25242809D01*
X6942093Y-25156649D01*
X6942086Y-25156645D01*
X6807379Y-25106403D01*
X6807372Y-25106401D01*
X6747844Y-25100000D01*
X5425000Y-25100000D01*
X5425000Y-26575000D01*
X5175000Y-26575000D01*
X5175000Y-25100000D01*
X3852155Y-25100000D01*
X3792627Y-25106401D01*
X3792620Y-25106403D01*
X3657913Y-25156645D01*
X3657906Y-25156649D01*
X3542812Y-25242809D01*
X3542809Y-25242812D01*
X3456649Y-25357906D01*
X3456645Y-25357913D01*
X3406403Y-25492620D01*
X3406401Y-25492627D01*
X3400000Y-25552155D01*
X1600000Y-25552155D01*
X1600000Y-20513389D01*
X7899500Y-20513389D01*
X7899500Y-20686610D01*
X7909201Y-20747864D01*
X7926598Y-20857701D01*
X7980127Y-21022445D01*
X8058768Y-21176788D01*
X8160586Y-21316928D01*
X8283072Y-21439414D01*
X8423212Y-21541232D01*
X8577555Y-21619873D01*
X8742299Y-21673402D01*
X8913389Y-21700500D01*
X8913390Y-21700500D01*
X9086610Y-21700500D01*
X9086611Y-21700500D01*
X9257701Y-21673402D01*
X9422445Y-21619873D01*
X9576788Y-21541232D01*
X9716928Y-21439414D01*
X9839414Y-21316928D01*
X9941232Y-21176788D01*
X10019873Y-21022445D01*
X10073402Y-20857701D01*
X10100500Y-20686611D01*
X10100500Y-20513389D01*
X10073402Y-20342299D01*
X10019873Y-20177555D01*
X9941232Y-20023212D01*
X9839414Y-19883072D01*
X9716928Y-19760586D01*
X9576788Y-19658768D01*
X9422445Y-19580127D01*
X9257701Y-19526598D01*
X9257699Y-19526597D01*
X9257698Y-19526597D01*
X9126271Y-19505781D01*
X9086611Y-19499500D01*
X8913389Y-19499500D01*
X8873728Y-19505781D01*
X8742302Y-19526597D01*
X8577552Y-19580128D01*
X8423211Y-19658768D01*
X8343256Y-19716859D01*
X8283072Y-19760586D01*
X8283070Y-19760588D01*
X8283069Y-19760588D01*
X8160588Y-19883069D01*
X8160588Y-19883070D01*
X8160586Y-19883072D01*
X8146256Y-19902796D01*
X8058768Y-20023211D01*
X7980128Y-20177552D01*
X7926597Y-20342302D01*
X7899500Y-20513389D01*
X1600000Y-20513389D01*
X1600000Y-17852135D01*
X10799500Y-17852135D01*
X10799500Y-20747870D01*
X10799501Y-20747876D01*
X10805908Y-20807483D01*
X10856202Y-20942328D01*
X10856206Y-20942335D01*
X10942452Y-21057544D01*
X10942455Y-21057547D01*
X11057664Y-21143793D01*
X11057671Y-21143797D01*
X11192517Y-21194091D01*
X11192516Y-21194091D01*
X11199444Y-21194835D01*
X11252127Y-21200500D01*
X14147872Y-21200499D01*
X14207483Y-21194091D01*
X14342331Y-21143796D01*
X14457546Y-21057546D01*
X14543796Y-20942331D01*
X14594091Y-20807483D01*
X14600500Y-20747873D01*
X14600500Y-20174500D01*
X14620185Y-20107461D01*
X14672989Y-20061706D01*
X14724500Y-20050500D01*
X17053920Y-20050500D01*
X17151462Y-20031096D01*
X17198913Y-20021658D01*
X17267689Y-19993169D01*
X17331325Y-19984792D01*
X17333237Y-19985043D01*
X17333238Y-19985044D01*
X17450639Y-20000500D01*
X17789360Y-20000499D01*
X17871805Y-19989645D01*
X17940837Y-20000410D01*
X17975668Y-20024903D01*
X19715139Y-21764374D01*
X19715149Y-21764385D01*
X19719479Y-21768715D01*
X19719480Y-21768716D01*
X19788182Y-21837418D01*
X19821666Y-21898739D01*
X19824500Y-21925098D01*
X19824500Y-22397870D01*
X19824501Y-22397876D01*
X19830908Y-22457483D01*
X19881202Y-22592328D01*
X19881206Y-22592335D01*
X19967452Y-22707544D01*
X19967455Y-22707547D01*
X20082664Y-22793793D01*
X20082671Y-22793797D01*
X20217517Y-22844091D01*
X20217516Y-22844091D01*
X20224444Y-22844835D01*
X20277127Y-22850500D01*
X22872872Y-22850499D01*
X22932483Y-22844091D01*
X23067331Y-22793796D01*
X23182546Y-22707546D01*
X23268796Y-22592331D01*
X23319091Y-22457483D01*
X23319666Y-22452135D01*
X28474500Y-22452135D01*
X28474500Y-24547870D01*
X28474501Y-24547876D01*
X28480908Y-24607483D01*
X28531202Y-24742328D01*
X28531206Y-24742335D01*
X28617452Y-24857544D01*
X28617455Y-24857547D01*
X28732664Y-24943793D01*
X28732671Y-24943797D01*
X28867517Y-24994091D01*
X28867516Y-24994091D01*
X28874444Y-24994835D01*
X28927127Y-25000500D01*
X31522872Y-25000499D01*
X31582483Y-24994091D01*
X31717331Y-24943796D01*
X31832546Y-24857546D01*
X31918796Y-24742331D01*
X31969091Y-24607483D01*
X31975500Y-24547873D01*
X31975500Y-24224500D01*
X31995185Y-24157461D01*
X32047989Y-24111706D01*
X32099500Y-24100500D01*
X32527357Y-24100500D01*
X32594396Y-24120185D01*
X32640151Y-24172989D01*
X32650715Y-24211898D01*
X32660001Y-24302797D01*
X32660001Y-24302799D01*
X32694752Y-24407669D01*
X32715186Y-24469334D01*
X32807288Y-24618656D01*
X32931344Y-24742712D01*
X33080666Y-24834814D01*
X33247203Y-24889999D01*
X33349991Y-24900500D01*
X34100008Y-24900499D01*
X34100016Y-24900498D01*
X34100019Y-24900498D01*
X34156302Y-24894748D01*
X34202797Y-24889999D01*
X34369334Y-24834814D01*
X34518656Y-24742712D01*
X34642712Y-24618656D01*
X34734814Y-24469334D01*
X34789999Y-24302797D01*
X34800500Y-24200009D01*
X34800499Y-22799992D01*
X34800498Y-22799983D01*
X35599500Y-22799983D01*
X35599500Y-24200001D01*
X35599501Y-24200018D01*
X35610000Y-24302796D01*
X35610001Y-24302799D01*
X35644752Y-24407669D01*
X35665186Y-24469334D01*
X35757288Y-24618656D01*
X35881344Y-24742712D01*
X36030666Y-24834814D01*
X36197203Y-24889999D01*
X36299991Y-24900500D01*
X37050008Y-24900499D01*
X37050016Y-24900498D01*
X37050019Y-24900498D01*
X37106302Y-24894748D01*
X37152797Y-24889999D01*
X37319334Y-24834814D01*
X37468656Y-24742712D01*
X37592712Y-24618656D01*
X37684814Y-24469334D01*
X37739999Y-24302797D01*
X37744628Y-24257483D01*
X37749286Y-24211897D01*
X37775683Y-24147205D01*
X37832864Y-24107054D01*
X37872644Y-24100500D01*
X38675500Y-24100500D01*
X38742539Y-24120185D01*
X38788294Y-24172989D01*
X38799500Y-24224500D01*
X38799500Y-24973742D01*
X38779815Y-25040781D01*
X38776073Y-25046103D01*
X38775465Y-25047156D01*
X38714956Y-25193237D01*
X38714955Y-25193239D01*
X38699500Y-25310638D01*
X38699500Y-25649363D01*
X38714955Y-25766763D01*
X38715263Y-25767912D01*
X38715263Y-25769101D01*
X38716016Y-25774821D01*
X38715263Y-25774920D01*
X38715265Y-25825081D01*
X38716017Y-25825180D01*
X38715265Y-25830884D01*
X38715266Y-25832079D01*
X38714956Y-25833234D01*
X38699500Y-25950638D01*
X38699500Y-26289363D01*
X38714953Y-26406753D01*
X38714956Y-26406762D01*
X38771110Y-26542331D01*
X38775464Y-26552841D01*
X38871718Y-26678282D01*
X38997159Y-26774536D01*
X39143238Y-26835044D01*
X39260639Y-26850500D01*
X39539360Y-26850499D01*
X39539363Y-26850499D01*
X39656753Y-26835046D01*
X39656757Y-26835044D01*
X39656762Y-26835044D01*
X39802836Y-26774538D01*
X39802837Y-26774538D01*
X39802837Y-26774537D01*
X39802841Y-26774536D01*
X39839869Y-26746123D01*
X39905036Y-26720930D01*
X39915354Y-26720500D01*
X45273102Y-26720500D01*
X45340141Y-26740185D01*
X45372055Y-26769773D01*
X45383236Y-26784579D01*
X45383239Y-26784581D01*
X45383241Y-26784584D01*
X45533956Y-26921979D01*
X45533958Y-26921980D01*
X45533959Y-26921981D01*
X45540772Y-26926199D01*
X45587410Y-26978223D01*
X45599500Y-27031629D01*
X45599500Y-40536267D01*
X45579815Y-40603306D01*
X45527011Y-40649061D01*
X45514506Y-40653972D01*
X45480671Y-40665184D01*
X45480663Y-40665187D01*
X45331342Y-40757289D01*
X45207289Y-40881342D01*
X45115187Y-41030663D01*
X45115186Y-41030666D01*
X45060001Y-41197203D01*
X45060001Y-41197204D01*
X45060000Y-41197204D01*
X45049500Y-41299983D01*
X45049500Y-42700001D01*
X45049501Y-42700018D01*
X45060000Y-42802796D01*
X45060001Y-42802799D01*
X45111279Y-42957544D01*
X45115186Y-42969334D01*
X45207288Y-43118656D01*
X45331344Y-43242712D01*
X45465597Y-43325519D01*
X45512321Y-43377465D01*
X45524500Y-43431057D01*
X45524500Y-46225999D01*
X45504815Y-46293038D01*
X45498876Y-46301485D01*
X45425464Y-46397157D01*
X45364956Y-46543237D01*
X45364955Y-46543239D01*
X45349500Y-46660638D01*
X45349500Y-46939363D01*
X45364953Y-47056753D01*
X45364956Y-47056762D01*
X45425464Y-47202841D01*
X45521718Y-47328282D01*
X45647159Y-47424536D01*
X45793238Y-47485044D01*
X45910639Y-47500500D01*
X46249360Y-47500499D01*
X46249363Y-47500499D01*
X46366755Y-47485045D01*
X46366755Y-47485044D01*
X46366762Y-47485044D01*
X46366767Y-47485041D01*
X46367900Y-47484739D01*
X46369086Y-47484739D01*
X46374821Y-47483984D01*
X46374920Y-47484739D01*
X46425073Y-47484739D01*
X46425172Y-47483983D01*
X46430918Y-47484739D01*
X46432100Y-47484739D01*
X46433234Y-47485042D01*
X46433238Y-47485044D01*
X46445565Y-47486666D01*
X46476833Y-47495043D01*
X46541087Y-47521658D01*
X46541091Y-47521658D01*
X46541092Y-47521659D01*
X46686079Y-47550500D01*
X46686082Y-47550500D01*
X92073920Y-47550500D01*
X92171462Y-47531096D01*
X92218913Y-47521658D01*
X92355495Y-47465084D01*
X92452151Y-47400501D01*
X92478416Y-47382952D01*
X94761369Y-45099999D01*
X103095197Y-45099999D01*
X103095197Y-45100000D01*
X103114397Y-45466353D01*
X103171784Y-45828684D01*
X103171784Y-45828686D01*
X103266736Y-46183051D01*
X103398204Y-46525535D01*
X103564754Y-46852406D01*
X103764553Y-47160070D01*
X103995420Y-47445166D01*
X103995427Y-47445174D01*
X104036738Y-47486485D01*
X105451729Y-46071493D01*
X105455864Y-46077184D01*
X105622816Y-46244136D01*
X105628506Y-46248270D01*
X104213515Y-47663262D01*
X104254825Y-47704572D01*
X104254833Y-47704579D01*
X104539929Y-47935446D01*
X104847593Y-48135245D01*
X105174464Y-48301795D01*
X105516948Y-48433263D01*
X105871314Y-48528215D01*
X106233646Y-48585602D01*
X106599999Y-48604803D01*
X106600001Y-48604803D01*
X106966353Y-48585602D01*
X107328684Y-48528215D01*
X107328686Y-48528215D01*
X107683051Y-48433263D01*
X108025535Y-48301795D01*
X108352406Y-48135245D01*
X108660070Y-47935446D01*
X108945166Y-47704579D01*
X108945174Y-47704572D01*
X108986485Y-47663262D01*
X107571493Y-46248270D01*
X107577184Y-46244136D01*
X107744136Y-46077184D01*
X107748270Y-46071493D01*
X109163262Y-47486485D01*
X109204572Y-47445174D01*
X109204579Y-47445166D01*
X109435446Y-47160070D01*
X109635245Y-46852406D01*
X109801795Y-46525535D01*
X109933263Y-46183051D01*
X110028215Y-45828686D01*
X110028215Y-45828684D01*
X110085602Y-45466353D01*
X110104803Y-45100000D01*
X110104803Y-45099999D01*
X110085602Y-44733646D01*
X110028215Y-44371315D01*
X110028215Y-44371313D01*
X109933263Y-44016948D01*
X109801795Y-43674464D01*
X109635245Y-43347594D01*
X109435446Y-43039929D01*
X109204579Y-42754833D01*
X109204572Y-42754825D01*
X109163262Y-42713515D01*
X107748270Y-44128506D01*
X107744136Y-44122816D01*
X107577184Y-43955864D01*
X107571493Y-43951729D01*
X108986485Y-42536738D01*
X108945174Y-42495427D01*
X108945166Y-42495420D01*
X108660070Y-42264553D01*
X108352406Y-42064754D01*
X108025535Y-41898204D01*
X107683051Y-41766736D01*
X107328685Y-41671784D01*
X106966353Y-41614397D01*
X106600001Y-41595197D01*
X106599999Y-41595197D01*
X106233646Y-41614397D01*
X105871315Y-41671784D01*
X105871313Y-41671784D01*
X105516948Y-41766736D01*
X105174464Y-41898204D01*
X104847594Y-42064754D01*
X104539929Y-42264553D01*
X104254833Y-42495420D01*
X104254825Y-42495427D01*
X104213515Y-42536738D01*
X105628506Y-43951729D01*
X105622816Y-43955864D01*
X105455864Y-44122816D01*
X105451729Y-44128506D01*
X104036738Y-42713515D01*
X103995427Y-42754825D01*
X103995420Y-42754833D01*
X103764553Y-43039929D01*
X103564754Y-43347594D01*
X103398204Y-43674464D01*
X103266736Y-44016948D01*
X103171784Y-44371313D01*
X103171784Y-44371315D01*
X103114397Y-44733646D01*
X103095197Y-45099999D01*
X94761369Y-45099999D01*
X98182952Y-41678416D01*
X98217882Y-41626138D01*
X98235348Y-41599999D01*
X98240270Y-41592631D01*
X98265084Y-41555495D01*
X98321658Y-41418913D01*
X98339939Y-41327011D01*
X98350500Y-41273920D01*
X98350500Y-33044377D01*
X98370185Y-32977338D01*
X98409406Y-32938837D01*
X98443654Y-32917713D01*
X98443653Y-32917713D01*
X98443656Y-32917712D01*
X98567712Y-32793656D01*
X98659814Y-32644334D01*
X98714999Y-32477797D01*
X98725500Y-32375009D01*
X98725499Y-31024992D01*
X98714999Y-30922203D01*
X98659814Y-30755666D01*
X98567712Y-30606344D01*
X98443656Y-30482288D01*
X98443653Y-30482285D01*
X98409401Y-30461158D01*
X98362678Y-30409210D01*
X98350500Y-30355621D01*
X98350500Y-29144377D01*
X98370185Y-29077338D01*
X98409406Y-29038837D01*
X98443654Y-29017713D01*
X98443653Y-29017713D01*
X98443656Y-29017712D01*
X98567712Y-28893656D01*
X98659814Y-28744334D01*
X98707477Y-28600495D01*
X98747250Y-28543051D01*
X98811766Y-28516228D01*
X98825183Y-28515500D01*
X103912299Y-28515500D01*
X103979338Y-28535185D01*
X104013873Y-28568376D01*
X104049932Y-28619873D01*
X104061505Y-28636401D01*
X104228599Y-28803495D01*
X104265521Y-28829348D01*
X104422165Y-28939032D01*
X104422167Y-28939033D01*
X104422170Y-28939035D01*
X104636337Y-29038903D01*
X104864592Y-29100063D01*
X105052918Y-29116539D01*
X105099999Y-29120659D01*
X105100000Y-29120659D01*
X105100001Y-29120659D01*
X105139234Y-29117226D01*
X105335408Y-29100063D01*
X105563663Y-29038903D01*
X105777830Y-28939035D01*
X105971401Y-28803495D01*
X106138495Y-28636401D01*
X106274035Y-28442830D01*
X106373903Y-28228663D01*
X106435063Y-28000408D01*
X106455659Y-27765000D01*
X106435063Y-27529592D01*
X106373903Y-27301337D01*
X106274035Y-27087171D01*
X106235144Y-27031629D01*
X106138496Y-26893600D01*
X106079938Y-26835042D01*
X106016179Y-26771283D01*
X105982696Y-26709963D01*
X105987680Y-26640271D01*
X106029551Y-26584337D01*
X106060529Y-26567422D01*
X106192086Y-26518354D01*
X106192093Y-26518350D01*
X106307187Y-26432190D01*
X106307190Y-26432187D01*
X106393350Y-26317093D01*
X106393354Y-26317086D01*
X106443596Y-26182379D01*
X106443598Y-26182372D01*
X106449999Y-26122844D01*
X106450000Y-26122827D01*
X106450000Y-25350000D01*
X105584144Y-25350000D01*
X105600000Y-25290826D01*
X105600000Y-25159174D01*
X105584144Y-25100000D01*
X106450000Y-25100000D01*
X106450000Y-24327172D01*
X106449999Y-24327155D01*
X106443598Y-24267627D01*
X106443596Y-24267620D01*
X106393354Y-24132913D01*
X106393350Y-24132906D01*
X106307190Y-24017812D01*
X106307187Y-24017809D01*
X106192093Y-23931649D01*
X106192086Y-23931645D01*
X106057379Y-23881403D01*
X106057372Y-23881401D01*
X105997844Y-23875000D01*
X105225000Y-23875000D01*
X105225000Y-24740855D01*
X105165826Y-24725000D01*
X105034174Y-24725000D01*
X104975000Y-24740855D01*
X104975000Y-23875000D01*
X104202155Y-23875000D01*
X104142627Y-23881401D01*
X104142620Y-23881403D01*
X104007913Y-23931645D01*
X104007906Y-23931649D01*
X103892812Y-24017809D01*
X103892809Y-24017812D01*
X103806649Y-24132906D01*
X103806645Y-24132913D01*
X103756403Y-24267620D01*
X103756401Y-24267627D01*
X103750000Y-24327155D01*
X103750000Y-25100000D01*
X104615856Y-25100000D01*
X104600000Y-25159174D01*
X104600000Y-25290826D01*
X104615856Y-25350000D01*
X103750000Y-25350000D01*
X103750000Y-26122844D01*
X103756401Y-26182372D01*
X103756403Y-26182379D01*
X103806645Y-26317086D01*
X103806649Y-26317093D01*
X103892809Y-26432187D01*
X103892812Y-26432190D01*
X104007906Y-26518350D01*
X104007913Y-26518354D01*
X104139470Y-26567421D01*
X104195403Y-26609292D01*
X104219821Y-26674756D01*
X104204970Y-26743029D01*
X104183819Y-26771284D01*
X104061503Y-26893600D01*
X104013874Y-26961623D01*
X103959297Y-27005248D01*
X103912299Y-27014500D01*
X98801987Y-27014500D01*
X98734948Y-26994815D01*
X98689193Y-26942011D01*
X98684281Y-26929504D01*
X98659814Y-26855666D01*
X98567712Y-26706344D01*
X98443656Y-26582288D01*
X98443653Y-26582285D01*
X98409401Y-26561158D01*
X98362678Y-26509210D01*
X98350500Y-26455621D01*
X98350500Y-24944377D01*
X98370185Y-24877338D01*
X98409406Y-24838837D01*
X98443656Y-24817712D01*
X98567712Y-24693656D01*
X98659814Y-24544334D01*
X98714999Y-24377797D01*
X98725500Y-24275009D01*
X98725499Y-22924992D01*
X98722225Y-22892946D01*
X98714999Y-22822203D01*
X98714998Y-22822200D01*
X98699523Y-22775500D01*
X98659814Y-22655666D01*
X98567712Y-22506344D01*
X98443656Y-22382288D01*
X98350888Y-22325069D01*
X98294336Y-22290187D01*
X98294331Y-22290185D01*
X98270671Y-22282345D01*
X98127797Y-22235001D01*
X98127795Y-22235000D01*
X98025010Y-22224500D01*
X97174998Y-22224500D01*
X97174980Y-22224501D01*
X97072203Y-22235000D01*
X97072200Y-22235001D01*
X96905668Y-22290185D01*
X96905663Y-22290187D01*
X96756342Y-22382289D01*
X96632289Y-22506342D01*
X96540187Y-22655663D01*
X96540185Y-22655668D01*
X96526421Y-22697205D01*
X96485001Y-22822203D01*
X96485001Y-22822204D01*
X96485000Y-22822204D01*
X96474500Y-22924983D01*
X96474500Y-24275001D01*
X96474501Y-24275018D01*
X96485000Y-24377796D01*
X96485001Y-24377799D01*
X96540185Y-24544331D01*
X96540187Y-24544336D01*
X96547024Y-24555421D01*
X96621065Y-24675461D01*
X96632289Y-24693657D01*
X96756345Y-24817713D01*
X96790594Y-24838837D01*
X96837320Y-24890784D01*
X96849500Y-24944377D01*
X96849500Y-26455621D01*
X96829815Y-26522660D01*
X96790599Y-26561158D01*
X96756346Y-26582285D01*
X96632289Y-26706342D01*
X96540187Y-26855663D01*
X96540185Y-26855668D01*
X96528037Y-26892328D01*
X96485001Y-27022203D01*
X96485001Y-27022204D01*
X96485000Y-27022204D01*
X96474500Y-27124983D01*
X96474500Y-28475001D01*
X96474501Y-28475018D01*
X96485000Y-28577796D01*
X96485001Y-28577799D01*
X96540185Y-28744331D01*
X96540187Y-28744336D01*
X96632289Y-28893657D01*
X96756345Y-29017713D01*
X96790594Y-29038837D01*
X96837320Y-29090784D01*
X96849500Y-29144377D01*
X96849500Y-30355621D01*
X96829815Y-30422660D01*
X96790599Y-30461158D01*
X96756346Y-30482285D01*
X96632289Y-30606342D01*
X96540187Y-30755663D01*
X96540186Y-30755666D01*
X96485001Y-30922203D01*
X96485001Y-30922204D01*
X96485000Y-30922204D01*
X96474500Y-31024983D01*
X96474500Y-32375001D01*
X96474501Y-32375018D01*
X96485000Y-32477796D01*
X96485001Y-32477799D01*
X96540185Y-32644331D01*
X96540187Y-32644336D01*
X96632289Y-32793657D01*
X96756345Y-32917713D01*
X96790594Y-32938837D01*
X96837320Y-32990784D01*
X96849500Y-33044377D01*
X96849500Y-40837770D01*
X96829815Y-40904809D01*
X96813181Y-40925451D01*
X91725451Y-46013181D01*
X91664128Y-46046666D01*
X91637770Y-46049500D01*
X46849500Y-46049500D01*
X46782461Y-46029815D01*
X46736706Y-45977011D01*
X46725500Y-45925500D01*
X46725500Y-43431057D01*
X46745185Y-43364018D01*
X46784401Y-43325520D01*
X46918656Y-43242712D01*
X47042712Y-43118656D01*
X47134814Y-42969334D01*
X47189999Y-42802797D01*
X47200500Y-42700009D01*
X47200499Y-41299992D01*
X47200498Y-41299983D01*
X47999500Y-41299983D01*
X47999500Y-42700001D01*
X47999501Y-42700018D01*
X48010000Y-42802796D01*
X48010001Y-42802799D01*
X48061279Y-42957544D01*
X48065186Y-42969334D01*
X48157288Y-43118656D01*
X48281344Y-43242712D01*
X48430666Y-43334814D01*
X48597203Y-43389999D01*
X48699991Y-43400500D01*
X49450008Y-43400499D01*
X49450016Y-43400498D01*
X49450019Y-43400498D01*
X49506302Y-43394748D01*
X49552797Y-43389999D01*
X49719334Y-43334814D01*
X49868656Y-43242712D01*
X49992712Y-43118656D01*
X50084814Y-42969334D01*
X50139999Y-42802797D01*
X50144900Y-42754825D01*
X50149286Y-42711897D01*
X50175683Y-42647205D01*
X50232864Y-42607054D01*
X50272644Y-42600500D01*
X52699903Y-42600500D01*
X52766942Y-42620185D01*
X52787584Y-42636819D01*
X54088181Y-43937417D01*
X54121666Y-43998740D01*
X54124500Y-44025098D01*
X54124500Y-44797870D01*
X54124501Y-44797876D01*
X54130908Y-44857483D01*
X54181202Y-44992328D01*
X54181206Y-44992335D01*
X54267452Y-45107544D01*
X54267455Y-45107547D01*
X54382664Y-45193793D01*
X54382671Y-45193797D01*
X54517517Y-45244091D01*
X54517516Y-45244091D01*
X54524444Y-45244835D01*
X54577127Y-45250500D01*
X57172872Y-45250499D01*
X57232483Y-45244091D01*
X57367331Y-45193796D01*
X57482546Y-45107546D01*
X57568796Y-44992331D01*
X57619091Y-44857483D01*
X57625500Y-44797873D01*
X57625500Y-44139999D01*
X80694785Y-44139999D01*
X80694785Y-44140000D01*
X80713602Y-44343082D01*
X80769417Y-44539247D01*
X80769422Y-44539260D01*
X80860327Y-44721821D01*
X80983237Y-44884581D01*
X81133958Y-45021980D01*
X81133960Y-45021982D01*
X81233141Y-45083392D01*
X81307363Y-45129348D01*
X81497544Y-45203024D01*
X81698024Y-45240500D01*
X81698026Y-45240500D01*
X81901974Y-45240500D01*
X81901976Y-45240500D01*
X82102456Y-45203024D01*
X82292637Y-45129348D01*
X82466041Y-45021981D01*
X82594122Y-44905219D01*
X82616762Y-44884581D01*
X82637227Y-44857482D01*
X82688358Y-44789773D01*
X82744467Y-44748137D01*
X82787312Y-44740500D01*
X88495549Y-44740500D01*
X88562588Y-44760185D01*
X88571033Y-44766123D01*
X88647159Y-44824536D01*
X88647162Y-44824537D01*
X88647163Y-44824538D01*
X88720198Y-44854790D01*
X88793238Y-44885044D01*
X88910639Y-44900500D01*
X89249360Y-44900499D01*
X89249363Y-44900499D01*
X89366755Y-44885045D01*
X89366755Y-44885044D01*
X89366762Y-44885044D01*
X89366767Y-44885041D01*
X89367900Y-44884739D01*
X89369085Y-44884738D01*
X89374821Y-44883984D01*
X89374920Y-44884738D01*
X89425080Y-44884737D01*
X89425180Y-44883983D01*
X89430907Y-44884737D01*
X89432091Y-44884737D01*
X89433234Y-44885043D01*
X89433236Y-44885043D01*
X89433238Y-44885044D01*
X89550639Y-44900500D01*
X89889360Y-44900499D01*
X89889363Y-44900499D01*
X90006753Y-44885046D01*
X90006757Y-44885044D01*
X90006762Y-44885044D01*
X90152841Y-44824536D01*
X90152845Y-44824532D01*
X90159876Y-44820474D01*
X90160882Y-44822216D01*
X90215932Y-44800931D01*
X90226257Y-44800500D01*
X91413331Y-44800500D01*
X91413347Y-44800501D01*
X91420943Y-44800501D01*
X91579054Y-44800501D01*
X91579057Y-44800501D01*
X91731785Y-44759577D01*
X91797180Y-44721821D01*
X91868716Y-44680520D01*
X91980520Y-44568716D01*
X91980520Y-44568714D01*
X91990724Y-44558511D01*
X91990727Y-44558506D01*
X95280520Y-41268716D01*
X95359577Y-41131784D01*
X95400501Y-40979057D01*
X95400501Y-40820942D01*
X95400501Y-40813347D01*
X95400500Y-40813329D01*
X95400500Y-33130448D01*
X95420185Y-33063409D01*
X95472989Y-33017654D01*
X95485488Y-33012744D01*
X95494334Y-33009814D01*
X95643656Y-32917712D01*
X95767712Y-32793656D01*
X95859814Y-32644334D01*
X95914999Y-32477797D01*
X95925500Y-32375009D01*
X95925499Y-31024992D01*
X95914999Y-30922203D01*
X95859814Y-30755666D01*
X95767712Y-30606344D01*
X95643656Y-30482288D01*
X95494334Y-30390186D01*
X95327797Y-30335001D01*
X95327795Y-30335000D01*
X95225010Y-30324500D01*
X94374998Y-30324500D01*
X94374980Y-30324501D01*
X94272203Y-30335000D01*
X94272200Y-30335001D01*
X94105668Y-30390185D01*
X94105663Y-30390187D01*
X93956342Y-30482289D01*
X93832289Y-30606342D01*
X93740187Y-30755663D01*
X93740186Y-30755666D01*
X93685001Y-30922203D01*
X93685001Y-30922204D01*
X93685000Y-30922204D01*
X93674500Y-31024983D01*
X93674500Y-32375001D01*
X93674501Y-32375018D01*
X93685000Y-32477796D01*
X93685001Y-32477799D01*
X93740185Y-32644331D01*
X93740186Y-32644334D01*
X93832288Y-32793656D01*
X93956344Y-32917712D01*
X94105666Y-33009814D01*
X94114498Y-33012740D01*
X94171944Y-33052508D01*
X94198771Y-33117022D01*
X94199500Y-33130448D01*
X94199500Y-40599902D01*
X94179815Y-40666941D01*
X94163181Y-40687583D01*
X91287584Y-43563181D01*
X91226261Y-43596666D01*
X91199903Y-43599500D01*
X90226257Y-43599500D01*
X90159218Y-43579815D01*
X90153900Y-43576075D01*
X90152836Y-43575461D01*
X90006765Y-43514957D01*
X90006760Y-43514955D01*
X89889361Y-43499500D01*
X89550636Y-43499500D01*
X89433234Y-43514955D01*
X89432083Y-43515264D01*
X89430891Y-43515264D01*
X89425179Y-43516016D01*
X89425080Y-43515264D01*
X89374919Y-43515264D01*
X89374820Y-43516017D01*
X89369107Y-43515264D01*
X89367917Y-43515265D01*
X89366765Y-43514956D01*
X89249361Y-43499500D01*
X88910636Y-43499500D01*
X88793246Y-43514953D01*
X88793237Y-43514956D01*
X88756772Y-43530061D01*
X88709319Y-43539500D01*
X82787312Y-43539500D01*
X82720273Y-43519815D01*
X82688358Y-43490227D01*
X82616762Y-43395418D01*
X82466041Y-43258019D01*
X82466039Y-43258017D01*
X82292642Y-43150655D01*
X82292635Y-43150651D01*
X82163176Y-43100499D01*
X82102456Y-43076976D01*
X81901976Y-43039500D01*
X81698024Y-43039500D01*
X81497544Y-43076976D01*
X81497541Y-43076976D01*
X81497541Y-43076977D01*
X81307364Y-43150651D01*
X81307357Y-43150655D01*
X81133960Y-43258017D01*
X81133958Y-43258019D01*
X80983237Y-43395418D01*
X80860327Y-43558178D01*
X80769422Y-43740739D01*
X80769417Y-43740752D01*
X80713602Y-43936917D01*
X80694785Y-44139999D01*
X57625500Y-44139999D01*
X57625499Y-42702128D01*
X57619091Y-42642517D01*
X57605864Y-42607054D01*
X57568797Y-42507671D01*
X57568793Y-42507664D01*
X57482547Y-42392455D01*
X57482544Y-42392452D01*
X57367335Y-42306206D01*
X57367328Y-42306202D01*
X57232482Y-42255908D01*
X57232483Y-42255908D01*
X57172883Y-42249501D01*
X57172881Y-42249500D01*
X57172873Y-42249500D01*
X57172864Y-42249500D01*
X54577129Y-42249500D01*
X54577123Y-42249501D01*
X54517516Y-42255908D01*
X54382671Y-42306202D01*
X54382664Y-42306206D01*
X54338733Y-42339093D01*
X54273269Y-42363510D01*
X54204996Y-42348658D01*
X54176742Y-42327507D01*
X53913989Y-42064754D01*
X53636819Y-41787583D01*
X53603334Y-41726260D01*
X53600500Y-41699902D01*
X53600500Y-27949098D01*
X53620185Y-27882059D01*
X53672989Y-27836304D01*
X53742147Y-27826360D01*
X53805703Y-27855385D01*
X53812181Y-27861417D01*
X53881284Y-27930520D01*
X53968095Y-27980639D01*
X53968097Y-27980641D01*
X54002334Y-28000408D01*
X54018215Y-28009577D01*
X54132597Y-28040226D01*
X54192255Y-28076589D01*
X54222784Y-28139435D01*
X54224501Y-28159999D01*
X54224501Y-28497876D01*
X54230908Y-28557483D01*
X54281202Y-28692328D01*
X54281206Y-28692335D01*
X54367452Y-28807544D01*
X54367455Y-28807547D01*
X54482664Y-28893793D01*
X54482671Y-28893797D01*
X54617517Y-28944091D01*
X54617516Y-28944091D01*
X54624444Y-28944835D01*
X54677127Y-28950500D01*
X57272872Y-28950499D01*
X57332483Y-28944091D01*
X57467331Y-28893796D01*
X57582546Y-28807546D01*
X57668796Y-28692331D01*
X57719091Y-28557483D01*
X57725500Y-28497873D01*
X57725499Y-26402128D01*
X57719091Y-26342517D01*
X57716631Y-26335922D01*
X57668797Y-26207671D01*
X57668793Y-26207664D01*
X57582547Y-26092455D01*
X57582544Y-26092452D01*
X57467335Y-26006206D01*
X57467328Y-26006202D01*
X57332482Y-25955908D01*
X57332483Y-25955908D01*
X57272883Y-25949501D01*
X57272881Y-25949500D01*
X57272873Y-25949500D01*
X57272864Y-25949500D01*
X54677129Y-25949500D01*
X54677123Y-25949501D01*
X54617516Y-25955908D01*
X54482671Y-26006202D01*
X54482664Y-26006206D01*
X54367455Y-26092452D01*
X54367452Y-26092455D01*
X54281206Y-26207664D01*
X54281202Y-26207671D01*
X54233368Y-26335922D01*
X54191497Y-26391856D01*
X54126032Y-26416273D01*
X54057759Y-26401421D01*
X54029505Y-26380270D01*
X53636819Y-25987584D01*
X53603334Y-25926261D01*
X53600500Y-25899903D01*
X53600500Y-12900096D01*
X53620185Y-12833057D01*
X53636815Y-12812419D01*
X54314721Y-12134512D01*
X54376042Y-12101029D01*
X54445733Y-12106013D01*
X54501667Y-12147884D01*
X54525690Y-12208940D01*
X54530909Y-12257483D01*
X54581202Y-12392328D01*
X54581206Y-12392335D01*
X54667452Y-12507544D01*
X54667455Y-12507547D01*
X54782664Y-12593793D01*
X54782671Y-12593797D01*
X54917517Y-12644091D01*
X54917516Y-12644091D01*
X54924444Y-12644835D01*
X54977127Y-12650500D01*
X57572872Y-12650499D01*
X57632483Y-12644091D01*
X57767331Y-12593796D01*
X57882546Y-12507546D01*
X57968796Y-12392331D01*
X58019091Y-12257483D01*
X58025500Y-12197873D01*
X58025499Y-10102128D01*
X58019091Y-10042517D01*
X57999260Y-9989348D01*
X57968797Y-9907671D01*
X57968793Y-9907664D01*
X57882547Y-9792455D01*
X57882544Y-9792452D01*
X57767335Y-9706206D01*
X57767328Y-9706202D01*
X57632482Y-9655908D01*
X57632483Y-9655908D01*
X57572883Y-9649501D01*
X57572881Y-9649500D01*
X57572873Y-9649500D01*
X57572864Y-9649500D01*
X54977129Y-9649500D01*
X54977123Y-9649501D01*
X54917516Y-9655908D01*
X54782671Y-9706202D01*
X54782664Y-9706206D01*
X54667455Y-9792452D01*
X54667452Y-9792455D01*
X54581206Y-9907664D01*
X54581202Y-9907671D01*
X54530908Y-10042517D01*
X54524675Y-10100500D01*
X54524501Y-10102123D01*
X54524500Y-10102135D01*
X54524500Y-10425499D01*
X54504815Y-10492538D01*
X54452011Y-10538293D01*
X54400500Y-10549499D01*
X54370943Y-10549499D01*
X54304059Y-10567421D01*
X54218214Y-10590423D01*
X54218209Y-10590426D01*
X54081290Y-10669475D01*
X54081282Y-10669481D01*
X52519481Y-12231282D01*
X52519475Y-12231290D01*
X52483443Y-12293701D01*
X52483443Y-12293703D01*
X52440423Y-12368214D01*
X52440423Y-12368215D01*
X52399499Y-12520943D01*
X52399499Y-12520945D01*
X52399499Y-12689046D01*
X52399500Y-12689059D01*
X52399500Y-26113330D01*
X52399499Y-26113348D01*
X52399499Y-26289046D01*
X52399500Y-26289059D01*
X52399500Y-41275500D01*
X52379815Y-41342539D01*
X52327011Y-41388294D01*
X52275500Y-41399500D01*
X50272643Y-41399500D01*
X50205604Y-41379815D01*
X50159849Y-41327011D01*
X50149285Y-41288102D01*
X50145657Y-41252596D01*
X50139999Y-41197203D01*
X50084814Y-41030666D01*
X49992712Y-40881344D01*
X49868656Y-40757288D01*
X49763343Y-40692331D01*
X49719336Y-40665187D01*
X49719331Y-40665185D01*
X49677320Y-40651264D01*
X49552797Y-40610001D01*
X49552795Y-40610000D01*
X49450010Y-40599500D01*
X48699998Y-40599500D01*
X48699980Y-40599501D01*
X48597203Y-40610000D01*
X48597200Y-40610001D01*
X48430668Y-40665185D01*
X48430663Y-40665187D01*
X48281342Y-40757289D01*
X48157289Y-40881342D01*
X48065187Y-41030663D01*
X48065186Y-41030666D01*
X48010001Y-41197203D01*
X48010001Y-41197204D01*
X48010000Y-41197204D01*
X47999500Y-41299983D01*
X47200498Y-41299983D01*
X47199284Y-41288102D01*
X47189999Y-41197203D01*
X47189998Y-41197200D01*
X47168323Y-41131790D01*
X47134814Y-41030666D01*
X47042712Y-40881344D01*
X46918656Y-40757288D01*
X46918655Y-40757287D01*
X46859402Y-40720739D01*
X46812678Y-40668791D01*
X46800500Y-40615201D01*
X46800500Y-27031629D01*
X46820185Y-26964590D01*
X46859226Y-26926200D01*
X46866041Y-26921981D01*
X46961404Y-26835046D01*
X47016762Y-26784581D01*
X47016766Y-26784576D01*
X47139673Y-26621821D01*
X47230582Y-26439250D01*
X47286397Y-26243083D01*
X47305215Y-26040000D01*
X47300024Y-25983984D01*
X47286397Y-25836917D01*
X47254553Y-25725000D01*
X47230582Y-25640750D01*
X47139673Y-25458179D01*
X47028256Y-25310639D01*
X47016762Y-25295418D01*
X46866041Y-25158019D01*
X46866039Y-25158017D01*
X46692642Y-25050655D01*
X46692635Y-25050651D01*
X46563176Y-25000499D01*
X46502456Y-24976976D01*
X46301976Y-24939500D01*
X46098024Y-24939500D01*
X45897544Y-24976976D01*
X45897541Y-24976976D01*
X45897541Y-24976977D01*
X45707364Y-25050651D01*
X45707357Y-25050655D01*
X45533960Y-25158017D01*
X45533958Y-25158019D01*
X45383237Y-25295418D01*
X45260325Y-25458181D01*
X45258718Y-25460777D01*
X45257625Y-25461756D01*
X45256872Y-25462754D01*
X45256676Y-25462606D01*
X45206691Y-25507413D01*
X45153291Y-25519500D01*
X40224499Y-25519500D01*
X40157460Y-25499815D01*
X40111705Y-25447011D01*
X40100499Y-25395500D01*
X40100499Y-25310636D01*
X40085046Y-25193246D01*
X40085044Y-25193239D01*
X40085044Y-25193238D01*
X40024536Y-25047159D01*
X40024534Y-25047156D01*
X40020472Y-25040119D01*
X40022213Y-25039113D01*
X40000930Y-24984057D01*
X40000500Y-24973742D01*
X40000500Y-24224500D01*
X40020185Y-24157461D01*
X40072989Y-24111706D01*
X40124500Y-24100500D01*
X42672688Y-24100500D01*
X42739727Y-24120185D01*
X42771642Y-24149773D01*
X42843237Y-24244581D01*
X42993958Y-24381980D01*
X42993960Y-24381982D01*
X43052159Y-24418017D01*
X43167363Y-24489348D01*
X43357544Y-24563024D01*
X43558024Y-24600500D01*
X43558026Y-24600500D01*
X43761974Y-24600500D01*
X43761976Y-24600500D01*
X43962456Y-24563024D01*
X44152637Y-24489348D01*
X44326041Y-24381981D01*
X44462610Y-24257482D01*
X44476762Y-24244581D01*
X44476764Y-24244579D01*
X44599673Y-24081821D01*
X44690582Y-23899250D01*
X44746397Y-23703083D01*
X44765215Y-23500000D01*
X44746397Y-23296917D01*
X44690582Y-23100750D01*
X44599673Y-22918179D01*
X44510427Y-22799998D01*
X44476762Y-22755418D01*
X44326041Y-22618019D01*
X44326039Y-22618017D01*
X44152642Y-22510655D01*
X44152635Y-22510651D01*
X44001586Y-22452135D01*
X43962456Y-22436976D01*
X43761976Y-22399500D01*
X43558024Y-22399500D01*
X43357544Y-22436976D01*
X43357541Y-22436976D01*
X43357541Y-22436977D01*
X43167364Y-22510651D01*
X43167357Y-22510655D01*
X42993960Y-22618017D01*
X42993958Y-22618019D01*
X42843237Y-22755418D01*
X42771642Y-22850227D01*
X42715533Y-22891863D01*
X42672688Y-22899500D01*
X39086669Y-22899500D01*
X39086653Y-22899499D01*
X39079057Y-22899499D01*
X38920943Y-22899499D01*
X38913347Y-22899499D01*
X38913331Y-22899500D01*
X37872643Y-22899500D01*
X37805604Y-22879815D01*
X37759849Y-22827011D01*
X37749285Y-22788102D01*
X37745657Y-22752596D01*
X37739999Y-22697203D01*
X37684814Y-22530666D01*
X37592712Y-22381344D01*
X37468656Y-22257288D01*
X37343146Y-22179873D01*
X37319336Y-22165187D01*
X37319331Y-22165185D01*
X37317862Y-22164698D01*
X37152797Y-22110001D01*
X37152795Y-22110000D01*
X37050010Y-22099500D01*
X36299998Y-22099500D01*
X36299980Y-22099501D01*
X36197203Y-22110000D01*
X36197200Y-22110001D01*
X36030668Y-22165185D01*
X36030663Y-22165187D01*
X35881342Y-22257289D01*
X35757289Y-22381342D01*
X35665187Y-22530663D01*
X35665186Y-22530666D01*
X35610001Y-22697203D01*
X35610001Y-22697204D01*
X35610000Y-22697204D01*
X35599500Y-22799983D01*
X34800498Y-22799983D01*
X34799284Y-22788102D01*
X34789999Y-22697203D01*
X34789998Y-22697200D01*
X34734814Y-22530666D01*
X34642712Y-22381344D01*
X34518656Y-22257288D01*
X34393146Y-22179873D01*
X34369336Y-22165187D01*
X34369331Y-22165185D01*
X34367862Y-22164698D01*
X34202797Y-22110001D01*
X34202795Y-22110000D01*
X34100010Y-22099500D01*
X33349998Y-22099500D01*
X33349980Y-22099501D01*
X33247203Y-22110000D01*
X33247200Y-22110001D01*
X33080668Y-22165185D01*
X33080663Y-22165187D01*
X32931342Y-22257289D01*
X32807289Y-22381342D01*
X32715187Y-22530663D01*
X32715186Y-22530666D01*
X32660002Y-22697202D01*
X32660001Y-22697204D01*
X32660000Y-22697205D01*
X32650714Y-22788103D01*
X32624317Y-22852795D01*
X32567136Y-22892946D01*
X32527356Y-22899500D01*
X32099499Y-22899500D01*
X32032460Y-22879815D01*
X31986705Y-22827011D01*
X31975499Y-22775500D01*
X31975499Y-22452129D01*
X31975498Y-22452123D01*
X31975497Y-22452116D01*
X31969091Y-22392517D01*
X31965276Y-22382289D01*
X31918797Y-22257671D01*
X31918793Y-22257664D01*
X31832547Y-22142455D01*
X31832544Y-22142452D01*
X31717335Y-22056206D01*
X31717328Y-22056202D01*
X31582482Y-22005908D01*
X31582483Y-22005908D01*
X31522883Y-21999501D01*
X31522881Y-21999500D01*
X31522873Y-21999500D01*
X31522864Y-21999500D01*
X28927129Y-21999500D01*
X28927123Y-21999501D01*
X28867516Y-22005908D01*
X28732671Y-22056202D01*
X28732664Y-22056206D01*
X28617455Y-22142452D01*
X28617452Y-22142455D01*
X28531206Y-22257664D01*
X28531202Y-22257671D01*
X28480908Y-22392517D01*
X28474501Y-22452116D01*
X28474501Y-22452123D01*
X28474500Y-22452135D01*
X23319666Y-22452135D01*
X23325500Y-22397873D01*
X23325499Y-20302128D01*
X23319091Y-20242517D01*
X23306776Y-20209500D01*
X23268797Y-20107671D01*
X23268793Y-20107664D01*
X23182547Y-19992455D01*
X23182544Y-19992452D01*
X23067335Y-19906206D01*
X23067328Y-19906202D01*
X22932482Y-19855908D01*
X22932483Y-19855908D01*
X22872883Y-19849501D01*
X22872881Y-19849500D01*
X22872873Y-19849500D01*
X22872864Y-19849500D01*
X20277129Y-19849500D01*
X20277123Y-19849501D01*
X20217516Y-19855908D01*
X20082671Y-19906202D01*
X20082664Y-19906206D01*
X19967455Y-19992452D01*
X19913747Y-20064196D01*
X19857813Y-20106067D01*
X19788121Y-20111050D01*
X19726800Y-20077565D01*
X18587590Y-18938355D01*
X18587588Y-18938352D01*
X18468717Y-18819481D01*
X18468716Y-18819480D01*
X18381904Y-18769360D01*
X18381904Y-18769359D01*
X18381900Y-18769358D01*
X18331785Y-18740423D01*
X18179057Y-18699499D01*
X18179054Y-18699499D01*
X18126256Y-18699499D01*
X18059217Y-18679814D01*
X18053897Y-18676074D01*
X18052836Y-18675461D01*
X17906765Y-18614957D01*
X17906760Y-18614955D01*
X17789362Y-18599500D01*
X17661229Y-18599500D01*
X17594190Y-18579815D01*
X17548435Y-18527011D01*
X17538491Y-18457853D01*
X17567516Y-18394297D01*
X17573580Y-18387787D01*
X17574593Y-18386775D01*
X17635932Y-18353321D01*
X17662230Y-18350500D01*
X37637770Y-18350500D01*
X37704809Y-18370185D01*
X37725451Y-18386819D01*
X39267787Y-19929154D01*
X40777049Y-21438416D01*
X40881584Y-21542951D01*
X40881587Y-21542953D01*
X40881588Y-21542954D01*
X41004494Y-21625077D01*
X41004496Y-21625078D01*
X41004505Y-21625084D01*
X41020683Y-21631785D01*
X41141088Y-21681659D01*
X41257241Y-21704763D01*
X41276468Y-21708587D01*
X41286081Y-21710500D01*
X41286082Y-21710500D01*
X41286083Y-21710500D01*
X41433918Y-21710500D01*
X45176487Y-21710500D01*
X45243526Y-21730185D01*
X45276805Y-21761614D01*
X45308655Y-21805451D01*
X45360586Y-21876928D01*
X45483072Y-21999414D01*
X45623212Y-22101232D01*
X45777555Y-22179873D01*
X45942299Y-22233402D01*
X46113389Y-22260500D01*
X46113390Y-22260500D01*
X46286610Y-22260500D01*
X46286611Y-22260500D01*
X46457701Y-22233402D01*
X46622445Y-22179873D01*
X46776788Y-22101232D01*
X46916928Y-21999414D01*
X47039414Y-21876928D01*
X47141232Y-21736788D01*
X47219873Y-21582445D01*
X47273402Y-21417701D01*
X47300500Y-21246611D01*
X47300500Y-20673389D01*
X47273402Y-20502299D01*
X47219873Y-20337555D01*
X47141232Y-20183212D01*
X47039414Y-20043072D01*
X46986819Y-19990477D01*
X46953334Y-19929154D01*
X46950500Y-19902796D01*
X46950500Y-13217962D01*
X46970185Y-13150923D01*
X47022989Y-13105168D01*
X47042399Y-13098189D01*
X47263663Y-13038903D01*
X47477830Y-12939035D01*
X47671401Y-12803495D01*
X47838495Y-12636401D01*
X47886127Y-12568376D01*
X47940704Y-12524751D01*
X47987701Y-12515500D01*
X48308920Y-12515500D01*
X48406462Y-12496096D01*
X48453913Y-12486658D01*
X48590495Y-12430084D01*
X48639729Y-12397186D01*
X48646990Y-12392335D01*
X48683090Y-12368214D01*
X48713416Y-12347952D01*
X53424548Y-7636818D01*
X53485871Y-7603334D01*
X53512229Y-7600500D01*
X54400501Y-7600500D01*
X54467540Y-7620185D01*
X54513295Y-7672989D01*
X54524501Y-7724500D01*
X54524501Y-7897876D01*
X54530908Y-7957483D01*
X54581202Y-8092328D01*
X54581206Y-8092335D01*
X54667452Y-8207544D01*
X54667455Y-8207547D01*
X54782664Y-8293793D01*
X54782671Y-8293797D01*
X54917517Y-8344091D01*
X54917516Y-8344091D01*
X54924444Y-8344835D01*
X54977127Y-8350500D01*
X57572872Y-8350499D01*
X57632483Y-8344091D01*
X57767331Y-8293796D01*
X57882546Y-8207546D01*
X57968796Y-8092331D01*
X58019091Y-7957483D01*
X58025500Y-7897873D01*
X58025500Y-7334500D01*
X58045185Y-7267461D01*
X58097989Y-7221706D01*
X58149500Y-7210500D01*
X60645500Y-7210500D01*
X60712539Y-7230185D01*
X60758294Y-7282989D01*
X60769500Y-7334500D01*
X60769500Y-21717770D01*
X60749815Y-21784809D01*
X60733181Y-21805451D01*
X60175451Y-22363181D01*
X60114128Y-22396666D01*
X60087770Y-22399500D01*
X57849499Y-22399500D01*
X57782460Y-22379815D01*
X57736705Y-22327011D01*
X57725499Y-22275500D01*
X57725499Y-22102129D01*
X57725498Y-22102123D01*
X57725497Y-22102116D01*
X57719091Y-22042517D01*
X57696971Y-21983211D01*
X57668797Y-21907671D01*
X57668793Y-21907664D01*
X57582547Y-21792455D01*
X57582544Y-21792452D01*
X57467335Y-21706206D01*
X57467328Y-21706202D01*
X57332482Y-21655908D01*
X57332483Y-21655908D01*
X57272883Y-21649501D01*
X57272881Y-21649500D01*
X57272873Y-21649500D01*
X57272864Y-21649500D01*
X54677129Y-21649500D01*
X54677123Y-21649501D01*
X54617516Y-21655908D01*
X54482671Y-21706202D01*
X54482664Y-21706206D01*
X54367455Y-21792452D01*
X54367452Y-21792455D01*
X54281206Y-21907664D01*
X54281202Y-21907671D01*
X54230908Y-22042517D01*
X54224782Y-22099500D01*
X54224501Y-22102123D01*
X54224500Y-22102135D01*
X54224500Y-24197870D01*
X54224501Y-24197876D01*
X54230908Y-24257483D01*
X54281202Y-24392328D01*
X54281206Y-24392335D01*
X54367452Y-24507544D01*
X54367455Y-24507547D01*
X54482664Y-24593793D01*
X54482671Y-24593797D01*
X54617517Y-24644091D01*
X54617516Y-24644091D01*
X54624444Y-24644835D01*
X54677127Y-24650500D01*
X57272872Y-24650499D01*
X57332483Y-24644091D01*
X57467331Y-24593796D01*
X57582546Y-24507546D01*
X57668796Y-24392331D01*
X57719091Y-24257483D01*
X57725500Y-24197873D01*
X57725500Y-24024500D01*
X57745185Y-23957461D01*
X57797989Y-23911706D01*
X57849500Y-23900500D01*
X60523919Y-23900500D01*
X60546674Y-23895973D01*
X60621309Y-23881127D01*
X60690899Y-23887354D01*
X60746077Y-23930216D01*
X60769322Y-23996105D01*
X60769500Y-24002744D01*
X60769500Y-37817770D01*
X60749815Y-37884809D01*
X60733181Y-37905451D01*
X59975451Y-38663181D01*
X59914128Y-38696666D01*
X59887770Y-38699500D01*
X57749499Y-38699500D01*
X57682460Y-38679815D01*
X57636705Y-38627011D01*
X57625499Y-38575500D01*
X57625499Y-38402129D01*
X57625498Y-38402123D01*
X57625497Y-38402116D01*
X57619091Y-38342517D01*
X57596971Y-38283211D01*
X57568797Y-38207671D01*
X57568793Y-38207664D01*
X57482547Y-38092455D01*
X57482544Y-38092452D01*
X57367335Y-38006206D01*
X57367328Y-38006202D01*
X57232482Y-37955908D01*
X57232483Y-37955908D01*
X57172883Y-37949501D01*
X57172881Y-37949500D01*
X57172873Y-37949500D01*
X57172864Y-37949500D01*
X54577129Y-37949500D01*
X54577123Y-37949501D01*
X54517516Y-37955908D01*
X54382671Y-38006202D01*
X54382664Y-38006206D01*
X54267455Y-38092452D01*
X54267452Y-38092455D01*
X54181206Y-38207664D01*
X54181202Y-38207671D01*
X54130908Y-38342517D01*
X54124501Y-38402116D01*
X54124501Y-38402123D01*
X54124500Y-38402135D01*
X54124500Y-40497870D01*
X54124501Y-40497876D01*
X54130908Y-40557483D01*
X54181202Y-40692328D01*
X54181206Y-40692335D01*
X54267452Y-40807544D01*
X54267455Y-40807547D01*
X54382664Y-40893793D01*
X54382671Y-40893797D01*
X54517517Y-40944091D01*
X54517516Y-40944091D01*
X54524444Y-40944835D01*
X54577127Y-40950500D01*
X57172872Y-40950499D01*
X57232483Y-40944091D01*
X57367331Y-40893796D01*
X57482546Y-40807546D01*
X57568796Y-40692331D01*
X57619091Y-40557483D01*
X57625500Y-40497873D01*
X57625500Y-40324500D01*
X57645185Y-40257461D01*
X57697989Y-40211706D01*
X57749500Y-40200500D01*
X60323920Y-40200500D01*
X60421462Y-40181096D01*
X60468913Y-40171658D01*
X60605495Y-40115084D01*
X60654729Y-40082186D01*
X60728416Y-40032952D01*
X61494548Y-39266818D01*
X61555871Y-39233334D01*
X61582229Y-39230500D01*
X68483006Y-39230500D01*
X68550045Y-39250185D01*
X68595800Y-39302989D01*
X68605945Y-39338316D01*
X68614954Y-39406753D01*
X68614957Y-39406765D01*
X68675461Y-39552836D01*
X68679526Y-39559876D01*
X68677783Y-39560882D01*
X68699069Y-39615932D01*
X68699500Y-39626257D01*
X68699500Y-40775500D01*
X68679815Y-40842539D01*
X68627011Y-40888294D01*
X68575502Y-40899500D01*
X68510637Y-40899500D01*
X68393246Y-40914953D01*
X68393234Y-40914957D01*
X68247163Y-40975461D01*
X68240124Y-40979526D01*
X68239117Y-40977783D01*
X68184068Y-40999069D01*
X68173743Y-40999500D01*
X66399499Y-40999500D01*
X66332460Y-40979815D01*
X66286705Y-40927011D01*
X66275499Y-40875500D01*
X66275499Y-40552129D01*
X66275498Y-40552123D01*
X66275497Y-40552116D01*
X66269091Y-40492517D01*
X66218796Y-40357669D01*
X66218795Y-40357668D01*
X66218793Y-40357664D01*
X66132547Y-40242455D01*
X66132544Y-40242452D01*
X66017335Y-40156206D01*
X66017328Y-40156202D01*
X65882482Y-40105908D01*
X65882483Y-40105908D01*
X65822883Y-40099501D01*
X65822881Y-40099500D01*
X65822873Y-40099500D01*
X65822864Y-40099500D01*
X63227129Y-40099500D01*
X63227123Y-40099501D01*
X63167516Y-40105908D01*
X63032671Y-40156202D01*
X63032664Y-40156206D01*
X62917455Y-40242452D01*
X62917452Y-40242455D01*
X62831206Y-40357664D01*
X62831202Y-40357671D01*
X62780908Y-40492517D01*
X62774501Y-40552116D01*
X62774501Y-40552123D01*
X62774500Y-40552135D01*
X62774500Y-42647870D01*
X62774501Y-42647876D01*
X62780908Y-42707483D01*
X62831202Y-42842328D01*
X62831206Y-42842335D01*
X62917452Y-42957544D01*
X62917455Y-42957547D01*
X63032664Y-43043793D01*
X63032671Y-43043797D01*
X63167517Y-43094091D01*
X63167516Y-43094091D01*
X63174444Y-43094835D01*
X63227127Y-43100500D01*
X65822872Y-43100499D01*
X65882483Y-43094091D01*
X66017331Y-43043796D01*
X66132546Y-42957546D01*
X66218796Y-42842331D01*
X66269091Y-42707483D01*
X66275500Y-42647873D01*
X66275500Y-42324500D01*
X66295185Y-42257461D01*
X66347989Y-42211706D01*
X66399500Y-42200500D01*
X68173743Y-42200500D01*
X68240782Y-42220185D01*
X68246099Y-42223924D01*
X68247157Y-42224534D01*
X68247159Y-42224536D01*
X68247160Y-42224536D01*
X68247163Y-42224538D01*
X68307427Y-42249500D01*
X68393238Y-42285044D01*
X68510639Y-42300500D01*
X68849360Y-42300499D01*
X68849363Y-42300499D01*
X68966755Y-42285045D01*
X68966755Y-42285044D01*
X68966762Y-42285044D01*
X68966767Y-42285041D01*
X68967900Y-42284739D01*
X68969085Y-42284738D01*
X68974821Y-42283984D01*
X68974920Y-42284738D01*
X69025080Y-42284737D01*
X69025180Y-42283983D01*
X69030907Y-42284737D01*
X69032091Y-42284737D01*
X69033234Y-42285043D01*
X69033236Y-42285043D01*
X69033238Y-42285044D01*
X69150639Y-42300500D01*
X69489360Y-42300499D01*
X69489363Y-42300499D01*
X69606753Y-42285046D01*
X69606757Y-42285044D01*
X69606762Y-42285044D01*
X69752841Y-42224536D01*
X69752845Y-42224532D01*
X69759876Y-42220474D01*
X69760882Y-42222216D01*
X69815932Y-42200931D01*
X69826257Y-42200500D01*
X70473743Y-42200500D01*
X70540782Y-42220185D01*
X70546099Y-42223924D01*
X70547157Y-42224534D01*
X70547159Y-42224536D01*
X70547160Y-42224536D01*
X70547163Y-42224538D01*
X70607427Y-42249500D01*
X70693238Y-42285044D01*
X70810639Y-42300500D01*
X71149360Y-42300499D01*
X71149363Y-42300499D01*
X71266755Y-42285045D01*
X71266755Y-42285044D01*
X71266762Y-42285044D01*
X71266767Y-42285041D01*
X71267900Y-42284739D01*
X71269085Y-42284738D01*
X71274821Y-42283984D01*
X71274920Y-42284738D01*
X71325080Y-42284737D01*
X71325180Y-42283983D01*
X71330907Y-42284737D01*
X71332091Y-42284737D01*
X71333234Y-42285043D01*
X71333236Y-42285043D01*
X71333238Y-42285044D01*
X71450639Y-42300500D01*
X71789360Y-42300499D01*
X71789363Y-42300499D01*
X71906753Y-42285046D01*
X71906757Y-42285044D01*
X71906762Y-42285044D01*
X72052841Y-42224536D01*
X72052845Y-42224532D01*
X72059876Y-42220474D01*
X72060882Y-42222216D01*
X72115932Y-42200931D01*
X72126257Y-42200500D01*
X78272688Y-42200500D01*
X78339727Y-42220185D01*
X78371642Y-42249773D01*
X78443237Y-42344581D01*
X78593958Y-42481980D01*
X78593960Y-42481982D01*
X78682395Y-42536738D01*
X78767363Y-42589348D01*
X78957544Y-42663024D01*
X79158024Y-42700500D01*
X79158026Y-42700500D01*
X79361974Y-42700500D01*
X79361976Y-42700500D01*
X79562456Y-42663024D01*
X79752637Y-42589348D01*
X79926041Y-42481981D01*
X80076764Y-42344579D01*
X80199673Y-42181821D01*
X80290582Y-41999250D01*
X80346397Y-41803083D01*
X80365215Y-41600000D01*
X80346397Y-41396917D01*
X80290582Y-41200750D01*
X80288816Y-41197204D01*
X80246272Y-41111764D01*
X80199673Y-41018179D01*
X80121955Y-40915264D01*
X80076762Y-40855418D01*
X79926041Y-40718019D01*
X79926039Y-40718017D01*
X79752642Y-40610655D01*
X79752635Y-40610651D01*
X79601586Y-40552135D01*
X79562456Y-40536976D01*
X79361976Y-40499500D01*
X79158024Y-40499500D01*
X78957544Y-40536976D01*
X78957541Y-40536976D01*
X78957541Y-40536977D01*
X78767364Y-40610651D01*
X78767357Y-40610655D01*
X78593960Y-40718017D01*
X78593958Y-40718019D01*
X78443237Y-40855418D01*
X78371642Y-40950227D01*
X78315533Y-40991863D01*
X78272688Y-40999500D01*
X72126257Y-40999500D01*
X72059218Y-40979815D01*
X72053900Y-40976075D01*
X72052836Y-40975461D01*
X71906765Y-40914957D01*
X71906760Y-40914955D01*
X71789361Y-40899500D01*
X71450636Y-40899500D01*
X71333234Y-40914955D01*
X71332083Y-40915264D01*
X71330891Y-40915264D01*
X71325179Y-40916016D01*
X71325080Y-40915264D01*
X71274919Y-40915264D01*
X71274820Y-40916017D01*
X71269107Y-40915264D01*
X71267917Y-40915265D01*
X71266765Y-40914956D01*
X71149361Y-40899500D01*
X70810636Y-40899500D01*
X70693246Y-40914953D01*
X70693234Y-40914957D01*
X70547163Y-40975461D01*
X70540124Y-40979526D01*
X70539117Y-40977783D01*
X70484068Y-40999069D01*
X70473743Y-40999500D01*
X70024500Y-40999500D01*
X69957461Y-40979815D01*
X69911706Y-40927011D01*
X69900500Y-40875500D01*
X69900500Y-39626257D01*
X69920185Y-39559218D01*
X69923924Y-39553900D01*
X69924532Y-39552845D01*
X69924536Y-39552841D01*
X69985044Y-39406762D01*
X69994055Y-39338314D01*
X70022321Y-39274418D01*
X70080646Y-39235947D01*
X70116994Y-39230500D01*
X80575738Y-39230500D01*
X80642777Y-39250185D01*
X80688532Y-39302989D01*
X80698591Y-39341822D01*
X80698738Y-39341799D01*
X80698977Y-39343310D01*
X80699356Y-39344772D01*
X80699501Y-39346618D01*
X80709026Y-39406760D01*
X80726598Y-39517701D01*
X80780127Y-39682445D01*
X80858768Y-39836788D01*
X80960586Y-39976928D01*
X81083072Y-40099414D01*
X81223212Y-40201232D01*
X81377555Y-40279873D01*
X81542299Y-40333402D01*
X81713389Y-40360500D01*
X81713390Y-40360500D01*
X81886610Y-40360500D01*
X81886611Y-40360500D01*
X82057701Y-40333402D01*
X82222445Y-40279873D01*
X82376788Y-40201232D01*
X82516928Y-40099414D01*
X82639414Y-39976928D01*
X82741232Y-39836788D01*
X82819873Y-39682445D01*
X82873402Y-39517701D01*
X82900500Y-39346611D01*
X82900500Y-38773389D01*
X82873402Y-38602299D01*
X82819873Y-38437555D01*
X82741232Y-38283212D01*
X82639414Y-38143072D01*
X82516928Y-38020586D01*
X82376788Y-37918768D01*
X82222445Y-37840127D01*
X82057701Y-37786598D01*
X82057699Y-37786597D01*
X82057698Y-37786597D01*
X81926271Y-37765781D01*
X81886611Y-37759500D01*
X81713389Y-37759500D01*
X81551398Y-37785156D01*
X81484551Y-37777245D01*
X81438913Y-37758342D01*
X81438906Y-37758340D01*
X81293920Y-37729500D01*
X81293918Y-37729500D01*
X69373918Y-37729500D01*
X62394500Y-37729500D01*
X62327461Y-37709815D01*
X62281706Y-37657011D01*
X62270500Y-37605500D01*
X62270500Y-27839999D01*
X82494785Y-27839999D01*
X82494785Y-27840000D01*
X82513602Y-28043082D01*
X82569417Y-28239247D01*
X82569422Y-28239260D01*
X82660327Y-28421821D01*
X82783237Y-28584581D01*
X82933958Y-28721980D01*
X82933960Y-28721982D01*
X83033141Y-28783392D01*
X83107363Y-28829348D01*
X83297544Y-28903024D01*
X83498024Y-28940500D01*
X83498026Y-28940500D01*
X83701974Y-28940500D01*
X83701976Y-28940500D01*
X83902456Y-28903024D01*
X84092637Y-28829348D01*
X84266041Y-28721981D01*
X84416764Y-28584579D01*
X84488358Y-28489773D01*
X84544467Y-28448137D01*
X84587312Y-28440500D01*
X90461034Y-28440500D01*
X90508486Y-28449939D01*
X90550623Y-28467392D01*
X90593238Y-28485044D01*
X90710639Y-28500500D01*
X91049360Y-28500499D01*
X91049363Y-28500499D01*
X91166755Y-28485045D01*
X91166755Y-28485044D01*
X91166762Y-28485044D01*
X91166767Y-28485041D01*
X91167900Y-28484739D01*
X91169085Y-28484738D01*
X91174821Y-28483984D01*
X91174920Y-28484738D01*
X91225080Y-28484737D01*
X91225180Y-28483983D01*
X91230907Y-28484737D01*
X91232091Y-28484737D01*
X91233234Y-28485043D01*
X91233236Y-28485043D01*
X91233238Y-28485044D01*
X91350639Y-28500500D01*
X91689360Y-28500499D01*
X91689363Y-28500499D01*
X91806753Y-28485046D01*
X91806757Y-28485044D01*
X91806762Y-28485044D01*
X91952841Y-28424536D01*
X91952845Y-28424532D01*
X91959876Y-28420474D01*
X91960882Y-28422216D01*
X92015932Y-28400931D01*
X92026257Y-28400500D01*
X93554911Y-28400500D01*
X93621950Y-28420185D01*
X93667705Y-28472989D01*
X93678269Y-28511898D01*
X93685001Y-28577797D01*
X93685001Y-28577799D01*
X93716681Y-28673402D01*
X93740186Y-28744334D01*
X93832288Y-28893656D01*
X93956344Y-29017712D01*
X94105666Y-29109814D01*
X94272203Y-29164999D01*
X94374991Y-29175500D01*
X95225008Y-29175499D01*
X95225016Y-29175498D01*
X95225019Y-29175498D01*
X95281302Y-29169748D01*
X95327797Y-29164999D01*
X95494334Y-29109814D01*
X95643656Y-29017712D01*
X95767712Y-28893656D01*
X95859814Y-28744334D01*
X95914999Y-28577797D01*
X95925500Y-28475009D01*
X95925499Y-27124992D01*
X95914999Y-27022203D01*
X95859814Y-26855666D01*
X95767712Y-26706344D01*
X95643656Y-26582288D01*
X95525177Y-26509210D01*
X95494336Y-26490187D01*
X95494331Y-26490185D01*
X95492862Y-26489698D01*
X95327797Y-26435001D01*
X95327795Y-26435000D01*
X95225010Y-26424500D01*
X94374998Y-26424500D01*
X94374980Y-26424501D01*
X94272203Y-26435000D01*
X94272200Y-26435001D01*
X94105668Y-26490185D01*
X94105663Y-26490187D01*
X93956342Y-26582289D01*
X93832289Y-26706342D01*
X93740187Y-26855663D01*
X93740185Y-26855668D01*
X93728037Y-26892328D01*
X93690620Y-27005248D01*
X93685001Y-27022204D01*
X93685000Y-27022205D01*
X93678268Y-27088103D01*
X93651871Y-27152795D01*
X93594690Y-27192946D01*
X93554910Y-27199500D01*
X92026257Y-27199500D01*
X91959218Y-27179815D01*
X91953900Y-27176075D01*
X91952836Y-27175461D01*
X91806765Y-27114957D01*
X91806760Y-27114955D01*
X91689361Y-27099500D01*
X91350636Y-27099500D01*
X91233234Y-27114955D01*
X91232083Y-27115264D01*
X91230891Y-27115264D01*
X91225179Y-27116016D01*
X91225080Y-27115264D01*
X91174919Y-27115264D01*
X91174820Y-27116017D01*
X91169107Y-27115264D01*
X91167917Y-27115265D01*
X91166765Y-27114956D01*
X91049361Y-27099500D01*
X90710636Y-27099500D01*
X90593246Y-27114953D01*
X90593237Y-27114956D01*
X90447157Y-27175464D01*
X90397099Y-27213876D01*
X90331930Y-27239070D01*
X90321613Y-27239500D01*
X84587312Y-27239500D01*
X84520273Y-27219815D01*
X84488358Y-27190227D01*
X84416762Y-27095418D01*
X84266041Y-26958019D01*
X84266039Y-26958017D01*
X84092642Y-26850655D01*
X84092635Y-26850651D01*
X83963176Y-26800499D01*
X83902456Y-26776976D01*
X83701976Y-26739500D01*
X83498024Y-26739500D01*
X83297544Y-26776976D01*
X83297541Y-26776976D01*
X83297541Y-26776977D01*
X83107364Y-26850651D01*
X83107357Y-26850655D01*
X82933960Y-26958017D01*
X82933958Y-26958019D01*
X82783237Y-27095418D01*
X82660327Y-27258178D01*
X82569422Y-27440739D01*
X82569417Y-27440752D01*
X82513602Y-27636917D01*
X82494785Y-27839999D01*
X62270500Y-27839999D01*
X62270500Y-22954500D01*
X62290185Y-22887461D01*
X62342989Y-22841706D01*
X62394500Y-22830500D01*
X70983006Y-22830500D01*
X71050045Y-22850185D01*
X71095800Y-22902989D01*
X71105945Y-22938316D01*
X71114954Y-23006753D01*
X71114957Y-23006765D01*
X71175461Y-23152836D01*
X71179526Y-23159876D01*
X71177783Y-23160882D01*
X71199069Y-23215932D01*
X71199500Y-23226257D01*
X71199500Y-24575500D01*
X71179815Y-24642539D01*
X71127011Y-24688294D01*
X71075500Y-24699500D01*
X70126257Y-24699500D01*
X70059218Y-24679815D01*
X70053900Y-24676075D01*
X70052836Y-24675461D01*
X69906765Y-24614957D01*
X69906760Y-24614955D01*
X69789361Y-24599500D01*
X69450636Y-24599500D01*
X69333234Y-24614955D01*
X69332083Y-24615264D01*
X69330891Y-24615264D01*
X69325179Y-24616016D01*
X69325080Y-24615264D01*
X69274919Y-24615264D01*
X69274820Y-24616017D01*
X69269107Y-24615264D01*
X69267917Y-24615265D01*
X69266765Y-24614956D01*
X69149361Y-24599500D01*
X68810636Y-24599500D01*
X68693246Y-24614953D01*
X68693234Y-24614957D01*
X68547163Y-24675461D01*
X68540124Y-24679526D01*
X68539117Y-24677783D01*
X68484068Y-24699069D01*
X68473743Y-24699500D01*
X66499499Y-24699500D01*
X66432460Y-24679815D01*
X66386705Y-24627011D01*
X66375499Y-24575500D01*
X66375499Y-24252129D01*
X66375498Y-24252123D01*
X66375497Y-24252116D01*
X66369091Y-24192517D01*
X66352761Y-24148735D01*
X66318797Y-24057671D01*
X66318793Y-24057664D01*
X66232547Y-23942455D01*
X66232544Y-23942452D01*
X66117335Y-23856206D01*
X66117328Y-23856202D01*
X65982482Y-23805908D01*
X65982483Y-23805908D01*
X65922883Y-23799501D01*
X65922881Y-23799500D01*
X65922873Y-23799500D01*
X65922864Y-23799500D01*
X63327129Y-23799500D01*
X63327123Y-23799501D01*
X63267516Y-23805908D01*
X63132671Y-23856202D01*
X63132664Y-23856206D01*
X63017455Y-23942452D01*
X63017452Y-23942455D01*
X62931206Y-24057664D01*
X62931202Y-24057671D01*
X62880908Y-24192517D01*
X62875311Y-24244581D01*
X62874501Y-24252123D01*
X62874500Y-24252135D01*
X62874500Y-26347870D01*
X62874501Y-26347876D01*
X62880908Y-26407483D01*
X62931202Y-26542328D01*
X62931206Y-26542335D01*
X63017452Y-26657544D01*
X63017455Y-26657547D01*
X63132664Y-26743793D01*
X63132671Y-26743797D01*
X63267517Y-26794091D01*
X63267516Y-26794091D01*
X63274444Y-26794835D01*
X63327127Y-26800500D01*
X65922872Y-26800499D01*
X65982483Y-26794091D01*
X66117331Y-26743796D01*
X66232546Y-26657546D01*
X66318796Y-26542331D01*
X66369091Y-26407483D01*
X66375500Y-26347873D01*
X66375500Y-26024500D01*
X66395185Y-25957461D01*
X66447989Y-25911706D01*
X66499500Y-25900500D01*
X68473743Y-25900500D01*
X68540782Y-25920185D01*
X68546099Y-25923924D01*
X68547157Y-25924534D01*
X68547159Y-25924536D01*
X68547160Y-25924536D01*
X68547163Y-25924538D01*
X68607427Y-25949500D01*
X68693238Y-25985044D01*
X68810639Y-26000500D01*
X69149360Y-26000499D01*
X69149363Y-26000499D01*
X69266755Y-25985045D01*
X69266755Y-25985044D01*
X69266762Y-25985044D01*
X69266767Y-25985041D01*
X69267900Y-25984739D01*
X69269085Y-25984738D01*
X69274821Y-25983984D01*
X69274920Y-25984738D01*
X69325080Y-25984737D01*
X69325180Y-25983983D01*
X69330907Y-25984737D01*
X69332091Y-25984737D01*
X69333234Y-25985043D01*
X69333236Y-25985043D01*
X69333238Y-25985044D01*
X69450639Y-26000500D01*
X69789360Y-26000499D01*
X69789363Y-26000499D01*
X69906753Y-25985046D01*
X69906757Y-25985044D01*
X69906762Y-25985044D01*
X70052841Y-25924536D01*
X70052845Y-25924532D01*
X70059876Y-25920474D01*
X70060882Y-25922216D01*
X70115932Y-25900931D01*
X70126257Y-25900500D01*
X71273743Y-25900500D01*
X71340782Y-25920185D01*
X71346099Y-25923924D01*
X71347157Y-25924534D01*
X71347159Y-25924536D01*
X71347160Y-25924536D01*
X71347163Y-25924538D01*
X71407427Y-25949500D01*
X71493238Y-25985044D01*
X71610639Y-26000500D01*
X71949360Y-26000499D01*
X71949363Y-26000499D01*
X72066755Y-25985045D01*
X72066755Y-25985044D01*
X72066762Y-25985044D01*
X72066767Y-25985041D01*
X72067900Y-25984739D01*
X72069085Y-25984738D01*
X72074821Y-25983984D01*
X72074920Y-25984738D01*
X72125080Y-25984737D01*
X72125180Y-25983983D01*
X72130907Y-25984737D01*
X72132091Y-25984737D01*
X72133234Y-25985043D01*
X72133236Y-25985043D01*
X72133238Y-25985044D01*
X72250639Y-26000500D01*
X72589360Y-26000499D01*
X72589363Y-26000499D01*
X72706753Y-25985046D01*
X72706757Y-25985044D01*
X72706762Y-25985044D01*
X72852841Y-25924536D01*
X72852845Y-25924532D01*
X72859876Y-25920474D01*
X72860882Y-25922216D01*
X72915932Y-25900931D01*
X72926257Y-25900500D01*
X80072688Y-25900500D01*
X80139727Y-25920185D01*
X80171642Y-25949773D01*
X80243237Y-26044581D01*
X80393958Y-26181980D01*
X80393960Y-26181982D01*
X80492641Y-26243082D01*
X80567363Y-26289348D01*
X80757544Y-26363024D01*
X80958024Y-26400500D01*
X80958026Y-26400500D01*
X81161974Y-26400500D01*
X81161976Y-26400500D01*
X81362456Y-26363024D01*
X81552637Y-26289348D01*
X81726041Y-26181981D01*
X81876764Y-26044579D01*
X81999673Y-25881821D01*
X82090582Y-25699250D01*
X82146397Y-25503083D01*
X82165215Y-25300000D01*
X82164790Y-25295418D01*
X82146397Y-25096917D01*
X82133233Y-25050651D01*
X82090582Y-24900750D01*
X82085228Y-24889998D01*
X82046272Y-24811764D01*
X81999673Y-24718179D01*
X81921955Y-24615264D01*
X81876762Y-24555418D01*
X81726041Y-24418019D01*
X81726039Y-24418017D01*
X81552642Y-24310655D01*
X81552635Y-24310651D01*
X81401586Y-24252135D01*
X81362456Y-24236976D01*
X81161976Y-24199500D01*
X80958024Y-24199500D01*
X80757544Y-24236976D01*
X80757541Y-24236976D01*
X80757541Y-24236977D01*
X80567364Y-24310651D01*
X80567357Y-24310655D01*
X80393960Y-24418017D01*
X80393958Y-24418019D01*
X80243237Y-24555418D01*
X80171642Y-24650227D01*
X80115533Y-24691863D01*
X80072688Y-24699500D01*
X72926257Y-24699500D01*
X72859218Y-24679815D01*
X72853900Y-24676075D01*
X72852836Y-24675461D01*
X72706765Y-24614957D01*
X72706760Y-24614955D01*
X72589370Y-24599501D01*
X72589367Y-24599500D01*
X72589361Y-24599500D01*
X72589354Y-24599500D01*
X72524500Y-24599500D01*
X72457461Y-24579815D01*
X72411706Y-24527011D01*
X72400500Y-24475500D01*
X72400500Y-23226257D01*
X72420185Y-23159218D01*
X72423924Y-23153900D01*
X72424532Y-23152845D01*
X72424536Y-23152841D01*
X72485044Y-23006762D01*
X72494055Y-22938314D01*
X72522321Y-22874418D01*
X72580646Y-22835947D01*
X72616994Y-22830500D01*
X82375500Y-22830500D01*
X82442539Y-22850185D01*
X82488294Y-22902989D01*
X82499500Y-22954500D01*
X82499500Y-23046610D01*
X82526317Y-23215932D01*
X82526598Y-23217701D01*
X82580127Y-23382445D01*
X82658768Y-23536788D01*
X82760586Y-23676928D01*
X82883072Y-23799414D01*
X83023212Y-23901232D01*
X83177555Y-23979873D01*
X83342299Y-24033402D01*
X83513389Y-24060500D01*
X83513390Y-24060500D01*
X83686610Y-24060500D01*
X83686611Y-24060500D01*
X83857701Y-24033402D01*
X84022445Y-23979873D01*
X84176788Y-23901232D01*
X84316928Y-23799414D01*
X84439414Y-23676928D01*
X84541232Y-23536788D01*
X84619873Y-23382445D01*
X84673402Y-23217701D01*
X84700500Y-23046611D01*
X84700500Y-22473389D01*
X84673402Y-22302299D01*
X84619873Y-22137555D01*
X84541232Y-21983212D01*
X84439414Y-21843072D01*
X84316928Y-21720586D01*
X84176788Y-21618768D01*
X84022445Y-21540127D01*
X83857701Y-21486598D01*
X83857699Y-21486597D01*
X83857698Y-21486597D01*
X83720497Y-21464867D01*
X83686611Y-21459500D01*
X83513389Y-21459500D01*
X83479502Y-21464867D01*
X83422953Y-21473823D01*
X83353660Y-21464867D01*
X83334668Y-21454453D01*
X83310667Y-21438417D01*
X83310665Y-21438416D01*
X83279657Y-21417697D01*
X83275495Y-21414916D01*
X83275493Y-21414915D01*
X83275490Y-21414913D01*
X83138917Y-21358343D01*
X83138907Y-21358340D01*
X82993920Y-21329500D01*
X82993918Y-21329500D01*
X71873918Y-21329500D01*
X62394500Y-21329500D01*
X62327461Y-21309815D01*
X62281706Y-21257011D01*
X62270500Y-21205500D01*
X62270500Y-11539999D01*
X74994785Y-11539999D01*
X74994785Y-11540000D01*
X75013602Y-11743082D01*
X75069417Y-11939247D01*
X75069422Y-11939260D01*
X75160327Y-12121821D01*
X75283237Y-12284581D01*
X75433958Y-12421980D01*
X75433960Y-12421982D01*
X75447049Y-12430086D01*
X75607363Y-12529348D01*
X75797544Y-12603024D01*
X75998024Y-12640500D01*
X75998026Y-12640500D01*
X76201974Y-12640500D01*
X76201976Y-12640500D01*
X76402456Y-12603024D01*
X76592637Y-12529348D01*
X76766041Y-12421981D01*
X76894122Y-12305219D01*
X76916762Y-12284581D01*
X76937227Y-12257482D01*
X76992730Y-12183984D01*
X77018565Y-12149773D01*
X77074674Y-12108137D01*
X77117519Y-12100500D01*
X82773743Y-12100500D01*
X82840782Y-12120185D01*
X82846099Y-12123924D01*
X82847157Y-12124534D01*
X82847159Y-12124536D01*
X82847160Y-12124536D01*
X82847163Y-12124538D01*
X82899202Y-12146093D01*
X82993238Y-12185044D01*
X83110639Y-12200500D01*
X83449360Y-12200499D01*
X83449363Y-12200499D01*
X83566755Y-12185045D01*
X83566755Y-12185044D01*
X83566762Y-12185044D01*
X83566767Y-12185041D01*
X83567900Y-12184739D01*
X83569085Y-12184738D01*
X83574821Y-12183984D01*
X83574920Y-12184738D01*
X83625080Y-12184737D01*
X83625180Y-12183983D01*
X83630907Y-12184737D01*
X83632091Y-12184737D01*
X83633234Y-12185043D01*
X83633236Y-12185043D01*
X83633238Y-12185044D01*
X83750639Y-12200500D01*
X84089360Y-12200499D01*
X84089363Y-12200499D01*
X84206753Y-12185046D01*
X84206757Y-12185044D01*
X84206762Y-12185044D01*
X84352841Y-12124536D01*
X84352845Y-12124532D01*
X84359876Y-12120474D01*
X84360882Y-12122216D01*
X84415932Y-12100931D01*
X84426257Y-12100500D01*
X86199903Y-12100500D01*
X86266942Y-12120185D01*
X86287584Y-12136819D01*
X94163181Y-20012416D01*
X94196666Y-20073739D01*
X94199500Y-20100097D01*
X94199500Y-22169551D01*
X94179815Y-22236590D01*
X94127011Y-22282345D01*
X94114507Y-22287256D01*
X94105667Y-22290185D01*
X93956342Y-22382289D01*
X93832289Y-22506342D01*
X93740187Y-22655663D01*
X93740185Y-22655668D01*
X93726421Y-22697205D01*
X93685001Y-22822203D01*
X93685001Y-22822204D01*
X93685000Y-22822204D01*
X93674500Y-22924983D01*
X93674500Y-24275001D01*
X93674501Y-24275018D01*
X93685000Y-24377796D01*
X93685001Y-24377799D01*
X93740185Y-24544331D01*
X93740187Y-24544336D01*
X93747024Y-24555421D01*
X93832288Y-24693656D01*
X93956344Y-24817712D01*
X94105666Y-24909814D01*
X94272203Y-24964999D01*
X94374991Y-24975500D01*
X95225008Y-24975499D01*
X95225016Y-24975498D01*
X95225019Y-24975498D01*
X95281302Y-24969748D01*
X95327797Y-24964999D01*
X95494334Y-24909814D01*
X95643656Y-24817712D01*
X95767712Y-24693656D01*
X95859814Y-24544334D01*
X95914999Y-24377797D01*
X95925500Y-24275009D01*
X95925499Y-22924992D01*
X95922225Y-22892946D01*
X95914999Y-22822203D01*
X95914998Y-22822200D01*
X95899523Y-22775500D01*
X95859814Y-22655666D01*
X95767712Y-22506344D01*
X95643656Y-22382288D01*
X95494334Y-22290186D01*
X95494333Y-22290185D01*
X95494332Y-22290185D01*
X95485493Y-22287256D01*
X95428049Y-22247482D01*
X95401228Y-22182965D01*
X95400500Y-22169551D01*
X95400500Y-19889060D01*
X95400501Y-19889047D01*
X95400501Y-19720944D01*
X95383841Y-19658768D01*
X95359577Y-19568216D01*
X95335549Y-19526598D01*
X95280524Y-19431290D01*
X95280518Y-19431282D01*
X87198490Y-11349255D01*
X87166396Y-11293668D01*
X87159577Y-11268216D01*
X87159573Y-11268209D01*
X87080524Y-11131290D01*
X87080518Y-11131282D01*
X86968717Y-11019481D01*
X86968709Y-11019475D01*
X86831790Y-10940426D01*
X86831786Y-10940424D01*
X86831784Y-10940423D01*
X86679057Y-10899500D01*
X86679056Y-10899500D01*
X86586669Y-10899500D01*
X86586653Y-10899499D01*
X86579057Y-10899499D01*
X86420943Y-10899499D01*
X86413347Y-10899499D01*
X86413331Y-10899500D01*
X84426257Y-10899500D01*
X84359218Y-10879815D01*
X84353900Y-10876075D01*
X84352836Y-10875461D01*
X84206765Y-10814957D01*
X84206760Y-10814955D01*
X84089361Y-10799500D01*
X83750636Y-10799500D01*
X83633234Y-10814955D01*
X83632083Y-10815264D01*
X83630891Y-10815264D01*
X83625179Y-10816016D01*
X83625080Y-10815264D01*
X83574919Y-10815264D01*
X83574820Y-10816017D01*
X83569107Y-10815264D01*
X83567917Y-10815265D01*
X83566765Y-10814956D01*
X83449361Y-10799500D01*
X83110636Y-10799500D01*
X82993246Y-10814953D01*
X82993234Y-10814957D01*
X82847163Y-10875461D01*
X82840124Y-10879526D01*
X82839117Y-10877783D01*
X82784068Y-10899069D01*
X82773743Y-10899500D01*
X77057106Y-10899500D01*
X76990067Y-10879815D01*
X76958152Y-10850227D01*
X76932317Y-10816017D01*
X76916764Y-10795421D01*
X76766041Y-10658019D01*
X76766039Y-10658017D01*
X76592642Y-10550655D01*
X76592635Y-10550651D01*
X76463176Y-10500499D01*
X76402456Y-10476976D01*
X76201976Y-10439500D01*
X75998024Y-10439500D01*
X75797544Y-10476976D01*
X75797541Y-10476976D01*
X75797541Y-10476977D01*
X75607364Y-10550651D01*
X75607357Y-10550655D01*
X75433960Y-10658017D01*
X75433958Y-10658019D01*
X75283237Y-10795418D01*
X75160327Y-10958178D01*
X75069422Y-11140739D01*
X75069417Y-11140752D01*
X75013602Y-11336917D01*
X74994785Y-11539999D01*
X62270500Y-11539999D01*
X62270500Y-7952135D01*
X63174500Y-7952135D01*
X63174500Y-10047870D01*
X63174501Y-10047876D01*
X63180908Y-10107483D01*
X63231202Y-10242328D01*
X63231206Y-10242335D01*
X63317452Y-10357544D01*
X63317455Y-10357547D01*
X63432664Y-10443793D01*
X63432671Y-10443797D01*
X63567517Y-10494091D01*
X63567516Y-10494091D01*
X63574444Y-10494835D01*
X63627127Y-10500500D01*
X66222872Y-10500499D01*
X66282483Y-10494091D01*
X66417331Y-10443796D01*
X66532546Y-10357546D01*
X66618796Y-10242331D01*
X66669091Y-10107483D01*
X66675500Y-10047873D01*
X66675500Y-9724500D01*
X66695185Y-9657461D01*
X66747989Y-9611706D01*
X66799500Y-9600500D01*
X67473743Y-9600500D01*
X67540782Y-9620185D01*
X67546099Y-9623924D01*
X67547157Y-9624534D01*
X67547159Y-9624536D01*
X67547160Y-9624536D01*
X67547163Y-9624538D01*
X67607427Y-9649500D01*
X67693238Y-9685044D01*
X67810639Y-9700500D01*
X68149360Y-9700499D01*
X68149363Y-9700499D01*
X68266755Y-9685045D01*
X68266755Y-9685044D01*
X68266762Y-9685044D01*
X68266767Y-9685041D01*
X68267900Y-9684739D01*
X68269085Y-9684738D01*
X68274821Y-9683984D01*
X68274920Y-9684738D01*
X68325080Y-9684737D01*
X68325180Y-9683983D01*
X68330907Y-9684737D01*
X68332091Y-9684737D01*
X68333234Y-9685043D01*
X68333236Y-9685043D01*
X68333238Y-9685044D01*
X68450639Y-9700500D01*
X68789360Y-9700499D01*
X68789363Y-9700499D01*
X68906753Y-9685046D01*
X68906757Y-9685044D01*
X68906762Y-9685044D01*
X69052841Y-9624536D01*
X69052845Y-9624532D01*
X69059876Y-9620474D01*
X69060882Y-9622216D01*
X69115932Y-9600931D01*
X69126257Y-9600500D01*
X72572688Y-9600500D01*
X72639727Y-9620185D01*
X72671642Y-9649773D01*
X72743237Y-9744581D01*
X72893958Y-9881980D01*
X72893960Y-9881982D01*
X72993141Y-9943392D01*
X73067363Y-9989348D01*
X73257544Y-10063024D01*
X73458024Y-10100500D01*
X73458026Y-10100500D01*
X73661974Y-10100500D01*
X73661976Y-10100500D01*
X73862456Y-10063024D01*
X74052637Y-9989348D01*
X74226041Y-9881981D01*
X74376764Y-9744579D01*
X74499673Y-9581821D01*
X74590582Y-9399250D01*
X74646397Y-9203083D01*
X74665215Y-9000000D01*
X74646397Y-8796917D01*
X74590582Y-8600750D01*
X74583039Y-8585602D01*
X74546272Y-8511764D01*
X74499673Y-8418179D01*
X74421955Y-8315264D01*
X74376762Y-8255418D01*
X74226041Y-8118019D01*
X74226039Y-8118017D01*
X74052642Y-8010655D01*
X74052635Y-8010651D01*
X73901586Y-7952135D01*
X73862456Y-7936976D01*
X73661976Y-7899500D01*
X73458024Y-7899500D01*
X73257544Y-7936976D01*
X73257541Y-7936976D01*
X73257541Y-7936977D01*
X73067364Y-8010651D01*
X73067357Y-8010655D01*
X72893960Y-8118017D01*
X72893958Y-8118019D01*
X72743237Y-8255418D01*
X72671642Y-8350227D01*
X72615533Y-8391863D01*
X72572688Y-8399500D01*
X69126257Y-8399500D01*
X69059218Y-8379815D01*
X69053900Y-8376075D01*
X69052836Y-8375461D01*
X68906765Y-8314957D01*
X68906760Y-8314955D01*
X68789361Y-8299500D01*
X68450636Y-8299500D01*
X68333234Y-8314955D01*
X68332083Y-8315264D01*
X68330891Y-8315264D01*
X68325179Y-8316016D01*
X68325080Y-8315264D01*
X68274919Y-8315264D01*
X68274820Y-8316017D01*
X68269107Y-8315264D01*
X68267917Y-8315265D01*
X68266765Y-8314956D01*
X68149361Y-8299500D01*
X67810636Y-8299500D01*
X67693246Y-8314953D01*
X67693234Y-8314957D01*
X67547163Y-8375461D01*
X67540124Y-8379526D01*
X67539117Y-8377783D01*
X67484068Y-8399069D01*
X67473743Y-8399500D01*
X66799499Y-8399500D01*
X66732460Y-8379815D01*
X66686705Y-8327011D01*
X66675499Y-8275500D01*
X66675499Y-7952129D01*
X66675498Y-7952123D01*
X66675497Y-7952116D01*
X66669091Y-7892517D01*
X66618796Y-7757669D01*
X66618795Y-7757668D01*
X66618793Y-7757664D01*
X66532547Y-7642455D01*
X66532544Y-7642452D01*
X66417335Y-7556206D01*
X66417328Y-7556202D01*
X66282482Y-7505908D01*
X66282483Y-7505908D01*
X66222883Y-7499501D01*
X66222881Y-7499500D01*
X66222873Y-7499500D01*
X66222864Y-7499500D01*
X63627129Y-7499500D01*
X63627123Y-7499501D01*
X63567516Y-7505908D01*
X63432671Y-7556202D01*
X63432664Y-7556206D01*
X63317455Y-7642452D01*
X63317452Y-7642455D01*
X63231206Y-7757664D01*
X63231202Y-7757671D01*
X63180908Y-7892517D01*
X63174501Y-7952116D01*
X63174501Y-7952123D01*
X63174500Y-7952135D01*
X62270500Y-7952135D01*
X62270500Y-7334500D01*
X62290185Y-7267461D01*
X62342989Y-7221706D01*
X62394500Y-7210500D01*
X75076487Y-7210500D01*
X75143526Y-7230185D01*
X75176805Y-7261614D01*
X75260586Y-7376928D01*
X75383072Y-7499414D01*
X75523212Y-7601232D01*
X75677555Y-7679873D01*
X75842299Y-7733402D01*
X76013389Y-7760500D01*
X76013390Y-7760500D01*
X76186610Y-7760500D01*
X76186611Y-7760500D01*
X76357701Y-7733402D01*
X76522445Y-7679873D01*
X76676788Y-7601232D01*
X76816928Y-7499414D01*
X76939414Y-7376928D01*
X77041232Y-7236788D01*
X77119873Y-7082445D01*
X77173402Y-6917701D01*
X77200500Y-6746611D01*
X77200500Y-6173389D01*
X77173402Y-6002299D01*
X77119873Y-5837555D01*
X77041232Y-5683212D01*
X76939414Y-5543072D01*
X76816928Y-5420586D01*
X76676788Y-5318768D01*
X76522445Y-5240127D01*
X76357701Y-5186598D01*
X76357699Y-5186597D01*
X76357698Y-5186597D01*
X76226271Y-5165781D01*
X76186611Y-5159500D01*
X76013389Y-5159500D01*
X75973728Y-5165781D01*
X75842302Y-5186597D01*
X75677552Y-5240128D01*
X75523211Y-5318768D01*
X75472093Y-5355908D01*
X75383072Y-5420586D01*
X75383070Y-5420588D01*
X75383069Y-5420588D01*
X75260587Y-5543070D01*
X75176805Y-5658386D01*
X75121474Y-5701051D01*
X75076487Y-5709500D01*
X58092872Y-5709500D01*
X58025833Y-5689815D01*
X57980078Y-5637011D01*
X57976690Y-5628833D01*
X57968797Y-5607671D01*
X57968793Y-5607664D01*
X57882547Y-5492455D01*
X57882544Y-5492452D01*
X57767335Y-5406206D01*
X57767328Y-5406202D01*
X57632482Y-5355908D01*
X57632483Y-5355908D01*
X57572883Y-5349501D01*
X57572881Y-5349500D01*
X57572873Y-5349500D01*
X57572864Y-5349500D01*
X54977129Y-5349500D01*
X54977123Y-5349501D01*
X54917516Y-5355908D01*
X54782671Y-5406202D01*
X54782664Y-5406206D01*
X54667455Y-5492452D01*
X54667452Y-5492455D01*
X54581206Y-5607664D01*
X54581202Y-5607671D01*
X54530908Y-5742517D01*
X54524501Y-5802116D01*
X54524500Y-5802135D01*
X54524500Y-5975500D01*
X54504815Y-6042539D01*
X54452011Y-6088294D01*
X54400500Y-6099500D01*
X53076082Y-6099500D01*
X53050921Y-6104505D01*
X53050920Y-6104505D01*
X52931095Y-6128339D01*
X52931092Y-6128340D01*
X52931088Y-6128341D01*
X52851080Y-6161481D01*
X52851078Y-6161481D01*
X52794505Y-6184915D01*
X52712372Y-6239795D01*
X52671585Y-6267047D01*
X52671581Y-6267050D01*
X48028049Y-10910582D01*
X47966726Y-10944067D01*
X47897034Y-10939083D01*
X47841101Y-10897211D01*
X47838793Y-10894024D01*
X47838496Y-10893600D01*
X47795123Y-10850227D01*
X47716179Y-10771283D01*
X47682696Y-10709963D01*
X47687680Y-10640271D01*
X47729551Y-10584337D01*
X47760529Y-10567422D01*
X47892086Y-10518354D01*
X47892093Y-10518350D01*
X48007187Y-10432190D01*
X48007190Y-10432187D01*
X48093350Y-10317093D01*
X48093354Y-10317086D01*
X48143596Y-10182379D01*
X48143598Y-10182372D01*
X48149999Y-10122844D01*
X48150000Y-10122827D01*
X48150000Y-9350000D01*
X47284144Y-9350000D01*
X47300000Y-9290826D01*
X47300000Y-9159174D01*
X47284144Y-9100000D01*
X48150000Y-9100000D01*
X48150000Y-8327172D01*
X48149999Y-8327155D01*
X48143598Y-8267627D01*
X48143596Y-8267620D01*
X48093354Y-8132913D01*
X48093350Y-8132906D01*
X48007190Y-8017812D01*
X48007187Y-8017809D01*
X47892093Y-7931649D01*
X47892086Y-7931645D01*
X47757379Y-7881403D01*
X47757372Y-7881401D01*
X47697844Y-7875000D01*
X46925000Y-7875000D01*
X46925000Y-8740855D01*
X46865826Y-8725000D01*
X46734174Y-8725000D01*
X46675000Y-8740855D01*
X46675000Y-7875000D01*
X45902155Y-7875000D01*
X45842627Y-7881401D01*
X45842620Y-7881403D01*
X45707913Y-7931645D01*
X45707906Y-7931649D01*
X45592812Y-8017809D01*
X45592809Y-8017812D01*
X45506649Y-8132906D01*
X45506645Y-8132913D01*
X45456403Y-8267620D01*
X45456401Y-8267627D01*
X45450000Y-8327155D01*
X45450000Y-9100000D01*
X46315856Y-9100000D01*
X46300000Y-9159174D01*
X46300000Y-9290826D01*
X46315856Y-9350000D01*
X45450000Y-9350000D01*
X45450000Y-10122844D01*
X45456401Y-10182372D01*
X45456403Y-10182379D01*
X45506645Y-10317086D01*
X45506649Y-10317093D01*
X45592809Y-10432187D01*
X45592812Y-10432190D01*
X45707906Y-10518350D01*
X45707913Y-10518354D01*
X45839470Y-10567421D01*
X45895403Y-10609292D01*
X45919821Y-10674756D01*
X45904970Y-10743029D01*
X45883819Y-10771284D01*
X45761503Y-10893600D01*
X45625965Y-11087169D01*
X45625964Y-11087171D01*
X45526098Y-11301335D01*
X45526094Y-11301344D01*
X45464938Y-11529586D01*
X45464936Y-11529596D01*
X45444341Y-11764999D01*
X45444341Y-11765000D01*
X45464936Y-12000403D01*
X45464938Y-12000413D01*
X45483010Y-12067859D01*
X45481347Y-12137709D01*
X45478649Y-12145076D01*
X45478340Y-12146093D01*
X45449500Y-12291079D01*
X45449500Y-19902796D01*
X45429815Y-19969835D01*
X45413181Y-19990477D01*
X45360588Y-20043069D01*
X45360587Y-20043070D01*
X45276805Y-20158386D01*
X45221474Y-20201051D01*
X45176487Y-20209500D01*
X41722229Y-20209500D01*
X41655190Y-20189815D01*
X41634548Y-20173181D01*
X38478421Y-17017052D01*
X38478414Y-17017046D01*
X38404729Y-16967812D01*
X38404729Y-16967813D01*
X38355491Y-16934913D01*
X38218917Y-16878343D01*
X38218907Y-16878340D01*
X38073920Y-16849500D01*
X38073918Y-16849500D01*
X17226082Y-16849500D01*
X17226080Y-16849500D01*
X17081092Y-16878340D01*
X17081086Y-16878342D01*
X16944508Y-16934914D01*
X16944496Y-16934921D01*
X16895269Y-16967813D01*
X16821588Y-17017044D01*
X16821580Y-17017050D01*
X15325451Y-18513181D01*
X15264128Y-18546666D01*
X15237770Y-18549500D01*
X14724499Y-18549500D01*
X14657460Y-18529815D01*
X14611705Y-18477011D01*
X14600499Y-18425500D01*
X14600499Y-17852129D01*
X14600498Y-17852123D01*
X14600497Y-17852116D01*
X14594091Y-17792517D01*
X14543796Y-17657669D01*
X14543795Y-17657668D01*
X14543793Y-17657664D01*
X14457547Y-17542455D01*
X14457544Y-17542452D01*
X14342335Y-17456206D01*
X14342328Y-17456202D01*
X14207482Y-17405908D01*
X14207483Y-17405908D01*
X14147883Y-17399501D01*
X14147881Y-17399500D01*
X14147873Y-17399500D01*
X14147864Y-17399500D01*
X11252129Y-17399500D01*
X11252123Y-17399501D01*
X11192516Y-17405908D01*
X11057671Y-17456202D01*
X11057664Y-17456206D01*
X10942455Y-17542452D01*
X10942452Y-17542455D01*
X10856206Y-17657664D01*
X10856202Y-17657671D01*
X10805908Y-17792517D01*
X10799501Y-17852116D01*
X10799501Y-17852123D01*
X10799500Y-17852135D01*
X1600000Y-17852135D01*
X1600000Y-5099999D01*
X3095197Y-5099999D01*
X3095197Y-5100000D01*
X3114397Y-5466353D01*
X3171784Y-5828684D01*
X3171784Y-5828686D01*
X3266736Y-6183051D01*
X3398204Y-6525535D01*
X3564754Y-6852406D01*
X3764553Y-7160070D01*
X3995420Y-7445166D01*
X3995427Y-7445174D01*
X4036738Y-7486485D01*
X5451729Y-6071493D01*
X5455864Y-6077184D01*
X5622816Y-6244136D01*
X5628506Y-6248270D01*
X4213515Y-7663262D01*
X4254825Y-7704572D01*
X4254833Y-7704579D01*
X4539929Y-7935446D01*
X4847593Y-8135245D01*
X5174464Y-8301795D01*
X5516948Y-8433263D01*
X5871314Y-8528215D01*
X6233646Y-8585602D01*
X6599999Y-8604803D01*
X6600001Y-8604803D01*
X6966353Y-8585602D01*
X7328684Y-8528215D01*
X7328686Y-8528215D01*
X7683051Y-8433263D01*
X8025535Y-8301795D01*
X8352406Y-8135245D01*
X8660070Y-7935446D01*
X8945166Y-7704579D01*
X8945174Y-7704572D01*
X8986485Y-7663262D01*
X7571493Y-6248270D01*
X7577184Y-6244136D01*
X7744136Y-6077184D01*
X7748270Y-6071493D01*
X9163262Y-7486485D01*
X9204572Y-7445174D01*
X9204579Y-7445166D01*
X9435446Y-7160070D01*
X9635245Y-6852406D01*
X9801795Y-6525535D01*
X9933263Y-6183051D01*
X10028215Y-5828686D01*
X10028215Y-5828684D01*
X10085602Y-5466353D01*
X10104803Y-5100000D01*
X10104803Y-5099999D01*
X103095197Y-5099999D01*
X103095197Y-5100000D01*
X103114397Y-5466353D01*
X103171784Y-5828684D01*
X103171784Y-5828686D01*
X103266736Y-6183051D01*
X103398204Y-6525535D01*
X103564754Y-6852406D01*
X103764553Y-7160070D01*
X103995420Y-7445166D01*
X103995427Y-7445174D01*
X104036738Y-7486485D01*
X105451729Y-6071493D01*
X105455864Y-6077184D01*
X105622816Y-6244136D01*
X105628506Y-6248270D01*
X104213515Y-7663262D01*
X104254825Y-7704572D01*
X104254833Y-7704579D01*
X104539929Y-7935446D01*
X104847593Y-8135245D01*
X105174464Y-8301795D01*
X105516948Y-8433263D01*
X105871314Y-8528215D01*
X106233646Y-8585602D01*
X106599999Y-8604803D01*
X106600001Y-8604803D01*
X106966353Y-8585602D01*
X107328684Y-8528215D01*
X107328686Y-8528215D01*
X107683051Y-8433263D01*
X108025535Y-8301795D01*
X108352406Y-8135245D01*
X108660070Y-7935446D01*
X108945166Y-7704579D01*
X108945174Y-7704572D01*
X108986485Y-7663262D01*
X107571493Y-6248270D01*
X107577184Y-6244136D01*
X107744136Y-6077184D01*
X107748270Y-6071493D01*
X109163262Y-7486485D01*
X109204572Y-7445174D01*
X109204579Y-7445166D01*
X109435446Y-7160070D01*
X109635245Y-6852406D01*
X109801795Y-6525535D01*
X109933263Y-6183051D01*
X110028215Y-5828686D01*
X110028215Y-5828684D01*
X110085602Y-5466353D01*
X110104803Y-5100000D01*
X110104803Y-5099999D01*
X110085602Y-4733646D01*
X110028215Y-4371315D01*
X110028215Y-4371313D01*
X109933263Y-4016948D01*
X109801795Y-3674464D01*
X109635245Y-3347594D01*
X109435446Y-3039929D01*
X109204579Y-2754833D01*
X109204572Y-2754825D01*
X109163262Y-2713515D01*
X107748270Y-4128506D01*
X107744136Y-4122816D01*
X107577184Y-3955864D01*
X107571493Y-3951729D01*
X108986485Y-2536738D01*
X108945174Y-2495427D01*
X108945166Y-2495420D01*
X108660070Y-2264553D01*
X108352406Y-2064754D01*
X108025535Y-1898204D01*
X107683051Y-1766736D01*
X107328685Y-1671784D01*
X106966353Y-1614397D01*
X106600001Y-1595197D01*
X106599999Y-1595197D01*
X106233646Y-1614397D01*
X105871315Y-1671784D01*
X105871313Y-1671784D01*
X105516948Y-1766736D01*
X105174464Y-1898204D01*
X104847594Y-2064754D01*
X104539929Y-2264553D01*
X104254833Y-2495420D01*
X104254825Y-2495427D01*
X104213515Y-2536738D01*
X105628506Y-3951729D01*
X105622816Y-3955864D01*
X105455864Y-4122816D01*
X105451729Y-4128506D01*
X104036738Y-2713515D01*
X103995427Y-2754825D01*
X103995420Y-2754833D01*
X103764553Y-3039929D01*
X103564754Y-3347594D01*
X103398204Y-3674464D01*
X103266736Y-4016948D01*
X103171784Y-4371313D01*
X103171784Y-4371315D01*
X103114397Y-4733646D01*
X103095197Y-5099999D01*
X10104803Y-5099999D01*
X10085602Y-4733646D01*
X10028215Y-4371315D01*
X10028215Y-4371313D01*
X9933263Y-4016948D01*
X9801795Y-3674464D01*
X9635245Y-3347594D01*
X9435446Y-3039929D01*
X9204579Y-2754833D01*
X9204572Y-2754825D01*
X9163262Y-2713515D01*
X7748270Y-4128506D01*
X7744136Y-4122816D01*
X7577184Y-3955864D01*
X7571493Y-3951729D01*
X8986485Y-2536738D01*
X8945174Y-2495427D01*
X8945166Y-2495420D01*
X8660070Y-2264553D01*
X8352406Y-2064754D01*
X8025535Y-1898204D01*
X7683051Y-1766736D01*
X7328685Y-1671784D01*
X6966353Y-1614397D01*
X6600001Y-1595197D01*
X6599999Y-1595197D01*
X6233646Y-1614397D01*
X5871315Y-1671784D01*
X5871313Y-1671784D01*
X5516948Y-1766736D01*
X5174464Y-1898204D01*
X4847594Y-2064754D01*
X4539929Y-2264553D01*
X4254833Y-2495420D01*
X4254825Y-2495427D01*
X4213515Y-2536738D01*
X5628506Y-3951729D01*
X5622816Y-3955864D01*
X5455864Y-4122816D01*
X5451729Y-4128506D01*
X4036738Y-2713515D01*
X3995427Y-2754825D01*
X3995420Y-2754833D01*
X3764553Y-3039929D01*
X3564754Y-3347594D01*
X3398204Y-3674464D01*
X3266736Y-4016948D01*
X3171784Y-4371313D01*
X3171784Y-4371315D01*
X3114397Y-4733646D01*
X3095197Y-5099999D01*
X1600000Y-5099999D01*
X1600000Y-224000D01*
X1619685Y-156961D01*
X1672489Y-111206D01*
X1724000Y-100000D01*
X111476000Y-100000D01*
X111543039Y-119685D01*
G37*
%TD.AperFunction*%
%TD*%
M02*
