%TF.GenerationSoftware,KiCad,Pcbnew,8.0.5*%
%TF.CreationDate,2024-10-13T18:39:00+03:00*%
%TF.ProjectId,proect,70726f65-6374-42e6-9b69-6361645f7063,rev?*%
%TF.SameCoordinates,Original*%
%TF.FileFunction,Copper,L2,Bot*%
%TF.FilePolarity,Positive*%
%FSLAX46Y46*%
G04 Gerber Fmt 4.6, Leading zero omitted, Abs format (unit mm)*
G04 Created by KiCad (PCBNEW 8.0.5) date 2024-10-13 18:39:00*
%MOMM*%
%LPD*%
G01*
G04 APERTURE LIST*
%TA.AperFunction,ComponentPad*%
%ADD10O,1.200000X1.600000*%
%TD*%
%TA.AperFunction,ComponentPad*%
%ADD11O,1.200000X1.200000*%
%TD*%
%TA.AperFunction,ComponentPad*%
%ADD12C,0.800000*%
%TD*%
%TA.AperFunction,ComponentPad*%
%ADD13C,6.000000*%
%TD*%
%TA.AperFunction,ComponentPad*%
%ADD14R,1.700000X1.700000*%
%TD*%
%TA.AperFunction,ComponentPad*%
%ADD15O,1.700000X1.700000*%
%TD*%
G04 APERTURE END LIST*
D10*
%TO.P,Q4,1,E*%
%TO.N,-9V*%
X81800000Y-39060000D03*
D11*
%TO.P,Q4,2,B*%
%TO.N,Net-(Q4-B)*%
X79260000Y-41600000D03*
%TO.P,Q4,3,C*%
%TO.N,Net-(Q4-C)*%
X81800000Y-44140000D03*
%TD*%
D10*
%TO.P,Q3,1,E*%
%TO.N,-9V*%
X83600000Y-22760000D03*
D11*
%TO.P,Q3,2,B*%
%TO.N,Net-(Q3-B)*%
X81060000Y-25300000D03*
%TO.P,Q3,3,C*%
%TO.N,Net-(Q3-C)*%
X83600000Y-27840000D03*
%TD*%
D10*
%TO.P,Q2,1,E*%
%TO.N,-9V*%
X76100000Y-6460000D03*
D11*
%TO.P,Q2,2,B*%
%TO.N,Net-(Q2-B)*%
X73560000Y-9000000D03*
%TO.P,Q2,3,C*%
%TO.N,Net-(Q2-C)*%
X76100000Y-11540000D03*
%TD*%
D10*
%TO.P,Q1,1,E*%
%TO.N,-9V*%
X46200000Y-20960000D03*
D11*
%TO.P,Q1,2,B*%
%TO.N,Net-(Q1-B)*%
X43660000Y-23500000D03*
%TO.P,Q1,3,C*%
%TO.N,Net-(Q1-C)*%
X46200000Y-26040000D03*
%TD*%
D12*
%TO.P,J7,1,Pin_1*%
%TO.N,GND*%
X4350000Y-5100000D03*
X5009010Y-3509010D03*
X5009010Y-6690990D03*
X6600000Y-2850000D03*
D13*
X6600000Y-5100000D03*
D12*
X6600000Y-7350000D03*
X8190990Y-3509010D03*
X8190990Y-6690990D03*
X8850000Y-5100000D03*
%TD*%
%TO.P,J6,1,Pin_1*%
%TO.N,GND*%
X4350000Y-45100000D03*
X5009010Y-43509010D03*
X5009010Y-46690990D03*
X6600000Y-42850000D03*
D13*
X6600000Y-45100000D03*
D12*
X6600000Y-47350000D03*
X8190990Y-43509010D03*
X8190990Y-46690990D03*
X8850000Y-45100000D03*
%TD*%
%TO.P,J5,1,Pin_1*%
%TO.N,GND*%
X104350000Y-5100000D03*
X105009010Y-3509010D03*
X105009010Y-6690990D03*
X106600000Y-2850000D03*
D13*
X106600000Y-5100000D03*
D12*
X106600000Y-7350000D03*
X108190990Y-3509010D03*
X108190990Y-6690990D03*
X108850000Y-5100000D03*
%TD*%
%TO.P,J4,1,Pin_1*%
%TO.N,GND*%
X104350000Y-45100000D03*
X105009010Y-43509010D03*
X105009010Y-46690990D03*
X106600000Y-42850000D03*
D13*
X106600000Y-45100000D03*
D12*
X106600000Y-47350000D03*
X108190990Y-43509010D03*
X108190990Y-46690990D03*
X108850000Y-45100000D03*
%TD*%
D14*
%TO.P,J3,1,Pin_1*%
%TO.N,GND*%
X46800000Y-9225000D03*
D15*
%TO.P,J3,2,Pin_2*%
%TO.N,-9V*%
X46800000Y-11765000D03*
%TD*%
D14*
%TO.P,J2,1,Pin_1*%
%TO.N,GND*%
X105100000Y-25225000D03*
D15*
%TO.P,J2,2,Pin_2*%
%TO.N,+9V*%
X105100000Y-27765000D03*
%TD*%
M02*
