M48
; DRILL file {KiCad 8.0.5} date 2024-10-13T18:39:06+0300
; FORMAT={-:-/ absolute / inch / decimal}
; #@! TF.CreationDate,2024-10-13T18:39:06+03:00
; #@! TF.GenerationSoftware,Kicad,Pcbnew,8.0.5
; #@! TF.FileFunction,Plated,1,2,PTH
FMAT,2
INCH
; #@! TA.AperFunction,Plated,PTH,ComponentDrill
T1C0.0197
; #@! TA.AperFunction,Plated,PTH,ComponentDrill
T2C0.0276
; #@! TA.AperFunction,Plated,PTH,ComponentDrill
T3C0.0394
; #@! TA.AperFunction,Plated,PTH,ComponentDrill
T4C0.1181
%
G90
G05
T1
X0.1713Y-0.2008
X0.1713Y-1.7756
X0.1972Y-0.1381
X0.1972Y-0.2634
X0.1972Y-1.713
X0.1972Y-1.8382
X0.2598Y-0.1122
X0.2598Y-0.2894
X0.2598Y-1.687
X0.2598Y-1.8642
X0.3225Y-0.1381
X0.3225Y-0.2634
X0.3225Y-1.713
X0.3225Y-1.8382
X0.3484Y-0.2008
X0.3484Y-1.7756
X4.1083Y-0.2008
X4.1083Y-1.7756
X4.1342Y-0.1381
X4.1342Y-0.2634
X4.1342Y-1.713
X4.1342Y-1.8382
X4.1969Y-0.1122
X4.1969Y-0.2894
X4.1969Y-1.687
X4.1969Y-1.8642
X4.2595Y-0.1381
X4.2595Y-0.2634
X4.2595Y-1.713
X4.2595Y-1.8382
X4.2854Y-0.2008
X4.2854Y-1.7756
T2
X1.7189Y-0.9252
X1.8189Y-0.8252
X1.8189Y-1.0252
X2.8961Y-0.3543
X2.9961Y-0.2543
X2.9961Y-0.4543
X3.1205Y-1.6378
X3.1913Y-0.9961
X3.2205Y-1.5378
X3.2205Y-1.7378
X3.2913Y-0.8961
X3.2913Y-1.0961
T3
X1.8425Y-0.3632
X1.8425Y-0.4632
X4.1378Y-0.9931
X4.1378Y-1.0931
T4
X0.2598Y-0.2008
X0.2598Y-1.7756
X4.1969Y-0.2008
X4.1969Y-1.7756
M30
