%TF.GenerationSoftware,KiCad,Pcbnew,8.0.5*%
%TF.CreationDate,2024-10-13T18:39:00+03:00*%
%TF.ProjectId,proect,70726f65-6374-42e6-9b69-6361645f7063,rev?*%
%TF.SameCoordinates,Original*%
%TF.FileFunction,Soldermask,Bot*%
%TF.FilePolarity,Negative*%
%FSLAX46Y46*%
G04 Gerber Fmt 4.6, Leading zero omitted, Abs format (unit mm)*
G04 Created by KiCad (PCBNEW 8.0.5) date 2024-10-13 18:39:00*
%MOMM*%
%LPD*%
G01*
G04 APERTURE LIST*
%ADD10O,1.200000X1.600000*%
%ADD11O,1.200000X1.200000*%
%ADD12C,0.800000*%
%ADD13C,6.000000*%
%ADD14R,1.700000X1.700000*%
%ADD15O,1.700000X1.700000*%
%ADD16C,1.700000*%
G04 APERTURE END LIST*
D10*
%TO.C,Q4*%
X81800000Y-39060000D03*
D11*
X79260000Y-41600000D03*
X81800000Y-44140000D03*
%TD*%
D10*
%TO.C,Q3*%
X83600000Y-22760000D03*
D11*
X81060000Y-25300000D03*
X83600000Y-27840000D03*
%TD*%
D10*
%TO.C,Q2*%
X76100000Y-6460000D03*
D11*
X73560000Y-9000000D03*
X76100000Y-11540000D03*
%TD*%
D10*
%TO.C,Q1*%
X46200000Y-20960000D03*
D11*
X43660000Y-23500000D03*
X46200000Y-26040000D03*
%TD*%
D12*
%TO.C,J7*%
X4350000Y-5100000D03*
X5009010Y-3509010D03*
X5009010Y-6690990D03*
X6600000Y-2850000D03*
D13*
X6600000Y-5100000D03*
D12*
X6600000Y-7350000D03*
X8190990Y-3509010D03*
X8190990Y-6690990D03*
X8850000Y-5100000D03*
%TD*%
%TO.C,J6*%
X4350000Y-45100000D03*
X5009010Y-43509010D03*
X5009010Y-46690990D03*
X6600000Y-42850000D03*
D13*
X6600000Y-45100000D03*
D12*
X6600000Y-47350000D03*
X8190990Y-43509010D03*
X8190990Y-46690990D03*
X8850000Y-45100000D03*
%TD*%
%TO.C,J5*%
X104350000Y-5100000D03*
X105009010Y-3509010D03*
X105009010Y-6690990D03*
X106600000Y-2850000D03*
D13*
X106600000Y-5100000D03*
D12*
X106600000Y-7350000D03*
X108190990Y-3509010D03*
X108190990Y-6690990D03*
X108850000Y-5100000D03*
%TD*%
%TO.C,J4*%
X104350000Y-45100000D03*
X105009010Y-43509010D03*
X105009010Y-46690990D03*
X106600000Y-42850000D03*
D13*
X106600000Y-45100000D03*
D12*
X106600000Y-47350000D03*
X108190990Y-43509010D03*
X108190990Y-46690990D03*
X108850000Y-45100000D03*
%TD*%
D14*
%TO.C,J3*%
X46800000Y-9225000D03*
D15*
X46800000Y-11765000D03*
%TD*%
D14*
%TO.C,J2*%
X105100000Y-25225000D03*
D15*
X105100000Y-27765000D03*
%TD*%
D16*
%TO.C,J1*%
X9000000Y-27600000D03*
X9000000Y-20600000D03*
%TD*%
M02*
